<?xml version="1.0" encoding="UTF-8"?>
<svg xmlns="http://www.w3.org/2000/svg" id="abduction-kidnapping" viewBox="0 0 48 48"><path fill="currentColor" d="M45 0a3.018 3.018 0 0 0-3 3v16l-4.806 4.844a.972.972 0 0 1-1.604.173 1.25 1.25 0 0 1 0-1.747l4.056-4.126a2.148 2.148 0 0 0 0-3 2.06 2.06 0 0 0-2.948 0l-7.868 8.005A6.396 6.396 0 0 0 27.017 28H27v7h-6v-7h-.017a6.396 6.396 0 0 0-1.813-4.851l-7.868-8.005a2.06 2.06 0 0 0-2.948 0 2.148 2.148 0 0 0 0 3l4.056 4.126a1.25 1.25 0 0 1 0 1.747 1.2 1.2 0 0 1-1.717 0L6 19V3a3.018 3.018 0 0 0-3-3 3.018 3.018 0 0 0-3 3v17.399a3.027 3.027 0 0 0 .866 2.123l9.379 9.524L12 33.832V35a2 2 0 0 0 0 4v3a2 2 0 0 0 0 4v2h9v-2h6v2h9v-2a2 2 0 0 0 0-4v-3a2 2 0 0 0 0-4v-1.167l2.108-2.145 9.026-9.166A3.027 3.027 0 0 0 48 20.4V3a3.018 3.018 0 0 0-3-3zM27 42h-6v-3h6z" data-name="Layer 2" /></svg>
