<?xml version="1.0" encoding="UTF-8"?>
<svg xmlns="http://www.w3.org/2000/svg" id="add-document" viewBox="0 0 48 44"><g fill="currentColor" data-name="Layer 2"><path d="M47.06 0H18.94A.972.972 0 0 0 18 1v25h6a5 5 0 0 1 0 10h-6v5a.972.972 0 0 0 .94 1H39v-6.22A2.787 2.787 0 0 1 41.78 33H48V1a.972.972 0 0 0-.94-1zM42 23H24a1 1 0 0 1 0-2h18a1 1 0 0 1 0 2zm0-6H24a1 1 0 0 1 0-2h18a1 1 0 0 1 0 2zm0-6H24a1 1 0 0 1 0-2h18a1 1 0 0 1 0 2z" /><path d="M41.78 35a.781.781 0 0 0-.78.78V42l7-7h-6.22zM24 29h-9v-9a2 2 0 0 0-4 0v9H2a2 2 0 0 0 0 4h9v9a2 2 0 0 0 4 0v-9h9a2 2 0 0 0 0-4z" /></g></svg>
