<?xml version="1.0" encoding="UTF-8"?>
<svg xmlns="http://www.w3.org/2000/svg" id="advocacy" viewBox="0 0 47.966 33"><g fill="currentColor" data-name="Layer 2"><path d="M31.927.239l-17.38 9.248a1.127 1.127 0 0 0-.58 1v12.027a1.127 1.127 0 0 0 .58 1l17.38 9.247a2.108 2.108 0 0 0 3.04-1.999V2.238a2.108 2.108 0 0 0-3.04-2zM10.966 10H3A3 3 0 0 0 0 13v7a3 3 0 0 0 3 3h.966v6.5a2.5 2.5 0 0 0 5 0V23h2a1 1 0 0 0 1-1V11a1 1 0 0 0-1-1zM46.466 15h-7a1.5 1.5 0 0 0 0 3h7a1.5 1.5 0 0 0 0-3zM40.154 10.799l6.062-3.5a1.5 1.5 0 1 0-1.5-2.598l-6.062 3.5a1.5 1.5 0 1 0 1.5 2.598zM46.216 25.701l-6.062-3.5a1.5 1.5 0 1 0-1.5 2.598l6.062 3.5a1.5 1.5 0 1 0 1.5-2.598z" /></g></svg>
