<?xml version="1.0" encoding="UTF-8"?>
<svg xmlns="http://www.w3.org/2000/svg" id="agile" viewBox="0 0 42 48"><path fill="currentColor" d="M39.5 43A11.577 11.577 0 0 1 28 31.107V8.531l2.741 2.741a2.5 2.5 0 1 0 3.535-3.535L27.272.732a2.5 2.5 0 0 0-3.535 0l-7.005 7.005a2.5 2.5 0 0 0 3.536 3.535L23 8.541v17.34A17.173 17.173 0 0 0 12 22H8.54l2.732-2.732a2.5 2.5 0 0 0-3.535-3.536L.732 22.737a2.5 2.5 0 0 0 0 3.535l7.005 7.004a2.5 2.5 0 0 0 3.535-3.535L8.532 27H12a11.728 11.728 0 0 1 11.51 8.377l.02-.005A16.353 16.353 0 0 0 39.5 48a2.5 2.5 0 0 0 0-5z" data-name="Layer 2" /></svg>
