<?xml version="1.0" encoding="UTF-8"?>
<svg xmlns="http://www.w3.org/2000/svg" id="airport-closed" viewBox="0 0 47.999 48"><path fill="currentColor" d="M10 5a3.003 3.003 0 0 0-3 3h6a3.003 3.003 0 0 0-3-3z" /><path fill="currentColor" d="M20 10a10 10 0 1 0-10 10 10.004 10.004 0 0 0 10-10zm-5 4a2 2 0 0 1-2 2H7a2 2 0 0 1-2-2V8a5 5 0 0 1 10 0zM47.987 28.866c-.004-.061-.003-.123-.013-.184a1.917 1.917 0 0 0-.055-.213c-.014-.053-.024-.108-.043-.16a1.983 1.983 0 0 0-.088-.185c-.027-.054-.048-.11-.08-.162-.034-.056-.076-.105-.115-.157-.038-.05-.072-.104-.116-.152a1.948 1.948 0 0 0-.172-.157c-.038-.034-.072-.071-.114-.102a1.973 1.973 0 0 0-.305-.183c-.012-.006-.022-.015-.034-.02l-.004-.002-.014-.007L32 20v-7.91a3.041 3.041 0 0 0-2.033-2.939A3.01 3.01 0 0 0 26 12v8l-14.836 7.183-.01.005-.006.002c-.02.01-.038.025-.058.036a1.993 1.993 0 0 0-.28.167c-.048.036-.087.078-.131.117a1.961 1.961 0 0 0-.156.143 1.981 1.981 0 0 0-.123.162c-.036.05-.076.095-.108.146-.033.055-.057.115-.085.173-.028.058-.06.114-.082.175-.021.056-.032.114-.047.172a1.935 1.935 0 0 0-.052.2c-.01.066-.01.132-.014.198a1.887 1.887 0 0 0-.01.19 1.989 1.989 0 0 0 .035.269c.007.04.006.08.016.12l.002.006c.004.018.013.036.018.054a2.02 2.02 0 0 0 .108.307c.004.009.005.018.01.027.006.013.018.023.024.037a1.977 1.977 0 0 0 .282.425l.022.029a2.007 2.007 0 0 0 .379.317c.027.018.053.037.082.054a2.01 2.01 0 0 0 .436.194l.086.022a1.97 1.97 0 0 0 .496.07h.003a1.995 1.995 0 0 0 .443-.051l.014-.002L26 28v15s-3.678 3.278-3.81 3.41A.832.832 0 0 0 22 47a.553.553 0 0 0 .02.18c.01.05.02.09.03.13a.938.938 0 0 0 .2.35c.05.05.1.1.16.15a.01.01 0 0 1 .01.01 1.12 1.12 0 0 0 .27.13A1.056 1.056 0 0 0 23 48a1.097 1.097 0 0 0 .18-.02l.13-.03.06-.02L29 46l5.66 1.94.03.01a.985.985 0 0 0 .62 0 .522.522 0 0 0 .14-.06.995.995 0 0 0 .5-.58c.01-.04.02-.08.03-.13A.553.553 0 0 0 36 47a.794.794 0 0 0-.19-.59C35.688 46.288 32 43 32 43V28l13.527 2.944.009.002.006.001c.017.004.034.003.05.007a1.973 1.973 0 0 0 .349.045l.03-.002a1.988 1.988 0 0 0 .36-.026c.013-.002.026-.007.039-.01a2.013 2.013 0 0 0 .334-.09c.014-.006.027-.015.041-.02a2.009 2.009 0 0 0 .302-.15c.02-.011.036-.027.055-.04a1.987 1.987 0 0 0 .25-.189c.036-.034.066-.074.1-.11a2.006 2.006 0 0 0 .155-.174 1.984 1.984 0 0 0 .166-.275c.01-.021.026-.04.037-.061v-.003a1.993 1.993 0 0 0 .085-.238c.016-.05.038-.098.05-.147l.002-.006c.011-.045.01-.09.018-.136a1.95 1.95 0 0 0 .033-.253 1.929 1.929 0 0 0-.011-.203z" /><path fill="currentColor" d="M11 10H8.999a1 1 0 0 0-1 1v2a1 1 0 0 0 1 1H11a1 1 0 0 0 .999-1v-2A1 1 0 0 0 11 10z" /></svg>
