<?xml version="1.0" encoding="UTF-8"?>
<svg xmlns="http://www.w3.org/2000/svg" id="airport-military" viewBox="0 0 48 48"><path fill="currentColor" d="M46 26a2 2 0 0 0-2 2v3l-12-9v-4.52a2.493 2.493 0 0 0-4-1.973V10.63a3 3 0 0 0-.212-1.109L25.096.744a1.18 1.18 0 0 0-2.192 0L20.212 9.52A3 3 0 0 0 20 10.63v4.877a2.493 2.493 0 0 0-4 1.973V22L4 31v-3a2 2 0 0 0-4 0v14a2 2 0 0 0 4 0v-2l16-4v5l-4.45 3.811a1.868 1.868 0 0 0 1.322 3.19l7.117-1 7.14 1a1.868 1.868 0 0 0 1.32-3.19L28 41.001v-5l16 4v2a2 2 0 1 0 4 0V28a2 2 0 0 0-2-2z" data-name="Layer 2" /></svg>
