<?xml version="1.0" encoding="UTF-8"?>
<svg xmlns="http://www.w3.org/2000/svg" id="airport-affected" viewBox="0 0 48 48"><g fill="currentColor" data-name="Layer 2"><path d="M20 10a10 10 0 1 0-10 10 10.004 10.004 0 0 0 10-10zm-10 7a1 1 0 1 1 1-1 1.003 1.003 0 0 1-1 1zm1-5a1 1 0 0 1-2 0V4a1 1 0 0 1 2 0zM47.988 28.866c-.004-.061-.003-.123-.013-.184a1.915 1.915 0 0 0-.055-.213c-.014-.053-.024-.108-.043-.16a1.983 1.983 0 0 0-.088-.185c-.026-.054-.048-.11-.08-.162-.034-.056-.076-.105-.115-.157-.038-.05-.072-.104-.116-.152a1.95 1.95 0 0 0-.171-.157c-.04-.034-.073-.071-.115-.102a1.974 1.974 0 0 0-.304-.183c-.013-.006-.023-.015-.035-.02l-.003-.002-.015-.007L32.001 20v-8a3 3 0 0 0-6 0v8l-14.836 7.183-.01.005-.005.002c-.021.01-.038.025-.059.036a1.993 1.993 0 0 0-.28.167c-.047.036-.087.078-.13.117a1.961 1.961 0 0 0-.156.143 1.981 1.981 0 0 0-.124.162c-.036.05-.076.095-.107.146-.034.055-.058.115-.086.173-.028.058-.06.114-.082.175-.02.056-.032.114-.047.172a1.935 1.935 0 0 0-.051.2c-.01.066-.01.132-.014.198a1.89 1.89 0 0 0-.011.19 1.99 1.99 0 0 0 .035.269c.007.04.006.08.016.12l.002.006c.004.018.013.036.018.054a2.02 2.02 0 0 0 .108.307l.01.027c.006.013.018.023.025.037a1.977 1.977 0 0 0 .281.425l.022.029a2.007 2.007 0 0 0 .38.317c.027.018.053.037.08.054a2.01 2.01 0 0 0 .438.194l.085.022A1.97 1.97 0 0 0 12 31h.003a1.995 1.995 0 0 0 .443-.051l.014-.002L26.001 28v15s-3.678 3.278-3.81 3.41a.833.833 0 0 0-.19.59.553.553 0 0 0 .02.18c.01.05.02.09.03.13a.938.938 0 0 0 .2.35c.05.05.1.1.16.15a.01.01 0 0 1 .01.01 1.12 1.12 0 0 0 .27.13 1.056 1.056 0 0 0 .31.05 1.097 1.097 0 0 0 .18-.02l.13-.03.06-.02 5.63-1.93 5.66 1.94.03.01a.985.985 0 0 0 .62 0 .522.522 0 0 0 .14-.06.995.995 0 0 0 .5-.58c.01-.04.02-.08.03-.13a.553.553 0 0 0 .02-.18.794.794 0 0 0-.19-.59c-.122-.122-3.81-3.41-3.81-3.41V28l13.527 2.944.01.002.005.001c.017.004.034.003.05.007a1.973 1.973 0 0 0 .349.045l.03-.002a1.988 1.988 0 0 0 .36-.026c.014-.002.026-.007.039-.01a2.013 2.013 0 0 0 .334-.09c.014-.006.027-.015.041-.02a2.009 2.009 0 0 0 .303-.15c.019-.011.035-.027.054-.04a1.987 1.987 0 0 0 .25-.189c.037-.034.067-.074.101-.11a2.006 2.006 0 0 0 .155-.174 1.982 1.982 0 0 0 .165-.275c.01-.021.026-.04.037-.061v-.003a1.993 1.993 0 0 0 .085-.238c.016-.05.039-.098.05-.147l.003-.006c.01-.045.01-.09.017-.136a1.95 1.95 0 0 0 .034-.253 1.929 1.929 0 0 0-.012-.203z" /></g></svg>
