<?xml version="1.0" encoding="UTF-8"?>
<svg xmlns="http://www.w3.org/2000/svg" id="analysis" viewBox="0 0 48 48"><g fill="currentColor" data-name="Layer 2"><path d="M8.38 33.8L1.2 40.98a4.115 4.115 0 0 0 5.82 5.82l7.18-7.18a24.01 24.01 0 0 1-5.82-5.82zM22 20h-4a1.003 1.003 0 0 0-1 1v4.94a12.574 12.574 0 0 0 6 5.52V21a1.003 1.003 0 0 0-1-1zM38 14h-4a1.003 1.003 0 0 0-1 1v16.46a12.574 12.574 0 0 0 6-5.52V15a1.003 1.003 0 0 0-1-1zM30 17h-4a1.003 1.003 0 0 0-1 1v14.14a12.68 12.68 0 0 0 6 0V18a1.003 1.003 0 0 0-1-1z" /><path d="M28 0a20 20 0 1 0 20 20A19.994 19.994 0 0 0 28 0zm11 30.18A15 15 0 0 1 13 20a15 15 0 1 1 26 10.18z" /></g></svg>
