<?xml version="1.0" encoding="UTF-8"?>
<svg xmlns="http://www.w3.org/2000/svg" id="arrest-detention" viewBox="0 0 48 48"><g fill="currentColor" data-name="Layer 2"><path d="M17 25.09V23.5a2.507 2.507 0 0 0-2.5-2.5h-5A2.507 2.507 0 0 0 7 23.5v1.58a12.007 12.007 0 1 0 15.32 17.06 14.94 14.94 0 0 1 0-12.28A12.057 12.057 0 0 0 17 25.09zM12 43a7 7 0 1 1 7-7 7.008 7.008 0 0 1-7 7zM12 18a2.006 2.006 0 0 0 2-2v-3a2 2 0 0 0-4 0v3a2.006 2.006 0 0 0 2 2zM16.36 8.432l2.066-2.063a1.968 1.968 0 1 0-2.785-2.781L13.574 5.65a1.968 1.968 0 0 0 2.785 2.781zM34 13v3a2 2 0 0 0 4 0v-3a2 2 0 0 0-4 0zM31.66 8.426a1.96 1.96 0 1 0 2.772-2.77l-2.085-2.082a1.97 1.97 0 0 0-2.776-.004 1.965 1.965 0 0 0 .003 2.774zM27 2a2 2 0 0 0-2-2h-2a2 2 0 0 0 0 4h2a2 2 0 0 0 2-2z" /><path d="M41 25.08V23.5a2.507 2.507 0 0 0-2.5-2.5h-5a2.507 2.507 0 0 0-2.5 2.5v1.58a12 12 0 1 0 10 0zM36 43a7 7 0 1 1 7-7 7.008 7.008 0 0 1-7 7z" /></g></svg>
