<?xml version="1.0" encoding="UTF-8"?>
<svg xmlns="http://www.w3.org/2000/svg" id="assessment" viewBox="0 0 48 48"><g fill="currentColor" data-name="Layer 2"><path d="M2 11h2.23a8.993 8.993 0 0 0 17.54 0h4.46a8.993 8.993 0 0 0 17.54 0H46a2 2 0 0 0 0-4h-2.23a8.993 8.993 0 0 0-17.54 0h-4.46A8.993 8.993 0 0 0 4.23 7H2a2 2 0 0 0 0 4zm28.424-4A4.931 4.931 0 1 1 30 9a5.003 5.003 0 0 1 .424-2zm-22 0A4.931 4.931 0 1 1 8 9a5.003 5.003 0 0 1 .424-2zM47 23H17a1.003 1.003 0 0 0-1 1v3.99h15A3.013 3.013 0 0 1 34.01 31v17H48V24a1.003 1.003 0 0 0-1-1z" /><path d="M30 30H2a2.006 2.006 0 0 0-2 2v15.93l.07.07h31.92l.01-.01V32a2.006 2.006 0 0 0-2-2zm-4.5 15h-19a1.5 1.5 0 0 1 0-3h19a1.5 1.5 0 0 1 0 3zm0-6h-19a1.5 1.5 0 0 1 0-3h19a1.5 1.5 0 0 1 0 3z" /></g></svg>
