<?xml version="1.0" encoding="UTF-8"?>
<svg xmlns="http://www.w3.org/2000/svg" id="assembly-point" viewBox="0 0 48 48"><g fill="currentColor" data-name="Layer 2"><circle cx="24" cy="24" r="5" /><path d="M46 22h-8.171l1.585-1.586a2 2 0 0 0-2.828-2.828l-5 5a1.982 1.982 0 0 0-.316.427c-.021.037-.04.074-.059.112a1.99 1.99 0 0 0-.169.475l-.004.012a2.004 2.004 0 0 0-.026.515c.003.042.007.082.012.123a1.988 1.988 0 0 0 .127.512l.001.004.009.014a1.99 1.99 0 0 0 .26.432c.028.037.057.073.088.108.027.03.048.065.077.094l5 5a2 2 0 0 0 2.828-2.828L37.828 26H46a2 2 0 0 0 0-4zM16.988 24.127a2.004 2.004 0 0 0-.026-.515l-.004-.012a1.99 1.99 0 0 0-.17-.475 2.026 2.026 0 0 0-.058-.112 1.982 1.982 0 0 0-.316-.427l-5-5a2 2 0 0 0-2.828 2.828L10.17 22H2a2 2 0 0 0 0 4h8.172l-1.586 1.586a2 2 0 1 0 2.828 2.828l5-5c.03-.03.05-.064.077-.094.031-.035.06-.071.088-.108a1.99 1.99 0 0 0 .26-.432l.009-.014v-.004a1.988 1.988 0 0 0 .128-.512c.005-.041.01-.081.012-.123zM22.586 16.414a1.996 1.996 0 0 0 .31.254 1.947 1.947 0 0 0 .28.148c.023.01.044.026.066.035a1.977 1.977 0 0 0 .316.095c.02.004.037.012.057.016A2.006 2.006 0 0 0 24 17l.026-.002a2.012 2.012 0 0 0 .36-.036c.015-.003.03-.01.046-.014a1.997 1.997 0 0 0 .33-.1h.003l.01-.006a1.987 1.987 0 0 0 .438-.264 2 2 0 0 0 .105-.086c.032-.027.066-.048.096-.078l5-5a2 2 0 0 0-2.828-2.828L26 10.172V2a2 2 0 0 0-4 0v8.172l-1.586-1.586a2 2 0 0 0-2.828 2.828zM25.414 31.586c-.03-.03-.064-.05-.096-.078a1.9 1.9 0 0 0-.105-.086 1.984 1.984 0 0 0-.439-.264l-.009-.006h-.002a1.983 1.983 0 0 0-.51-.128 2.1 2.1 0 0 0-.13-.012 2.014 2.014 0 0 0-.508.026c-.01.001-.018.005-.027.007a1.993 1.993 0 0 0-.46.164c-.04.02-.079.04-.117.062a1.979 1.979 0 0 0-.425.315l-5 5a2 2 0 0 0 2.828 2.828L22 37.828V46a2 2 0 0 0 4 0v-8.172l1.586 1.586a2 2 0 0 0 2.828-2.828z" /></g></svg>
