<?xml version="1.0" encoding="UTF-8"?>
<svg xmlns="http://www.w3.org/2000/svg" id="bacteria" viewBox="0 0 48 48"><path fill="currentColor" d="M9.264 29.991a9 9 0 0 0 15.363 6.364l11.314-11.313a9 9 0 0 0-12.728-12.729L11.899 23.627a8.942 8.942 0 0 0-2.635 6.364zM22.5 19a2.5 2.5 0 1 1-2.5 2.5 2.5 2.5 0 0 1 2.5-2.5zM19 27a4 4 0 1 1-4 4 4 4 0 0 1 4-4z" /><path fill="currentColor" d="M46.003 16l-2.69-.003a14.034 14.034 0 0 0-.371-1.46c-.033-.107-.075-.21-.11-.316-.13-.39-.277-.775-.442-1.154-.039-.088-.081-.175-.122-.263q-.283-.613-.628-1.202l-.086-.145a13.83 13.83 0 0 0-.884-1.299l1.744-1.744a2 2 0 0 0-2.828-2.828l-1.783 1.783a13.91 13.91 0 0 0-5.8-2.465H32V2a2 2 0 0 0-4 0v2.782h-.004a14.05 14.05 0 0 0-2.512.514c-.015.005-.03.012-.044.016-.396.122-.788.257-1.174.415q-.605.245-1.19.55l-2.691-2.691a2 2 0 0 0-2.828 2.828l2.248 2.249c-.041.04-.087.074-.128.115l-3.535 3.535-3.728-3.727a2 2 0 0 0-2.828 2.828l3.728 3.728-4.172 4.171-2.728-2.727a2 2 0 0 0-2.828 2.828l2.944 2.944-.015.026A13.91 13.91 0 0 0 4.603 27H2a2 2 0 0 0 0 4h2.318a14.102 14.102 0 0 0 .123 1.077 13.998 13.998 0 0 0 .657 2.627l.028.078a13.867 13.867 0 0 0 1.829 3.435l-1.37 1.369a2 2 0 1 0 2.83 2.828l1.33-1.33a13.888 13.888 0 0 0 1.6 1.063c.03.017.061.037.092.054a14.035 14.035 0 0 0 1.064.532c.228.103.456.207.689.297q.467.183.944.33c.17.052.34.094.512.14a13.688 13.688 0 0 0 1.156.26q.441.079.885.128c.095.01.188.027.283.036V46a2 2 0 0 0 4 0v-2.278l.038-.01a13.928 13.928 0 0 0 4.889-1.987l2.689 2.69a2 2 0 0 0 2.828-2.83l-2.473-2.472 4.172-4.172 3.473 3.473a2 2 0 0 0 2.828-2.828l-3.473-3.473 3.536-3.536c.04-.04.075-.086.115-.127l2.006 2.006a2 2 0 0 0 2.828-2.828l-2.449-2.45a13.954 13.954 0 0 0 1.341-3.845l.001-.007q.126-.66.189-1.328l2.49.002H46a2 2 0 0 0 .003-4zm-24.204-5.1c.04-.042.086-.076.128-.116a10.93 10.93 0 0 1 3.382-2.238l.026-.012A10.974 10.974 0 0 1 28 7.808q.497-.072.999-.098h.006q.496-.026.994-.007h.018q.493.02.985.083l.016.003q.494.064.982.173a11.191 11.191 0 0 1 1.872.596c.04.017.08.038.12.056.264.114.525.235.78.371.102.055.2.119.3.177.197.113.396.224.587.35q.45.299.874.645a11.028 11.028 0 0 1 .822.742c.226.226.433.463.635.703q.283.342.536.7.301.422.557.864l.008.013q.253.437.462.892l.01.024q.208.454.373.921l.006.02q.166.472.287.957a11.12 11.12 0 0 1 .31 1.984v.02c.021.327.028.655.019.983l-.002.032c-.01.327-.032.654-.071.98v.002a11.264 11.264 0 0 1-.266 1.41l-.03.12a10.769 10.769 0 0 1-.469 1.398 10.932 10.932 0 0 1-2.246 3.403c-.041.043-.076.09-.119.131l-7.843 7.843-2.692 2.692-.779.779a10.487 10.487 0 0 1-1.061.92c-.052.04-.105.077-.157.116a11.507 11.507 0 0 1-1.113.73l-.003.001a10.93 10.93 0 0 1-2.736 1.1 11.777 11.777 0 0 1-1.257.242c-.048.006-.095.015-.143.02a10.458 10.458 0 0 1-1.307.087 11.115 11.115 0 0 1-1.293-.084h-.002a10.909 10.909 0 0 1-1.28-.232 7.792 7.792 0 0 1-.105-.025 10.929 10.929 0 0 1-3.696-1.705q-.357-.254-.699-.534c-.24-.203-.477-.41-.704-.636a11.012 11.012 0 0 1-1.387-1.697 10.884 10.884 0 0 1-.644-1.117c-.045-.09-.084-.183-.127-.274a10.916 10.916 0 0 1-.373-.89q-.062-.168-.118-.339-.153-.463-.263-.935c-.021-.09-.047-.179-.066-.269A10.88 10.88 0 0 1 7.687 27a10.929 10.929 0 0 1 1.031-2.454 11.573 11.573 0 0 1 .731-1.115c.04-.052.075-.104.115-.156a10.51 10.51 0 0 1 .921-1.062l.778-.778 4.172-4.172 2.828-2.828z" /></svg>
