<?xml version="1.0" encoding="UTF-8"?>
<svg xmlns="http://www.w3.org/2000/svg" id="blanket" viewBox="0 0 24.001 48"><g fill="currentColor" data-name="Layer 2"><rect width="24" height="32" y="8" rx="1" /><path d="M24 3V1.5a1.5 1.5 0 0 0-3 0V3h-4V1.5a1.5 1.5 0 0 0-3 0V3h-4V1.5a1.5 1.5 0 0 0-3 0V3H3V1.5a1.5 1.5 0 0 0-3 0v2l.001.014V5a1 1 0 0 0 1 1h22a1 1 0 0 0 1-1V3zM24 43a1 1 0 0 0-1-1H1a1 1 0 0 0-1 1v2h.001v1.5a1.5 1.5 0 0 0 3 0V45h4v1.5a1.5 1.5 0 0 0 3 0V45h4v1.5a1.5 1.5 0 0 0 3 0V45h4v1.5a1.5 1.5 0 0 0 3 0v-2L24 44.486z" /></g></svg>
