<?xml version="1.0" encoding="UTF-8"?>
<svg xmlns="http://www.w3.org/2000/svg" id="border-crossing" viewBox="0 0 48 48"><g fill="currentColor" data-name="Layer 2"><path d="M40 19h8v9h-8zM20 19h8v9h-8zM0 19h8v9H0z" /><path d="M40.879 14.121A3 3 0 1 0 45.12 9.88L36.125.883a3.02 3.02 0 0 0-.463-.38c-.066-.044-.139-.074-.208-.112a2.933 2.933 0 0 0-.308-.162 2.935 2.935 0 0 0-.292-.09c-.089-.027-.175-.062-.267-.08a3.011 3.011 0 0 0-1.174 0c-.093.019-.178.053-.268.08a2.928 2.928 0 0 0-.291.09 2.953 2.953 0 0 0-.31.163c-.068.038-.14.068-.206.112a3.01 3.01 0 0 0-.463.379L22.88 9.879a3 3 0 1 0 4.242 4.242L31 10.242V45a3 3 0 0 0 6 0V10.242zM20.879 33.879L17 37.758V3a3 3 0 0 0-6 0v34.758l-3.879-3.88a3 3 0 0 0-4.242 4.243l8.996 8.996a3.01 3.01 0 0 0 .463.38c.066.043.138.073.207.111a2.953 2.953 0 0 0 .309.163 2.923 2.923 0 0 0 .291.09c.09.027.175.061.268.08a2.946 2.946 0 0 0 1.174 0c.093-.018.178-.053.267-.08a2.935 2.935 0 0 0 .292-.09 2.933 2.933 0 0 0 .308-.162c.07-.038.142-.068.208-.113a3.02 3.02 0 0 0 .463-.379l8.996-8.996a3 3 0 0 0-4.242-4.242z" /></g></svg>
