<?xml version="1.0" encoding="UTF-8"?>
<svg xmlns="http://www.w3.org/2000/svg" id="border-closed" viewBox="0 0 48 48"><path fill="currentColor" d="M40 19h8v9h-8v-9zM10 5C8.3 5 7 6.3 7 8h6c0-1.7-1.3-3-3-3zm0 15c5.5 0 10-4.5 10-10S15.5 0 10 0 0 4.5 0 10s4.5 10 10 10zM5 8c0-2.8 2.2-5 5-5s5 2.2 5 5v6c0 1.1-.9 2-2 2H7c-1.1 0-2-.9-2-2V8zm3 14.8C5.2 22.4 2.6 21 .6 19H0v9h8v-5.2zM20 19h8v9h-8v-9zm23-4c1.7 0 3-1.3 3-3 0-.8-.3-1.6-.9-2.1l-9-9c-.1-.1-.3-.3-.5-.4-.1 0-.1-.1-.2-.1-.1-.1-.2-.1-.3-.2-.1 0-.2-.1-.3-.1-.1 0-.2-.1-.3-.1-.4-.1-.8-.1-1.2 0-.1 0-.2.1-.3.1-.1 0-.2.1-.3.1-.1 0-.2.1-.3.2-.1 0-.1.1-.2.1-.2.1-.3.2-.5.4l-9 9c-1.2 1.2-1.2 3.1 0 4.2s3.1 1.2 4.2 0l3.9-3.9V45c0 1.7 1.3 3 3 3s3-1.3 3-3V10.2l3.9 3.9c.7.6 1.5.9 2.3.9zM20.9 33.9L17 37.8V20.9c-1.8 1.2-3.9 1.9-6 2v14.8l-3.9-3.9c-1.2-1.2-3.1-1.2-4.2 0s-1.2 3.1 0 4.2l9 9c.1.1.3.3.5.4.1 0 .1.1.2.1.1.1.2.1.3.2.1 0 .2.1.3.1.1 0 .2.1.3.1.4.1.8.1 1.2 0 .1 0 .2 0 .3-.1.1 0 .2-.1.3-.1.1 0 .2-.1.3-.2.1 0 .1-.1.2-.1.2-.1.3-.2.5-.4l9-9c1.2-1.2 1.2-3.1 0-4.2s-3.2-1.1-4.4.1zM9 10h2c.6 0 1 .4 1 1v2c0 .6-.4 1-1 1H9c-.6 0-1-.4-1-1v-2c0-.6.4-1 1-1z" /></svg>
