<?xml version="1.0" encoding="UTF-8"?>
<svg xmlns="http://www.w3.org/2000/svg" id="bridge" viewBox="0 0 48 43"><g fill="currentColor" data-name="Layer 2"><path d="M46 37a8.585 8.585 0 0 0-4.625 1.244 5.241 5.241 0 0 1-5.423 0A8.586 8.586 0 0 0 31.326 37a8.577 8.577 0 0 0-4.623 1.244 4.692 4.692 0 0 1-2.708.756 4.696 4.696 0 0 1-2.709-.756A8.585 8.585 0 0 0 16.661 37a8.584 8.584 0 0 0-4.624 1.244A4.692 4.692 0 0 1 9.33 39a4.69 4.69 0 0 1-2.706-.756A8.586 8.586 0 0 0 2 37a2 2 0 0 0 0 4 4.691 4.691 0 0 1 2.707.756A8.585 8.585 0 0 0 9.329 43a8.584 8.584 0 0 0 4.624-1.244A4.692 4.692 0 0 1 16.661 41a4.696 4.696 0 0 1 2.71.756A8.585 8.585 0 0 0 23.994 43a8.593 8.593 0 0 0 4.624-1.244 5.234 5.234 0 0 1 5.42 0 9.22 9.22 0 0 0 9.25 0A4.702 4.702 0 0 1 46 41a2 2 0 0 0 0-4zM46 29a8.585 8.585 0 0 0-4.625 1.244 5.241 5.241 0 0 1-5.423 0A8.586 8.586 0 0 0 31.326 29a8.577 8.577 0 0 0-4.623 1.244 4.692 4.692 0 0 1-2.708.756 4.696 4.696 0 0 1-2.709-.756A8.585 8.585 0 0 0 16.661 29a8.584 8.584 0 0 0-4.624 1.244A4.692 4.692 0 0 1 9.33 31a4.69 4.69 0 0 1-2.706-.756A8.586 8.586 0 0 0 2 29a2 2 0 0 0 0 4 4.691 4.691 0 0 1 2.707.756A8.585 8.585 0 0 0 9.329 35a8.584 8.584 0 0 0 4.624-1.244A4.692 4.692 0 0 1 16.661 33a4.696 4.696 0 0 1 2.71.756A8.585 8.585 0 0 0 23.994 35a8.593 8.593 0 0 0 4.624-1.244 5.234 5.234 0 0 1 5.42 0 9.22 9.22 0 0 0 9.25 0A4.702 4.702 0 0 1 46 33a2 2 0 0 0 0-4zM0 0v7a7.998 7.998 0 0 1 8 8v9h8v-9a8 8 0 0 1 16 0v9h8v-9a7.998 7.998 0 0 1 8-8V0z" /></g></svg>
