<?xml version="1.0" encoding="UTF-8"?>
<svg xmlns="http://www.w3.org/2000/svg" id="bridge-destroyed" viewBox="0 0 48 48"><g fill="currentColor" data-name="Layer 2"><path d="M10 20A10 10 0 1 0 0 10a10.004 10.004 0 0 0 10 10zM5.29 6.71a1.004 1.004 0 0 1 1.42-1.42L10 8.58l3.29-3.29a1.004 1.004 0 1 1 1.42 1.42L11.42 10l3.29 3.29a1.008 1.008 0 0 1 0 1.42 1.014 1.014 0 0 1-1.42 0L10 11.42l-3.29 3.29a1.014 1.014 0 0 1-1.42 0 1.008 1.008 0 0 1 0-1.42L8.58 10zM0 24v7a7.998 7.998 0 0 1 8 8v9h8v-9a8 8 0 0 1 16 0v9h8v-9a7.998 7.998 0 0 1 8-8v-7z" /></g></svg>
