<?xml version="1.0" encoding="UTF-8"?>
<svg xmlns="http://www.w3.org/2000/svg" id="buddhist-temple" viewBox="0 0 48 48"><g fill="currentColor" data-name="Layer 2"><path d="M46.5 45h-45a1.5 1.5 0 0 0 0 3h45a1.5 1.5 0 0 0 0-3zM5.5 43h37a1.5 1.5 0 0 0 0-3h-37a1.5 1.5 0 0 0 0 3zM5 32h38a1 1 0 0 0 .8-1.6l-4.5-6a1 1 0 0 0-.8-.4h-29a1 1 0 0 0-.8.4l-4.5 6A1 1 0 0 0 5 32zM9 22h30a1 1 0 0 0 .8-1.6l-4.5-6a1 1 0 0 0-.8-.4h-21a1 1 0 0 0-.8.4l-4.5 6A1 1 0 0 0 9 22zM12.002 12H36a1 1 0 0 0 .864-1.504l-5.575-10A1 1 0 0 0 30.426 0H17.574a1 1 0 0 0-.863.496l-5.573 10A1 1 0 0 0 12.002 12z" /><rect width="6" height="4" x="34" y="34" rx="1" /><rect width="6" height="4" x="8" y="34" rx="1" /><rect width="6" height="4" x="21" y="34" rx="1" /></g></svg>
