<?xml version="1.0" encoding="UTF-8"?>
<svg xmlns="http://www.w3.org/2000/svg" id="building" viewBox="0 0 32 48"><g fill="currentColor" data-name="Layer 2"><path d="M30 6H2a2.006 2.006 0 0 0-2 2v22h32V8a2.006 2.006 0 0 0-2-2zM10 21a1.003 1.003 0 0 1-1 1H5a1.003 1.003 0 0 1-1-1v-8a1.003 1.003 0 0 1 1-1h4a1.003 1.003 0 0 1 1 1zm9 0a1.003 1.003 0 0 1-1 1h-4a1.003 1.003 0 0 1-1-1v-8a1.003 1.003 0 0 1 1-1h4a1.003 1.003 0 0 1 1 1zm9 0a1.003 1.003 0 0 1-1 1h-4a1.003 1.003 0 0 1-1-1v-8a1.003 1.003 0 0 1 1-1h4a1.003 1.003 0 0 1 1 1zM6 4h20a2 2 0 0 0 0-4H6a2 2 0 0 0 0 4zM0 48h12V38a2.006 2.006 0 0 1 2-2h4a2.006 2.006 0 0 1 2 2v10h12V32H0z" /></g></svg>
