<?xml version="1.0" encoding="UTF-8"?>
<svg xmlns="http://www.w3.org/2000/svg" id="building-facility-destroyed" viewBox="0 0 48 48"><g fill="currentColor" data-name="Layer 2"><path d="M20 10a10 10 0 1 0-10 10 10.004 10.004 0 0 0 10-10zm-5.29 3.29a1.008 1.008 0 0 1 0 1.42 1.014 1.014 0 0 1-1.42 0L10 11.42l-3.29 3.29a1.014 1.014 0 0 1-1.42 0 1.008 1.008 0 0 1 0-1.42L8.58 10 5.29 6.71a1.004 1.004 0 0 1 1.42-1.42L10 8.58l3.29-3.29a1.004 1.004 0 1 1 1.42 1.42L11.42 10z" /><path d="M46 6H22.37a12.933 12.933 0 0 1 .63 4 13.187 13.187 0 0 1-.15 2H25a1.003 1.003 0 0 1 1 1v8a1.003 1.003 0 0 1-1 1h-4a1.003 1.003 0 0 1-1-1v-2.7a12.925 12.925 0 0 1-4 3.23V30h32V8a2.006 2.006 0 0 0-2-2zM35 21a1.003 1.003 0 0 1-1 1h-4a1.003 1.003 0 0 1-1-1v-8a1.003 1.003 0 0 1 1-1h4a1.003 1.003 0 0 1 1 1zm9 0a1.003 1.003 0 0 1-1 1h-4a1.003 1.003 0 0 1-1-1v-8a1.003 1.003 0 0 1 1-1h4a1.003 1.003 0 0 1 1 1zM22 4h20a1.954 1.954 0 0 0 1.41-.59A1.954 1.954 0 0 0 44 2a2.006 2.006 0 0 0-2-2H22a1.955 1.955 0 0 0-1.41.59 1.92 1.92 0 0 0-.57 1.13 13.313 13.313 0 0 1 1.48 2.21A1.677 1.677 0 0 0 22 4zM16 48h12V38a2.006 2.006 0 0 1 2-2h4a2.006 2.006 0 0 1 2 2v10h12V32H16z" /></g></svg>
