<?xml version="1.0" encoding="UTF-8"?>
<svg xmlns="http://www.w3.org/2000/svg" id="bus" viewBox="0 0 44 44"><path fill="currentColor" d="M43 7h-1V3.1A3.116 3.116 0 0 0 38.9 0H5.1A3.116 3.116 0 0 0 2 3.1V7H1a1.003 1.003 0 0 0-1 1v12a1.003 1.003 0 0 0 1 1h1v15.9a3.101 3.101 0 0 0 3 3.09v1.51a2.5 2.5 0 0 0 5 0V40h25v1.5a2.5 2.5 0 0 0 5 0v-1.7a3.136 3.136 0 0 0 2-2.9V21h1a1.003 1.003 0 0 0 1-1V8a1.003 1.003 0 0 0-1-1zM5 4a1.003 1.003 0 0 1 1-1h32a1.003 1.003 0 0 1 1 1v1a1.003 1.003 0 0 1-1 1H6a1.003 1.003 0 0 1-1-1zm4 31.5a2.503 2.503 0 0 1-1.5.5 2.411 2.411 0 0 1-1.49-.5 2.495 2.495 0 1 1 2.99 0zM20 23a1.003 1.003 0 0 1-1 1H6a1.003 1.003 0 0 1-1-1V11a1.003 1.003 0 0 1 1-1h13a1.003 1.003 0 0 1 1 1zm4 0V11a1.003 1.003 0 0 1 1-1h13a1.003 1.003 0 0 1 1 1v12a1.003 1.003 0 0 1-1 1H25a1.003 1.003 0 0 1-1-1zm15 12.5a2.503 2.503 0 0 1-1.5.5 2.411 2.411 0 0 1-1.49-.5 2.495 2.495 0 1 1 2.99 0z" data-name="Layer 2" /></svg>
