<?xml version="1.0" encoding="UTF-8"?>
<svg xmlns="http://www.w3.org/2000/svg" id="car" viewBox="0 0 48 41"><path fill="currentColor" d="M44 16v-5A11.012 11.012 0 0 0 33 0H16.03A11.028 11.028 0 0 0 5 11v5H4a3.999 3.999 0 0 0-4 4v10a3.999 3.999 0 0 0 4 4v3a4 4 0 0 0 8 0v-3h24v3a4 4 0 0 0 8 0v-3a3.999 3.999 0 0 0 4-4V20a3.999 3.999 0 0 0-4-4zm-33-5a5.021 5.021 0 0 1 5.03-5H33a5.006 5.006 0 0 1 5 5v5H11zM9 28a3 3 0 1 1 3-3 2.996 2.996 0 0 1-3 3zm30-6a3 3 0 1 1-3 3 2.996 2.996 0 0 1 3-3z" data-name="Layer 2" /></svg>
