<?xml version="1.0" encoding="UTF-8"?>
<svg xmlns="http://www.w3.org/2000/svg" id="carjacking" viewBox="0 0 48 48"><g fill="currentColor" data-name="Layer 2"><path d="M24 14a2 2 0 0 0 2-2V2a2 2 0 0 0-4 0v10a2 2 0 0 0 2 2zM47.505 5.683a2 2 0 0 0-2.822-.188l-8 7a2 2 0 0 0 2.634 3.01l8-7a2 2 0 0 0 .188-2.822zM10 16a2 2 0 0 0 1.317-3.505l-8-7a2 2 0 1 0-2.634 3.01l8 7A1.995 1.995 0 0 0 9.999 16zM40 30h-2v-4.5a8.5 8.5 0 0 0-8.5-8.5h-11a8.5 8.5 0 0 0-8.5 8.5V30H8a2.006 2.006 0 0 0-2 2v9a2.006 2.006 0 0 0 2 2h2v1.869a3.092 3.092 0 0 0 2.396 3.071A3.008 3.008 0 0 0 16 45v-2h16v1.869a3.092 3.092 0 0 0 2.396 3.071A3.008 3.008 0 0 0 38 45v-2h2a2.006 2.006 0 0 0 2-2v-9a2.006 2.006 0 0 0-2-2zm-25-4.5a3.504 3.504 0 0 1 3.5-3.5h11a3.504 3.504 0 0 1 3.5 3.5V30H15zM13.5 39a2.5 2.5 0 1 1 2.5-2.5 2.501 2.501 0 0 1-2.5 2.5zm21-5a2.5 2.5 0 1 1-2.5 2.5 2.501 2.501 0 0 1 2.5-2.5z" /></g></svg>
