<?xml version="1.0" encoding="UTF-8"?>
<svg xmlns="http://www.w3.org/2000/svg" id="cash-transfer" viewBox="0 0 48 48"><g fill="currentColor" data-name="Layer 2"><path d="M46.03 14H1.97a.965.965 0 0 0-.97.97v18.06a.965.965 0 0 0 .97.97h44.06a.965.965 0 0 0 .97-.97V14.97a.965.965 0 0 0-.97-.97zM8 27a3 3 0 1 1 3-3 2.996 2.996 0 0 1-3 3zm16 4a7 7 0 1 1 7-7 6.995 6.995 0 0 1-7 7zm16-4a3 3 0 1 1 3-3 2.996 2.996 0 0 1-3 3zM44.5 41.045H5.121l1.395-1.395a1.5 1.5 0 1 0-2.121-2.12L.439 41.483a1.502 1.502 0 0 0-.325.49l-.008.024a1.457 1.457 0 0 0 0 1.094l.008.023a1.503 1.503 0 0 0 .325.49l3.956 3.956a1.5 1.5 0 0 0 2.12-2.122l-1.394-1.394H44.5a1.5 1.5 0 0 0 0-3zM47.894 4.908l-.008-.023a1.502 1.502 0 0 0-.325-.49L43.605.439a1.5 1.5 0 0 0-2.12 2.122l1.394 1.394H3.5a1.5 1.5 0 1 0 0 3h39.379L41.484 8.35a1.5 1.5 0 0 0 2.121 2.12l3.956-3.954a1.501 1.501 0 0 0 .325-.49l.008-.024a1.458 1.458 0 0 0 0-1.094z" /></g></svg>
