<?xml version="1.0" encoding="UTF-8"?>
<svg xmlns="http://www.w3.org/2000/svg" id="cell-tower" viewBox="0 0 48 47.999"><g fill="currentColor" data-name="Layer 2"><path d="M38 44h-4.451l-7.183-26.805a4 4 0 1 0-4.732 0L14.45 43.999H10a2 2 0 0 0 0 4h28a2 2 0 0 0 0-4zM21.31 30h5.38l1.608 6h-8.596zm.803-3L24 19.957 25.887 27zm-3.215 12h10.204l1.34 5H17.558zM3 13.553A15.67 15.67 0 0 1 7.564 2.597 1.525 1.525 0 0 0 7.536.434a1.54 1.54 0 0 0-2.172.028A18.63 18.63 0 0 0 0 13.553a18.76 18.76 0 0 0 5.354 12.974 1.533 1.533 0 0 0 2.22-2.116A15.791 15.791 0 0 1 3 13.553zM12.217 19.476a1.508 1.508 0 0 0 2.168.12 1.606 1.606 0 0 0 .117-2.226A5.857 5.857 0 0 1 13 13.557a5.838 5.838 0 0 1 1.584-3.903 1.605 1.605 0 0 0-.069-2.227 1.505 1.505 0 0 0-2.17.07 9.005 9.005 0 0 0-.128 11.98z" /><path d="M8.449 22.536a1.384 1.384 0 0 0 2.004.065 1.505 1.505 0 0 0 .062-2.074A10.2 10.2 0 0 1 8 13.55a10.182 10.182 0 0 1 2.603-7.067 1.504 1.504 0 0 0-.037-2.075 1.383 1.383 0 0 0-2.004.039 13.421 13.421 0 0 0-.113 18.088zM42.657.462a1.53 1.53 0 1 0-2.191 2.135A15.69 15.69 0 0 1 45 13.553a15.843 15.843 0 0 1-4.576 10.858 1.53 1.53 0 1 0 2.211 2.116A18.83 18.83 0 0 0 48 13.553 18.669 18.669 0 0 0 42.657.463zM35 13.557a5.835 5.835 0 0 1-1.597 3.813 1.576 1.576 0 0 0 2.345 2.106A8.83 8.83 0 0 0 38 13.557a8.702 8.702 0 0 0-2.276-6.06 1.575 1.575 0 1 0-2.297 2.157A5.706 5.706 0 0 1 35 13.557z" /><path d="M40 13.55a9.994 9.994 0 0 1-2.602 6.977 1.468 1.468 0 1 0 2.139 2.01A12.983 12.983 0 0 0 43 13.55a12.865 12.865 0 0 0-3.476-9.103 1.467 1.467 0 1 0-2.113 2.036A9.89 9.89 0 0 1 40 13.551z" /></g></svg>
