<?xml version="1.0" encoding="UTF-8"?>
<svg xmlns="http://www.w3.org/2000/svg" id="checked-mail" viewBox="0 0 48 38"><path fill="currentColor" d="M47 14H22.364a13.014 13.014 0 0 1-3.473 5.458L29 26.198l14.168-9.446a1.5 1.5 0 0 1 1.664 2.496L29 29.803 16.32 21.35A12.91 12.91 0 0 1 10 23v14a1 1 0 0 0 1 1h36a1 1 0 0 0 1-1V15a1 1 0 0 0-1-1zM20.06 30.06l-4 4a1.5 1.5 0 0 1-2.12-2.12l4-4a1.5 1.5 0 0 1 2.12 2.12zm24 4a1.5 1.5 0 0 1-2.12 0l-4-4a1.5 1.5 0 0 1 2.12-2.12l4 4a1.5 1.5 0 0 1 0 2.12zM10 0a10 10 0 1 0 10 10A10.004 10.004 0 0 0 10 0zm5.65 7.76l-7 6A1.007 1.007 0 0 1 8 14a1.024 1.024 0 0 1-.71-.29l-3-3a1.004 1.004 0 0 1 1.42-1.42l2.34 2.35 6.3-5.4a1 1 0 0 1 1.3 1.52z" data-name="Layer 2" /></svg>
