<?xml version="1.0" encoding="UTF-8"?>
<svg xmlns="http://www.w3.org/2000/svg" id="checkpoint" viewBox="0 0 48 48"><g fill="currentColor" data-name="Layer 2"><path d="M39.39 17.61l-.73.73-3.93 3.93L22 35h17V24.57a9.518 9.518 0 0 1 3 6.93V42a3 3 0 0 0 6 0V31.5a15.519 15.519 0 0 0-8.61-13.89zM21 30.34L29.34 22l.03-.03 2.6-2.6 3.14-3.14A15 15 0 0 0 32.5 16H3a3 3 0 0 0 0 6h18z" /><path d="M21 39h18v9H21zM29.5 13.98A6.503 6.503 0 0 0 35.83 6H23.16a6.503 6.503 0 0 0 6.34 7.98zM24.444 4h10.112A1.417 1.417 0 0 0 36 2.613V1.388a1.424 1.424 0 0 0-1.604-1.38l-10.111 1.08A1.409 1.409 0 0 0 23 2.467v.146A1.417 1.417 0 0 0 24.444 4z" /></g></svg>
