<?xml version="1.0" encoding="UTF-8"?>
<svg xmlns="http://www.w3.org/2000/svg" id="children" viewBox="0 0 47.999 37"><g fill="currentColor" data-name="Layer 2"><path d="M9.996 10.017C4.298 10.017 0 14.071 0 19.5a1.5 1.5 0 0 0 3 0 6.234 6.234 0 0 1 3-5.378V35.5a1.5 1.5 0 0 0 3 0V25h2v10.5a1.5 1.5 0 0 0 3 0V14.126a6.234 6.234 0 0 1 2.992 5.374 1.5 1.5 0 0 0 3 0c0-5.429-4.298-9.483-9.996-9.483z" /><circle cx="9.999" cy="4" r="4" /><path d="M38.003 10.017c-5.698 0-9.996 4.054-9.996 9.483a1.5 1.5 0 0 0 3 0 6.258 6.258 0 0 1 3.44-5.627L32.14 25.876A1 1 0 0 0 33.132 27H34v8.5a1.5 1.5 0 0 0 3 0V27h2v8.5a1.5 1.5 0 0 0 3 0V27h.867a1 1 0 0 0 .993-1.124L41.55 13.868a6.259 6.259 0 0 1 3.448 5.632 1.5 1.5 0 0 0 3 0c0-5.429-4.298-9.483-9.996-9.483z" /><circle cx="37.999" cy="4" r="4" /></g></svg>
