<?xml version="1.0" encoding="UTF-8"?>
<svg xmlns="http://www.w3.org/2000/svg" id="child-combatant" viewBox="0 0 48 48"><g fill="currentColor" data-name="Layer 2"><path d="M48 23v-3a2 2 0 0 0-4 0v3a2.002 2.002 0 0 1-2 2V11a2 2 0 0 0-2-2V.5a.5.5 0 0 0-.5-.5H37a1 1 0 0 0 0 2v7.277A1.992 1.992 0 0 0 36 11v6h-1a2 2 0 0 0-2 2v15a2 2 0 0 0 2 2h1v10a2 2 0 0 0 2 2h4.438a2 2 0 0 0 1.94-2.485l-2.318-9.276a2.002 2.002 0 0 1-.03-.239H46a2 2 0 0 0 0-4h-4v-3a6.007 6.007 0 0 0 6-6zM13 13C5.589 13 0 18.16 0 25a2 2 0 0 0 4 0 7.669 7.669 0 0 1 4-6.725v27.747A1.978 1.978 0 0 0 9.978 48h.044A1.978 1.978 0 0 0 12 46.022V32h2v14.022A1.978 1.978 0 0 0 15.978 48h.044A1.978 1.978 0 0 0 18 46.022V18.275A7.668 7.668 0 0 1 22 25a2 2 0 0 0 4 0c0-6.841-5.589-12-13-12z" /><circle cx="13" cy="6" r="5" /></g></svg>
