<?xml version="1.0" encoding="UTF-8"?>
<svg xmlns="http://www.w3.org/2000/svg" id="child-care-child-friendly" viewBox="0 0 48 41"><g fill="currentColor" data-name="Layer 2"><path d="M39 22v.026c-.168-.01-.335-.026-.505-.026-.111 0-.22.013-.33.017C38.11 22.012 38.057 22 38 22H25.5a3.5 3.5 0 0 0 0 7H31a2 2 0 0 1 0 4h-9a2.485 2.485 0 0 1-1.603-.602L6.807 19.174a4.01 4.01 0 0 0-5.933.292 4.125 4.125 0 0 0 .388 5.498l15.227 14.862A4.012 4.012 0 0 0 19.322 41h18.67c.08 0 .155-.019.234-.024.09.003.178.014.269.014.17 0 .337-.017.505-.026V41a9 9 0 0 0 9-9v-1a9 9 0 0 0-9-9zM6.497 13c.023 0 .045-.003.068-.003.011 0 .022.003.034.003h8.907a2.494 2.494 0 1 0 0-4.988H12.81L12.812 8H11.5a1.5 1.5 0 0 1 0-3h6.385A1.728 1.728 0 0 1 19 5.418l9.265 9.766a2.789 2.789 0 0 0 4.127-.204 2.87 2.87 0 0 0-.27-3.824L21.53.816A2.79 2.79 0 0 0 19.558 0H6.571c-.024 0-.047.007-.07.007h-.004a6.497 6.497 0 1 0 0 12.993z" /></g></svg>
