<?xml version="1.0" encoding="UTF-8"?>
<svg xmlns="http://www.w3.org/2000/svg" id="church" viewBox="0 0 48 48"><g fill="currentColor" data-name="Layer 2"><path d="M31 19.414a1 1 0 0 0-.293-.707L26 14V9h3a2 2 0 0 0 0-4h-3V2a2 2 0 0 0-4 0v3h-3a2 2 0 0 0 0 4h3v5l-4.707 4.707a1 1 0 0 0-.293.707V38h14zM42 29.65a1 1 0 0 0-.594-.914L33 25v13h9zM15 25l-8.406 3.736A1 1 0 0 0 6 29.65V38h9zM46.5 45h-45a1.5 1.5 0 0 0 0 3h45a1.5 1.5 0 0 0 0-3zM5.5 43h37a1.5 1.5 0 0 0 0-3h-37a1.5 1.5 0 0 0 0 3z" /></g></svg>
