<?xml version="1.0" encoding="UTF-8"?>
<svg xmlns="http://www.w3.org/2000/svg" id="clothing" viewBox="0 0 48 42"><g fill="currentColor" data-name="Layer 2"><path d="M24 5a5.002 5.002 0 0 0 5-5H19a5.002 5.002 0 0 0 5 5z" /><path d="M47.7 10.31L38.01 1l-.75-.72a1.055 1.055 0 0 0-.7-.28H31a7.008 7.008 0 0 1-7 7 7.008 7.008 0 0 1-7-7h-5.56a1.055 1.055 0 0 0-.7.28L9.99 1 .3 10.31a1.002 1.002 0 0 0 0 1.43l6.11 5.97a1.002 1.002 0 0 0 1.4 0L12 14v27a1.003 1.003 0 0 0 1 1h22a1.003 1.003 0 0 0 1-1V14l4.19 3.71a1.002 1.002 0 0 0 1.4 0l6.11-5.97a1.002 1.002 0 0 0 0-1.43z" /></g></svg>
