<?xml version="1.0" encoding="UTF-8"?>
<svg xmlns="http://www.w3.org/2000/svg" id="community-building" viewBox="0 0 32 48"><g fill="currentColor" data-name="Layer 2"><path d="M18.51 14.64a2.996 2.996 0 0 1-5.02 0 5.017 5.017 0 0 0-2.51 4.34 1.271 1.271 0 0 0 .01.2A2.977 2.977 0 0 1 13 22a2.912 2.912 0 0 1-.14.89 4.997 4.997 0 0 0 6.28 0A2.912 2.912 0 0 1 19 22a2.977 2.977 0 0 1 2.01-2.82 1.271 1.271 0 0 0 .01-.2 5.017 5.017 0 0 0-2.51-4.34z" /><path d="M30 6H2a2.006 2.006 0 0 0-2 2v22h32V8a2.006 2.006 0 0 0-2-2zm-8 19a3.026 3.026 0 0 1-1.68-.51 6.935 6.935 0 0 1-8.64 0A3.005 3.005 0 0 1 7 22a2.992 2.992 0 0 1 1.99-2.82 1.338 1.338 0 0 1-.01-.2 7.003 7.003 0 0 1 4.05-6.35 2.992 2.992 0 0 1 5.94 0 7.003 7.003 0 0 1 4.05 6.35 1.338 1.338 0 0 1-.01.2A2.997 2.997 0 0 1 22 25zM6 4h20a2 2 0 0 0 0-4H6a2 2 0 0 0 0 4zM0 48h12V38a2.006 2.006 0 0 1 2-2h4a2.006 2.006 0 0 1 2 2v10h12V32H0z" /></g></svg>
