<?xml version="1.0" encoding="UTF-8"?>
<svg xmlns="http://www.w3.org/2000/svg" id="community-engagement" viewBox="0 0 48 48"><g fill="currentColor" data-name="Layer 2"><path d="M5.865 33.478a20.493 20.493 0 0 1-1.901-5.384 2.001 2.001 0 0 0-3.924.79 24.326 24.326 0 0 0 2.783 7.356 6.572 6.572 0 0 1 3.042-2.762zM19.907 44.037a20.188 20.188 0 0 1-5.405-1.922 6.568 6.568 0 0 1-2.772 3.053 24.563 24.563 0 0 0 7.376 2.792 1.875 1.875 0 0 0 .4.04 2.002 2.002 0 0 0 .4-3.963zM28.094 3.964a20.423 20.423 0 0 1 5.374 1.901 6.566 6.566 0 0 1 2.782-3.042A24.652 24.652 0 0 0 28.884.04a2.001 2.001 0 1 0-.79 3.924zM42.115 14.512a20.248 20.248 0 0 1 1.922 5.395 2 2 0 0 0 1.961 1.601 1.871 1.871 0 0 0 .4-.04 1.995 1.995 0 0 0 1.562-2.352 24.521 24.521 0 0 0-2.792-7.386 6.637 6.637 0 0 1-3.053 2.782zM1.602 21.468a1.81 1.81 0 0 0 .4.04 2.008 2.008 0 0 0 1.962-1.601 20.985 20.985 0 0 1 1.881-5.355 6.612 6.612 0 0 1-3.072-2.722A24.455 24.455 0 0 0 .04 19.116a1.995 1.995 0 0 0 1.562 2.352zM14.422 5.925a20.341 20.341 0 0 1 5.485-1.961 2.002 2.002 0 1 0-.8-3.924 24.528 24.528 0 0 0-7.427 2.813 6.553 6.553 0 0 1 2.742 3.072zM33.468 42.135a20.421 20.421 0 0 1-5.374 1.902 2 2 0 0 0 .39 3.963 1.814 1.814 0 0 0 .4-.04 24.652 24.652 0 0 0 7.366-2.782 6.567 6.567 0 0 1-2.782-3.043zM46.399 26.532a2.005 2.005 0 0 0-2.362 1.562 20.247 20.247 0 0 1-1.922 5.394 6.637 6.637 0 0 1 3.053 2.782 24.522 24.522 0 0 0 2.792-7.386 1.995 1.995 0 0 0-1.561-2.352zM6.876 12.801a4.4 4.4 0 0 0 1.551.28 4.553 4.553 0 0 0 1.251-8.927 4.608 4.608 0 0 0-1.25-.17A4.544 4.544 0 0 0 6.875 12.8zM34.9 8.527a4.557 4.557 0 0 0 4.553 4.554 4.473 4.473 0 0 0 1.641-.31 4.525 4.525 0 0 0 2.753-3.083 4.45 4.45 0 0 0 .15-1.16 4.54 4.54 0 0 0-4.544-4.544 4.47 4.47 0 0 0-1.171.15 4.575 4.575 0 0 0-3.073 2.752 4.475 4.475 0 0 0-.31 1.641zM13.061 39.473a4.558 4.558 0 0 0-4.554-4.554 4.312 4.312 0 0 0-1.61.3 4.528 4.528 0 0 0-2.773 3.053 4.702 4.702 0 0 0-.16 1.201 4.54 4.54 0 0 0 4.543 4.544 4.682 4.682 0 0 0 1.191-.16 4.542 4.542 0 0 0 3.363-4.384zM41.094 35.23a4.473 4.473 0 0 0-1.641-.31 4.558 4.558 0 0 0-4.554 4.553 4.475 4.475 0 0 0 .31 1.641 4.575 4.575 0 0 0 3.073 2.753 4.467 4.467 0 0 0 1.17.15 4.54 4.54 0 0 0 4.545-4.544 4.45 4.45 0 0 0-.15-1.16 4.525 4.525 0 0 0-2.753-3.084zM23.98 32.007A8.01 8.01 0 0 1 16 24.52l.85.97a1.502 1.502 0 0 0 2.259-1.978l-3.507-4.006a1.502 1.502 0 0 0-2.258 0l-3.508 4a1.502 1.502 0 1 0 2.257 1.98l.901-1.027a11.013 11.013 0 0 0 10.986 10.55 1.501 1.501 0 0 0 0-3.002zM23.98 15.994a8.01 8.01 0 0 1 7.98 7.488l-.85-.971a1.501 1.501 0 1 0-2.259 1.978l3.507 4.005a1.501 1.501 0 0 0 2.259 0l3.507-4.001a1.5 1.5 0 0 0-2.258-1.978l-.9 1.026a11.013 11.013 0 0 0-10.986-10.55 1.501 1.501 0 1 0 0 3.003z" /></g></svg>
