<?xml version="1.0" encoding="UTF-8"?>
<svg xmlns="http://www.w3.org/2000/svg" id="communal-latrine" viewBox="0 0 44 44"><g fill="currentColor" data-name="Layer 2"><path d="M0 39.08v3.457A1.482 1.482 0 0 0 1.5 44 1.482 1.482 0 0 0 3 42.537V41h13v1.537a1.5 1.5 0 0 0 3 0V7H0zM14 23a1 1 0 0 1 2 0v3a1 1 0 0 1-2 0zM14 0H5a5 5 0 0 0-5 5h19a5 5 0 0 0-5-5zM25 39.08v3.457a1.5 1.5 0 0 0 3 0V41h13v1.537a1.5 1.5 0 0 0 3 0V7H25zM39 23a1 1 0 0 1 2 0v3a1 1 0 0 1-2 0zM39 0h-9a5 5 0 0 0-5 5h19a5 5 0 0 0-5-5z" /></g></svg>
