<?xml version="1.0" encoding="UTF-8"?>
<svg xmlns="http://www.w3.org/2000/svg" id="computer" viewBox="0 0 48 48.05"><g fill="currentColor" data-name="Layer 2"><path d="M4 30h40a2.006 2.006 0 0 0 2-2V2a2.006 2.006 0 0 0-2-2H4a2.006 2.006 0 0 0-2 2v26a2.006 2.006 0 0 0 2 2zM6 4h36v22H6zM45.75 33H2.25A2.253 2.253 0 0 0 0 35.25v10.56a2.251 2.251 0 0 0 2.25 2.24h43.5A2.251 2.251 0 0 0 48 45.81V35.25A2.253 2.253 0 0 0 45.75 33zM19.5 41h-14a1.5 1.5 0 0 1 0-3h14a1.5 1.5 0 0 1 0 3zm22 1a2.5 2.5 0 1 1 2.5-2.5 2.501 2.501 0 0 1-2.5 2.5z" /></g></svg>
