<?xml version="1.0" encoding="UTF-8"?>
<svg xmlns="http://www.w3.org/2000/svg" id="conflict" viewBox="0 0 48 48"><g fill="currentColor" data-name="Layer 2"><circle cx="24" cy="24" r="5" /><path d="M24 16a3 3 0 0 0 3-3V3a3 3 0 0 0-6 0v10a3 3 0 0 0 3 3zM18.11 18.11a3.04 3.04 0 0 0 0-4.3L5.19.89a3.04 3.04 0 0 0-4.3 4.3l12.92 12.92a3.04 3.04 0 0 0 4.3 0z" /><rect width="12" height="6" x="4" y="21" rx="2.987" /><path d="M14.083 29.844l-9.24 9.24a2.88 2.88 0 0 0 4.074 4.072l9.24-9.24a2.88 2.88 0 1 0-4.074-4.072zM23.988 32a3 3 0 0 0-3 3v10a3 3 0 0 0 6 0V35a3 3 0 0 0-3-3zM33.958 29.885a2.88 2.88 0 0 0-4.073 4.073l5.157 5.157a2.88 2.88 0 0 0 4.073-4.073zM44.808 21h-9.616A3.097 3.097 0 0 0 32 23.992a3.097 3.097 0 0 0 3.192 2.993h9.616A3.097 3.097 0 0 0 48 23.992 3.097 3.097 0 0 0 44.808 21zM33.829 18.156l3.327-3.24a2.88 2.88 0 0 0-4.073-4.072l-3.24 3.24a2.88 2.88 0 0 0 0 4.072 2.775 2.775 0 0 0 3.986 0z" /></g></svg>
