<?xml version="1.0" encoding="UTF-8"?>
<svg xmlns="http://www.w3.org/2000/svg" id="confined" viewBox="0 0 48 48"><path fill="currentColor" d="M45.25 0H2.75A2.748 2.748 0 0 0 0 2.75v42.5A2.748 2.748 0 0 0 2.75 48h42.5A2.748 2.748 0 0 0 48 45.25V2.75A2.748 2.748 0 0 0 45.25 0zM44 44H4V4h40z" /><path fill="currentColor" d="M13.353 40.67a2.629 2.629 0 0 0 3.575-1.021l4.773-8.502 8.054 8.972c.018.02.04.034.059.053.061.066.13.123.197.182.064.055.126.112.194.16s.142.087.215.13c.075.042.148.087.226.122.076.034.155.058.234.085a2.527 2.527 0 0 0 .248.077c.079.018.16.026.241.037a2.727 2.727 0 0 0 .274.028c.026 0 .051.008.078.008h6.573A2.696 2.696 0 0 0 41 38.37V24.047a8.09 8.09 0 0 0-8.102-8.025h-1.177A2.71 2.71 0 0 0 29 18.652v12.802l-5.831-6.573a2.63 2.63 0 0 0-4.264.47l-6.573 11.743a2.63 2.63 0 0 0 1.02 3.575z" /><circle cx="24.5" cy="11.501" r="4.5" fill="currentColor" /></svg>
