<?xml version="1.0" encoding="UTF-8"?>
<svg xmlns="http://www.w3.org/2000/svg" id="coordination" viewBox="0 0 48 48"><g fill="currentColor" data-name="Layer 2"><circle cx="24" cy="24" r="6" /><path d="M32 18h9a2 2 0 0 0 0-4h-4.172L47.414 3.414A2 2 0 1 0 44.586.586L34 11.172V7a2 2 0 0 0-4 0v9a2 2 0 0 0 2 2zM11.172 14H7a2 2 0 0 0 0 4h9a2 2 0 0 0 2-2V7a2 2 0 0 0-4 0v4.172L3.414.586A2 2 0 0 0 .586 3.414zM36.828 34H41a2 2 0 0 0 0-4h-9a2 2 0 0 0-2 2v9a2 2 0 0 0 4 0v-4.172l10.586 10.586a2 2 0 0 0 2.828-2.828zM16 30H7a2 2 0 0 0 0 4h4.172L.586 44.586a2 2 0 1 0 2.828 2.828L14 36.828V41a2 2 0 0 0 4 0v-9a2 2 0 0 0-2-2z" /></g></svg>
