<?xml version="1.0" encoding="UTF-8"?>
<svg xmlns="http://www.w3.org/2000/svg" id="coordinated-assessement" viewBox="0 0 48 48"><g fill="currentColor" data-name="Layer 2"><path d="M40.6 25.47a2.917 2.917 0 0 0 0-2.94 19.223 19.223 0 0 0-33.2 0 2.917 2.917 0 0 0 0 2.94 19.222 19.222 0 0 0 33.2 0zM24 30a6 6 0 1 1 6-6 6.005 6.005 0 0 1-6 6zM36.5 13h10a1.5 1.5 0 0 0 0-3h-6.38l7.414-7.414a1.5 1.5 0 1 0-2.12-2.121L38 7.879V1.5a1.5 1.5 0 0 0-3 0v10a1.5 1.5 0 0 0 1.5 1.5zM0 11.5A1.5 1.5 0 0 0 1.5 13h10a1.5 1.5 0 0 0 1.5-1.5v-10a1.5 1.5 0 0 0-3 0v6.379L2.587.465a1.5 1.5 0 0 0-2.121 2.12L7.879 10H1.5A1.5 1.5 0 0 0 0 11.5zM48 36.5a1.5 1.5 0 0 0-1.5-1.5h-10a1.5 1.5 0 0 0-1.5 1.5v10a1.5 1.5 0 0 0 3 0v-6.379l7.413 7.414a1.5 1.5 0 1 0 2.121-2.12L40.121 38H46.5a1.5 1.5 0 0 0 1.5-1.5zM11.5 35h-10a1.5 1.5 0 0 0 0 3h6.38L.465 45.414a1.5 1.5 0 1 0 2.12 2.121L10 40.121V46.5a1.5 1.5 0 0 0 3 0v-10a1.5 1.5 0 0 0-1.5-1.5z" /></g></svg>
