<?xml version="1.0" encoding="UTF-8"?>
<svg xmlns="http://www.w3.org/2000/svg" id="copy" viewBox="0 0 34 48"><g fill="currentColor" data-name="Layer 2"><path d="M27.78 41a.781.781 0 0 0-.78.78V48l7-7h-6.22zM25 10V1a1.003 1.003 0 0 0-1-1H1a1.003 1.003 0 0 0-1 1v33a1.003 1.003 0 0 0 1 1h5V14a3.999 3.999 0 0 1 4-4z" /><path d="M33 13H10a1.003 1.003 0 0 0-1 1v33a1.003 1.003 0 0 0 1 1h15v-6.22A2.787 2.787 0 0 1 27.78 39H34V14a1.003 1.003 0 0 0-1-1zm-4 22H14a1 1 0 0 1 0-2h15a1 1 0 0 1 0 2zm0-6H14a1 1 0 0 1 0-2h15a1 1 0 0 1 0 2zm0-6H14a1 1 0 0 1 0-2h15a1 1 0 0 1 0 2z" /></g></svg>
