<?xml version="1.0" encoding="UTF-8"?>
<svg xmlns="http://www.w3.org/2000/svg" id="covid-19" viewBox="0 0 48 48"><path fill="currentColor" d="M46.5 19a1.5 1.5 0 0 0-1.5 1.5V22h-4.128a16.9 16.9 0 0 0-3.53-8.514l2.921-2.921 1.176.996a1.5 1.5 0 1 0 2.122-2.122l-5-5a1.5 1.5 0 0 0-2.122 2.122l.996 1.175-2.921 2.922A16.902 16.902 0 0 0 26 7.128V3h1.5a1.5 1.5 0 0 0 0-3h-7a1.5 1.5 0 0 0 0 3H22v4.128a16.902 16.902 0 0 0-8.514 3.53l-2.921-2.922.996-1.175a1.5 1.5 0 0 0-2.122-2.122l-4.884 5a1.5 1.5 0 0 0 2.12 2.122l1.062-.996 2.92 2.921A16.9 16.9 0 0 0 7.128 22H3v-1.5a1.5 1.5 0 0 0-3 0v7a1.5 1.5 0 0 0 3 0V26h4.128a16.9 16.9 0 0 0 3.53 8.514l-2.921 2.921-1.176-.996a1.5 1.5 0 0 0-2.122 2.122l5 5a1.5 1.5 0 1 0 2.122-2.122l-.996-1.175 2.921-2.922A16.902 16.902 0 0 0 22 40.872V45h-1.5a1.5 1.5 0 0 0 0 3h7a1.5 1.5 0 0 0 0-3H26v-4.128a16.902 16.902 0 0 0 8.514-3.53l2.921 2.922-.996 1.175a1.5 1.5 0 0 0 2.122 2.122l5-5a1.5 1.5 0 1 0-2.122-2.122l-1.176.996-2.92-2.921A16.9 16.9 0 0 0 40.872 26H45v1.5a1.5 1.5 0 0 0 3 0v-7a1.5 1.5 0 0 0-1.5-1.5zm-28 1a3.5 3.5 0 1 1 3.5-3.5 3.5 3.5 0 0 1-3.5 3.5zM30 33a2 2 0 1 1 2-2 2 2 0 0 1-2 2z" /></svg>
