<?xml version="1.0" encoding="UTF-8"?>
<svg xmlns="http://www.w3.org/2000/svg" id="csv-file" viewBox="0 0 44 32"><path fill="currentColor" d="M37 .94V0l7 7h-6.22a.781.781 0 0 1-.78-.78zM44 9v21a2 2 0 0 1-2 2H2a2 2 0 0 1-2-2V2a2 2 0 0 1 2-2h33v6.22A2.783 2.783 0 0 0 37.78 9zM11 21v-6a1.001 1.001 0 0 1 1-1h3a1 1 0 0 0 0-2h-3a3.003 3.003 0 0 0-3 3v6a3.003 3.003 0 0 0 3 3h3a1 1 0 0 0 0-2h-3a1.001 1.001 0 0 1-1-1zm14-1a3.003 3.003 0 0 0-3-3h-1a1.001 1.001 0 0 1-1-1v-1a1.001 1.001 0 0 1 1-1h2a1 1 0 0 0 0-2h-2a3.003 3.003 0 0 0-3 3v1a3.003 3.003 0 0 0 3 3h1a1.001 1.001 0 0 1 1 1v1a1.001 1.001 0 0 1-1 1h-3a1 1 0 0 0 0 2h3a3.003 3.003 0 0 0 3-3zm8.287-7.958a1.005 1.005 0 0 0-1.245.67L30 19.52l-2.042-6.807a1 1 0 0 0-1.916.574l3 10a1 1 0 0 0 1.916 0l3-10a1 1 0 0 0-.67-1.245z" data-name="Layer 2" /></svg>
