<?xml version="1.0" encoding="UTF-8"?>
<svg xmlns="http://www.w3.org/2000/svg" id="dangerous-area" viewBox="0 0 43.016 48"><g fill="currentColor" data-name="Layer 2"><path d="M11 24h3v2a2.006 2.006 0 0 0 2 2h10a2.006 2.006 0 0 0 2-2v-2h3a2.997 2.997 0 0 0 .38-5.97 12 12 0 1 0-20.76 0 2.964 2.964 0 0 0-1.74.85A2.998 2.998 0 0 0 11 24zm9-5v2a1 1 0 0 1-2 0v-2a1 1 0 0 1 2 0zm2 0a1 1 0 0 1 2 0v2a1 1 0 0 1-2 0zm4.5-9a2.5 2.5 0 1 1-2.5 2.5 2.501 2.501 0 0 1 2.5-2.5zm-11 0a2.5 2.5 0 1 1-2.5 2.5 2.501 2.501 0 0 1 2.5-2.5z" /><path d="M41.123 30.074l-1.116-.28.606-.958a2.5 2.5 0 1 0-4.225-2.674l-2.054 3.247L21 34.999 7.909 29.516l-1.063-2.881a2.5 2.5 0 1 0-4.691 1.728l.532 1.446-.962.313a2.5 2.5 0 1 0 1.551 4.754l2.518-.821L14 37.499l-4.276 1.818-2.106-1.053a2.5 2.5 0 0 0-2.236 4.47l1.181.592-.458 1.392a2.5 2.5 0 1 0 4.75 1.562l.77-2.338 9.362-3.943 9.365 3.944.775 2.341a2.5 2.5 0 0 0 4.746-1.57l-.457-1.383 1.195-.593a2.5 2.5 0 1 0-2.223-4.478l-2.133 1.059-4.255-1.82 8.279-3.483 3.628.908a2.474 2.474 0 0 0 .61.076 2.5 2.5 0 0 0 .605-4.926z" /></g></svg>
