<?xml version="1.0" encoding="UTF-8"?>
<svg xmlns="http://www.w3.org/2000/svg" id="data" viewBox="0 0 36 48"><g fill="currentColor" data-name="Layer 2"><path d="M33 0H3a3 3 0 0 0-3 3v42a3 3 0 0 0 3 3h30a3 3 0 0 0 3-3V3a3 3 0 0 0-3-3zm-1 44H4V4h28z" /><path d="M22.56 13.56l.44-.439V20.5a1.5 1.5 0 0 0 3 0v-11a1.5 1.5 0 0 0-2.56-1.06l-3 3a1.5 1.5 0 0 0 2.12 2.12zM14.074 26.114a1.497 1.497 0 0 0-1.635.325l-3 3a1.5 1.5 0 0 0 2.122 2.122l.439-.44V38.5a1.5 1.5 0 0 0 3 0v-11a1.5 1.5 0 0 0-.926-1.386zM22 40h3a3 3 0 0 0 3-3v-8a3 3 0 0 0-3-3h-3a3 3 0 0 0-3 3v8a3 3 0 0 0 3 3zm0-11h3v8h-3zM11 22h3a3 3 0 0 0 3-3v-8a3 3 0 0 0-3-3h-3a3 3 0 0 0-3 3v8a3 3 0 0 0 3 3zm0-11h3v8h-3z" /></g></svg>
