<?xml version="1.0" encoding="UTF-8"?>
<svg xmlns="http://www.w3.org/2000/svg" id="dead" viewBox="0 0 42 48"><g fill="currentColor" data-name="Layer 2"><path d="M29 10c-7.411 0-13 5.159-13 12a2 2 0 0 0 4 0 7.449 7.449 0 0 1 4-6.745V46a2 2 0 0 0 4 0V31h2v15a2 2 0 0 0 4 0V15.255A7.449 7.449 0 0 1 38 22a2 2 0 0 0 4 0c0-6.841-5.589-12-13-12z" /><circle cx="29" cy="4" r="4" /><path d="M8 0a8 8 0 1 0 8 8 7.998 7.998 0 0 0-8-8zm3.72 10.3a1.008 1.008 0 0 1 0 1.42 1.014 1.014 0 0 1-1.42 0L8 9.41l-2.3 2.31a1.014 1.014 0 0 1-1.42 0 1.008 1.008 0 0 1 0-1.42L6.59 8 4.28 5.7A1.004 1.004 0 1 1 5.7 4.28L8 6.59l2.3-2.31a1.004 1.004 0 0 1 1.42 1.42L9.41 8z" /></g></svg>
