<?xml version="1.0" encoding="UTF-8"?>
<svg xmlns="http://www.w3.org/2000/svg" id="debris-management" viewBox="0 0 48 48"><g fill="currentColor" data-name="Layer 2"><path d="M25.199 7.572a4 4 0 1 0-1.77-5.373 4 4 0 0 0 1.77 5.373z" /><circle cx="42.5" cy="20.502" r="4.5" /><circle cx="40" cy="34.002" r="2" /><circle cx="44.5" cy="38.502" r="1.5" /><path d="M45 42.002h-6.05a3.49 3.49 0 0 0-3.45-3h-4.308A5.993 5.993 0 0 0 26 36h-1.724a12.01 12.01 0 0 0-2.946-12.45l.846-1.677 4.738 2.473a1.97 1.97 0 0 0 3.245 1.692l7.253 3.785a1.505 1.505 0 0 0 .693.17h7.717a1.5 1.5 0 0 0 0-3h-7.349l-7.067-3.688c1.403-5.579-1.27-11.257-6.777-14.073-.04-.022-.074-.053-.116-.074l-1.433-.723a4.043 4.043 0 0 0-5.431 1.788l-4.688 9.29a1.473 1.473 0 0 0-.085.132L4.526 36.19A5.997 5.997 0 0 0 6 48h39a3 3 0 1 0 0-5.998zM9.109 36l6-11.89a1.98 1.98 0 0 0 .238.133c4.674 2.043 6.764 6.869 4.86 11.224a1.977 1.977 0 0 0-.14.533zm18.596-14.627l-4.176-2.179 2.127-4.213a8.151 8.151 0 0 1 2.049 6.392z" /></g></svg>
