<?xml version="1.0" encoding="UTF-8"?>
<svg xmlns="http://www.w3.org/2000/svg" id="delete-account" viewBox="0 0 48 48"><path fill="currentColor" d="M48 44v4H14v-4a16 16 0 0 1 16-16h2a16 16 0 0 1 16 16zm-8-27a9 9 0 0 0-9-9 9 9 0 0 0-9 9 9 9 0 0 0 9 9 9 9 0 0 0 9-9zM0 10a10 10 0 1 1 10 10A10.004 10.004 0 0 1 0 10zm8.58 0l-3.29 3.29a1.008 1.008 0 0 0 0 1.42 1.014 1.014 0 0 0 1.42 0L10 11.42l3.29 3.29a1.014 1.014 0 0 0 1.42 0 1.008 1.008 0 0 0 0-1.42L11.42 10l3.29-3.29a1.004 1.004 0 1 0-1.42-1.42L10 8.58 6.71 5.29a1.004 1.004 0 0 0-1.42 1.42z" data-name="Layer 2" /></svg>
