<?xml version="1.0" encoding="UTF-8"?>
<svg xmlns="http://www.w3.org/2000/svg" id="deployment" viewBox="0 0 47.971 47.99"><g fill="currentColor" data-name="Layer 2"><path d="M18.85 23.89a7.257 7.257 0 0 0-10.056.36L.66 32.384a2.253 2.253 0 0 0 0 3.187l6.771 6.771a2.253 2.253 0 0 0 3.187 0l8.365-8.365a7.042 7.042 0 0 0-.133-10.087zM47.77 2.75a4 4 0 0 0-7.6 2.502 4 4 0 0 0 7.6-2.502z" /><path d="M44.448 18.052a4.936 4.936 0 0 0-2.292-6.592l-2.642-1.333a2.098 2.098 0 0 0-.448-.161c-6.85-2.982-15.43.309-18.867 7.026a2.068 2.068 0 1 0 3.682 1.884 11.186 11.186 0 0 1 11.08-5.813L18.2 44.955a2.087 2.087 0 1 0 3.719 1.896l9.313-17.719 3.75 1.876a10.437 10.437 0 0 1 4.226 13.933 2.087 2.087 0 1 0 3.704 1.924 14.276 14.276 0 0 0-3.885-18.12l1.765-3.403z" /></g></svg>
