<?xml version="1.0" encoding="UTF-8"?>
<svg xmlns="http://www.w3.org/2000/svg" id="distribution-site" viewBox="0 0 32 48"><g fill="currentColor" data-name="Layer 2"><path d="M30 6H2a2.006 2.006 0 0 0-2 2v22h32V8a2.006 2.006 0 0 0-2-2zm-4.11 12.04v.02a1.515 1.515 0 0 1-.33.49l-6.01 6.02a1.503 1.503 0 0 1-2.1 0 1.485 1.485 0 0 1 0-2.1l3.49-3.49H7.48a1.48 1.48 0 1 1 0-2.96h13.46l-3.49-3.49a1.485 1.485 0 0 1 2.1-2.1l6.01 6.02a1.512 1.512 0 0 1 .33.49v.02a1.38 1.38 0 0 1 0 1.08zM6 4h20a2 2 0 0 0 0-4H6a2 2 0 0 0 0 4zM0 48h12V38a2.006 2.006 0 0 1 2-2h4a2.006 2.006 0 0 1 2 2v10h12V32H0z" /></g></svg>
