<?xml version="1.0" encoding="UTF-8"?>
<svg xmlns="http://www.w3.org/2000/svg" id="docx-file" viewBox="0 0 44 32"><path fill="currentColor" d="M37 .94V0l7 7h-6.22a.781.781 0 0 1-.78-.78zM18 14h-1a1 1 0 0 0-1 1v6a1 1 0 0 0 1 1h1a1 1 0 0 0 1-1v-6a1 1 0 0 0-1-1zm-9 0H7v8h2a1 1 0 0 0 1-1v-6a1 1 0 0 0-1-1zm35-5v21a2 2 0 0 1-2 2H2a2 2 0 0 1-2-2V2a2 2 0 0 1 2-2h33v6.22A2.783 2.783 0 0 0 37.78 9zm-32 6a3.003 3.003 0 0 0-3-3H6a1 1 0 0 0-1 1v10a1 1 0 0 0 1 1h3a3.003 3.003 0 0 0 3-3zm9 0a3.003 3.003 0 0 0-3-3h-1a3.003 3.003 0 0 0-3 3v6a3.003 3.003 0 0 0 3 3h1a3.003 3.003 0 0 0 3-3zm4 6v-6a1 1 0 0 1 1-1h3a1 1 0 0 0 0-2h-3a3.003 3.003 0 0 0-3 3v6a3.003 3.003 0 0 0 3 3h3a1 1 0 0 0 0-2h-3a1 1 0 0 1-1-1zm11.618-3l2.277-4.553a1 1 0 1 0-1.79-.894l-1.605 3.21-1.605-3.21a1 1 0 1 0-1.79.894L34.382 18l-2.277 4.553a1 1 0 0 0 1.79.894l1.605-3.21 1.605 3.21a1 1 0 0 0 1.79-.894z" data-name="Layer 2" /></svg>
