<?xml version="1.0" encoding="UTF-8"?>
<svg xmlns="http://www.w3.org/2000/svg" id="download" viewBox="0 0 48 48"><g fill="currentColor" data-name="Layer 2"><path d="M7.879 33.121l14 14a2.999 2.999 0 0 0 4.242 0l14-14a3 3 0 1 0-4.242-4.242L27 37.758V12a3 3 0 0 0-6 0v25.758l-8.879-8.88a3 3 0 1 0-4.242 4.243z" /><path d="M45.799 0H2.2A2.373 2.373 0 0 0 0 2.514v8.972A2.373 2.373 0 0 0 2.201 14H18v-2a6 6 0 0 1 12 0v2h15.799A2.373 2.373 0 0 0 48 11.486V2.514A2.373 2.373 0 0 0 45.799 0zM36 9a2 2 0 1 1 2-2 2 2 0 0 1-2 2zm7 0a2 2 0 1 1 2-2 2 2 0 0 1-2 2z" /></g></svg>
