<?xml version="1.0" encoding="UTF-8"?>
<svg xmlns="http://www.w3.org/2000/svg" id="e-mail" viewBox="0 0 48 30"><path fill="currentColor" d="M46 0H2a2.006 2.006 0 0 0-2 2v26a2.006 2.006 0 0 0 2 2h44a2.006 2.006 0 0 0 2-2V2a2.006 2.006 0 0 0-2-2zM13.3 20.52l-7 6a2 2 0 0 1-2.6-3.04l7-6a2 2 0 0 1 2.6 3.04zm31.22 5.78a2 2 0 0 1-2.82.22l-7-6a2 2 0 0 1 2.6-3.04l7 6a1.998 1.998 0 0 1 .22 2.82zm-.33-19.69l-19 14a2.01 2.01 0 0 1-2.38 0l-19-14a2.002 2.002 0 1 1 2.38-3.22L24 16.52 41.81 3.39a2.002 2.002 0 1 1 2.38 3.22z" data-name="Layer 2" /></svg>
