<?xml version="1.0" encoding="UTF-8"?>
<svg xmlns="http://www.w3.org/2000/svg" id="early-recovery" viewBox="0 0 47.994 45"><g fill="currentColor" data-name="Layer 2"><path d="M22.731 17l-2.47 2.47 5.27 5.27 3.01-3.01-5.27-5.27-.54.54zM.586 39.143a2 2 0 0 0 0 2.828l2.443 2.443a2 2 0 0 0 2.828 0L24.023 26.25l-5.272-5.271zM47.371 16.46l-3.78-3.76a1.069 1.069 0 0 0-1.5 0l-1.51 1.51-2.26-2.26 1.4-1.4a1.056 1.056 0 0 0-.01-1.49l-4.09-4.09-.43-.43-1.08-1.08A11.776 11.776 0 0 0 25.801 0a11.572 11.572 0 0 0-7.42 2.64 1.057 1.057 0 0 0-.07 1.58l6.76 6.76a2.307 2.307 0 0 1 .68 1.02 3.02 3.02 0 0 1-.64 2.61l-.34.34 2.05 2.05 3.23 3.22 2.25-2.25 2.26 2.25-1.51 1.52a1.05 1.05 0 0 0 0 1.5l3.77 3.76a2.142 2.142 0 0 0 3.02 0l7.53-7.53a2.13 2.13 0 0 0 0-3.01z" /></g></svg>
