<?xml version="1.0" encoding="UTF-8"?>
<svg xmlns="http://www.w3.org/2000/svg" id="earthquake" viewBox="0 0 40 48"><path fill="currentColor" d="M39.57 18.04L20.69.27a1.017 1.017 0 0 0-1.38 0L.43 18.04a1.31 1.31 0 0 0-.43.98V47a1.003 1.003 0 0 0 1 1h13.18l8.91-8.92-8.43-7.59a1.994 1.994 0 0 1-.66-1.51 2.015 2.015 0 0 1 .7-1.5l5.36-4.59-3.47-3.48a1.974 1.974 0 0 1 0-2.82l4-4a1.994 1.994 0 0 1 2.82 2.82L20.83 19l3.58 3.59a1.974 1.974 0 0 1 .59 1.49 2.013 2.013 0 0 1-.7 1.44l-5.27 4.52 8.31 7.47a1.995 1.995 0 0 1 .07 2.9L19.82 48H39a1.003 1.003 0 0 0 1-1V19.02a1.31 1.31 0 0 0-.43-.98z" data-name="Layer 2" /></svg>
