<?xml version="1.0" encoding="UTF-8"?>
<svg xmlns="http://www.w3.org/2000/svg" id="elderly" viewBox="0 0 32.004 47"><g fill="currentColor" data-name="Layer 2"><path d="M26 21c0-6.841-5.589-12-13-12S0 14.159 0 21a2 2 0 0 0 4 0 7.449 7.449 0 0 1 4-6.745V45a2 2 0 0 0 4 0V31h2v14a2 2 0 0 0 4 0V14.255A7.449 7.449 0 0 1 22 21a2 2 0 0 0 4 0z" /><circle cx="19" cy="4" r="4" /><path d="M27.982 27.5a3.967 3.967 0 0 0-4.02 4 1.5 1.5 0 0 0 3 0 1.021 1.021 0 0 1 2.042 0v14a1.5 1.5 0 1 0 3 0v-14a3.968 3.968 0 0 0-4.022-4z" /></g></svg>
