<?xml version="1.0" encoding="UTF-8"?>
<svg xmlns="http://www.w3.org/2000/svg" id="emergency-telecommunications" viewBox="0 0 35.979 44.971"><g fill="currentColor" data-name="Layer 2"><path d="M29.99 40.971H19.988v-28.5c0-.018-.004-.034-.005-.052a4 4 0 1 0-3.99 0c0 .018-.004.034-.004.051v28.501h-10a2 2 0 0 0 0 4h24a2 2 0 0 0 0-4z" /><path d="M24.7 15.658c.557.609 1.833.33 2.544-.78a10.97 10.97 0 0 0 0-11.813c-.711-1.111-1.987-1.39-2.544-.78a2.03 2.03 0 0 0 .016 2.397 7.966 7.966 0 0 1 0 8.578 2.03 2.03 0 0 0-.016 2.398zM33.394.953c-.72-.998-1.93-1.225-2.494-.621a1.916 1.916 0 0 0 .059 2.374 10.727 10.727 0 0 1 0 12.53 1.916 1.916 0 0 0-.06 2.375c.566.603 1.776.376 2.495-.621a13.73 13.73 0 0 0 0-16.037zM11.179 15.658a2.03 2.03 0 0 0-.017-2.398 7.967 7.967 0 0 1 0-8.578 2.03 2.03 0 0 0 .017-2.397c-.557-.61-1.833-.331-2.544.78a10.97 10.97 0 0 0 0 11.813c.71 1.11 1.986 1.39 2.544.78zM5.079 17.61a1.915 1.915 0 0 0-.06-2.374 10.727 10.727 0 0 1 0-12.53A1.916 1.916 0 0 0 5.08.332c-.565-.603-1.776-.377-2.494.62a13.73 13.73 0 0 0 0 16.038c.718.997 1.929 1.224 2.494.62z" /></g></svg>
