<?xml version="1.0" encoding="UTF-8"?>
<svg xmlns="http://www.w3.org/2000/svg" id="epidemic" viewBox="0 0 48 42"><path fill="currentColor" d="M48 29.493V29h-.05.05v.01V29a12.99 12.99 0 0 0-12.466-12.973c-.032-.062-.058-.127-.091-.189A12.524 12.524 0 0 0 33.54 1.116l.001-.001-.39-.399-.002.002a2.412 2.412 0 0 0-3.447.013 2.536 2.536 0 0 0-.013 3.519l-.002.002.362.369A7.013 7.013 0 0 1 32 10a8.688 8.688 0 0 1-.23 1.603 12.9 12.9 0 0 0-15.538-.002A8.655 8.655 0 0 1 16 10a6.995 6.995 0 0 1 1.95-5.373l-.042-.042.042.043.347-.367-.001-.001A2.536 2.536 0 0 0 18.29.732a2.413 2.413 0 0 0-3.456-.006l-.002.001-.006.005-.005.006-.34.348.034.035-.035-.035.007-.007-.007.007A12.513 12.513 0 0 0 12.56 15.83c-.035.064-.062.132-.095.197A12.99 12.99 0 0 0 0 29v.01V29h.05H0v.51h.001a2.499 2.499 0 0 0 4.998 0h.002L5.01 29h-.06.06a7.997 7.997 0 0 1 6.027-7.737c-.014.245-.037.488-.037.737a13.013 13.013 0 0 0 8.18 12.063A7.974 7.974 0 0 1 13 37h-.521v.002a2.498 2.498 0 0 0 0 4.996V42h.563v-.002A12.977 12.977 0 0 0 24 35.906a12.977 12.977 0 0 0 10.958 6.092V42h.563v-.002a2.498 2.498 0 0 0 0-4.996V37H35a7.974 7.974 0 0 1-6.18-2.937A13.013 13.013 0 0 0 37 22c0-.249-.023-.492-.037-.737A7.997 7.997 0 0 1 42.99 29h.06-.061l.01.51H43a2.499 2.499 0 0 0 4.998 0v-.003L48 29.5zM24 13a8.953 8.953 0 0 1 5.913 2.232c-.121.14-.24.283-.373.418a7.694 7.694 0 0 1-11.07 0c-.134-.136-.255-.28-.378-.423A8.953 8.953 0 0 1 24 13zm-9 9c0-.242.018-.48.036-.718a7.94 7.94 0 0 1 5.82 9.14A9.007 9.007 0 0 1 15 22zm12.143 8.422a7.94 7.94 0 0 1 5.82-9.14c.02.238.037.476.037.718a9.007 9.007 0 0 1-5.857 8.422z" data-name="Layer 2" /></svg>
