<?xml version="1.0" encoding="UTF-8"?>
<svg xmlns="http://www.w3.org/2000/svg" id="famine" viewBox="0 0 43.817 48"><g fill="currentColor" data-name="Layer 2"><path d="M10 0a10 10 0 1 0 10 10A10 10 0 0 0 10 0zm0 17a1 1 0 1 1 1-1 1 1 0 0 1-1 1zm1-5a1 1 0 0 1-2 0V4a1 1 0 0 1 2 0zM29.642 20.338l.998.268.802-2.994a5.165 5.165 0 0 0-3.652-6.325l-.998-.268-.802 2.994a5.165 5.165 0 0 0 3.652 6.325zM27.236 29.318l.998.268.802-2.994a5.165 5.165 0 0 0-3.652-6.325l-.998-.268-.802 2.994a5.165 5.165 0 0 0 3.652 6.325zM25.827 38.566l.803-2.993a5.165 5.165 0 0 0-3.653-6.326l-.997-.268-.803 2.994a5.165 5.165 0 0 0 3.653 6.325zM34.435 18.414l-.802 2.994.998.267a5.165 5.165 0 0 0 6.326-3.652l.802-2.993-.998-.268a5.165 5.165 0 0 0-6.326 3.652zM32.029 27.394l-.802 2.994.998.267a5.165 5.165 0 0 0 6.326-3.652l.801-2.993-.997-.268a5.165 5.165 0 0 0-6.326 3.652zM29.623 36.374l-.802 2.994.998.267a5.165 5.165 0 0 0 6.325-3.652l.802-2.993-.997-.268a5.165 5.165 0 0 0-6.326 3.652zM23.822 46.05a1.55 1.55 0 0 0 2.994.801l1.47-5.488-2.993-.802zM28.823 9.425a1.55 1.55 0 0 0 1.898-1.096l1.07-3.991a1.55 1.55 0 1 0-2.994-.802l-1.07 3.991a1.55 1.55 0 0 0 1.096 1.898zM42.668 5.649a1.55 1.55 0 0 0-1.897 1.095l-1.07 3.991a1.55 1.55 0 0 0 2.994.802l1.069-3.99a1.55 1.55 0 0 0-1.096-1.898zM34.008 14.022a1.55 1.55 0 0 0 1.898-1.095l2.94-10.976a1.55 1.55 0 1 0-2.993-.802l-2.94 10.975a1.55 1.55 0 0 0 1.095 1.898z" /></g></svg>
