<?xml version="1.0" encoding="UTF-8"?>
<svg xmlns="http://www.w3.org/2000/svg" id="fax" viewBox="0 0 48 44"><g fill="currentColor" data-name="Layer 2"><path d="M46 16H2a2.006 2.006 0 0 0-2 2v13.96a2.006 2.006 0 0 0 2 2h6v-5.97h32v5.97h6a2.006 2.006 0 0 0 2-2V18a2.006 2.006 0 0 0-2-2zm-14 7a2 2 0 1 1 2-2 2.006 2.006 0 0 1-2 2zm6 0a2 2 0 1 1 2-2 2.006 2.006 0 0 1-2 2z" /><path d="M11 33.96V42a2.006 2.006 0 0 0 2 2h22a2.006 2.006 0 0 0 2-2V30.99H11zM37 7h-4a3.009 3.009 0 0 1-3-3V0H13a2.006 2.006 0 0 0-2 2v12h26z" /><path d="M33 5h4l-5-5v4a1.003 1.003 0 0 0 1 1z" /></g></svg>
