<?xml version="1.0" encoding="UTF-8"?>
<svg xmlns="http://www.w3.org/2000/svg" id="film" viewBox="0 0 48 41"><g fill="currentColor" data-name="Layer 2"><path d="M11.5 18A5.5 5.5 0 1 0 6 12.5a5.497 5.497 0 0 0 5.5 5.5zm0-7a1.5 1.5 0 1 1-1.5 1.5 1.498 1.498 0 0 1 1.5-1.5zM28.5 17A8.5 8.5 0 1 0 20 8.5a8.506 8.506 0 0 0 8.5 8.5zm0-11A2.5 2.5 0 1 1 26 8.5 2.5 2.5 0 0 1 28.5 6zM46.804 24.02L38 26v-3a2.006 2.006 0 0 0-2-2H6a2.006 2.006 0 0 0-2 2v1H2a2 2 0 0 0-2 2v.6a2 2 0 0 0 2 2h2V39a2.006 2.006 0 0 0 2 2h30a2.006 2.006 0 0 0 2-2v-4l8.804 1.98A1 1 0 0 0 48 36V25a1 1 0 0 0-1.196-.98zM18 34a2.006 2.006 0 0 1-2 2h-6a2.006 2.006 0 0 1-2-2v-2a2.006 2.006 0 0 1 2-2h6a2.006 2.006 0 0 1 2 2z" /></g></svg>
