<?xml version="1.0" encoding="UTF-8"?>
<svg xmlns="http://www.w3.org/2000/svg" id="financing" viewBox="0 0 48 30"><g fill="currentColor" data-name="Layer 2"><path d="M47 0H6a1.003 1.003 0 0 0-1 1v6h16.02a6.505 6.505 0 0 1 10.96 0H42a3.009 3.009 0 0 1 3 3v11h2a1.003 1.003 0 0 0 1-1V1a1.003 1.003 0 0 0-1-1z" /><path d="M42 9H1a1.003 1.003 0 0 0-1 1v19a1.003 1.003 0 0 0 1 1h41a1.003 1.003 0 0 0 1-1V10a1.003 1.003 0 0 0-1-1zM6 23a2.995 2.995 0 0 1-1-5.82A2.772 2.772 0 0 1 6 17a2.996 2.996 0 0 1 3 3 2.775 2.775 0 0 1-.18 1A2.968 2.968 0 0 1 6 23zm15.5 3a6.49 6.49 0 0 1-6.32-5 6.169 6.169 0 0 1-.18-1.5 6.487 6.487 0 0 1 5.53-6.42 5.22 5.22 0 0 1 .97-.08 6.489 6.489 0 0 1 6.5 6.5 6.169 6.169 0 0 1-.18 1.5 6.49 6.49 0 0 1-6.32 5zM37 22.5a2.996 2.996 0 1 1 2.6-1.5 2.996 2.996 0 0 1-2.6 1.5z" /></g></svg>
