<?xml version="1.0" encoding="UTF-8"?>
<svg xmlns="http://www.w3.org/2000/svg" id="fishery" viewBox="0 0 47.994 21.996"><path fill="currentColor" d="M47.507 9.999a35.328 35.328 0 0 0-18.96-6.92l-4.56-2.63a3.31 3.31 0 0 0-4.95 3.3 35.329 35.329 0 0 0-10.21 3.86l-5.68-1.52a2.5 2.5 0 0 0-1.3 4.83l.32.08-.32.08a2.5 2.5 0 0 0 1.3 4.83l5.68-1.52a35.344 35.344 0 0 0 10.3 3.88 2.898 2.898 0 0 0 4.83 2.88l2.16-2.15h.21a35.451 35.451 0 0 0 21.18-7 1.27 1.27 0 0 0 0-2zm-10.51 1a2 2 0 1 1 2-2 2.006 2.006 0 0 1-2 2z" data-name="Layer 2" /></svg>
