<?xml version="1.0" encoding="UTF-8"?>
<svg xmlns="http://www.w3.org/2000/svg" id="flour" viewBox="0 0 32 48"><g fill="currentColor" data-name="Layer 2"><path d="M28 7H4a4.012 4.012 0 0 0-4 4v33a4.012 4.012 0 0 0 4 4h24a4.012 4.012 0 0 0 4-4V11a4.012 4.012 0 0 0-4-4zm-14 5a2.006 2.006 0 0 1 2-2 2.015 2.015 0 0 1 2 2v3a2 2 0 0 1-4 0zm-5 4h.2a4.801 4.801 0 0 1 4.8 4.8V23h-.2A4.801 4.801 0 0 1 9 18.2zm0 8h.2a4.801 4.801 0 0 1 4.8 4.8V31h-.2A4.801 4.801 0 0 1 9 26.2zm0 10.2V32h.2a4.801 4.801 0 0 1 4.8 4.8V39h-.2A4.801 4.801 0 0 1 9 34.2zm9 8.8a2 2 0 0 1-4 0v-1.5a.495.495 0 0 1 .5-.5h3a.495.495 0 0 1 .5.5zm5-8.8a4.801 4.801 0 0 1-4.8 4.8H18v-2.2a4.801 4.801 0 0 1 4.8-4.8h.2zm0-8a4.801 4.801 0 0 1-4.8 4.8H18v-2.2a4.801 4.801 0 0 1 4.8-4.8h.2zm0-8a4.801 4.801 0 0 1-4.8 4.8H18v-2.2a4.801 4.801 0 0 1 4.8-4.8h.2zM4.5 5h23a2.5 2.5 0 0 0 0-5h-23a2.5 2.5 0 0 0 0 5z" /></g></svg>
