<?xml version="1.0" encoding="UTF-8"?>
<svg xmlns="http://www.w3.org/2000/svg" id="food-warehouse" viewBox="0 0 32 48"><g fill="currentColor" data-name="Layer 2"><path d="M30 6H2a2.006 2.006 0 0 0-2 2v22h32V8a2.006 2.006 0 0 0-2-2zm-19 5a1 1 0 0 1 2 0v3a1 1 0 0 1-2 0zm4 17h-.13A3.867 3.867 0 0 1 11 24.13V23h.13A3.867 3.867 0 0 1 15 26.87zm0-6h-.13A3.867 3.867 0 0 1 11 18.13V17h.13A3.867 3.867 0 0 1 15 20.87zm1.02-5h-.04a.982.982 0 0 1-.98-.98V8.98a.982.982 0 0 1 .98-.98h.04a.982.982 0 0 1 .98.98v7.04a.982.982 0 0 1-.98.98zM21 24.13A3.867 3.867 0 0 1 17.13 28H17v-1.13A3.867 3.867 0 0 1 20.87 23H21zm0-6A3.867 3.867 0 0 1 17.13 22H17v-1.13A3.867 3.867 0 0 1 20.87 17H21zM21 14a1 1 0 0 1-2 0v-3a1 1 0 0 1 2 0zM6 4h20a2 2 0 0 0 0-4H6a2 2 0 0 0 0 4zM0 48h12V38a2.006 2.006 0 0 1 2-2h4a2.006 2.006 0 0 1 2 2v10h12V32H0z" /></g></svg>
