<?xml version="1.0" encoding="UTF-8"?>
<svg xmlns="http://www.w3.org/2000/svg" id="forced-entry" viewBox="0 0 48 48"><g fill="currentColor" data-name="Layer 2"><path d="M45.25 0H2.75A2.748 2.748 0 0 0 0 2.75v28.5A2.748 2.748 0 0 0 2.75 34h14.51a15.196 15.196 0 0 1 .56-2c.12-.34.25-.67.39-1 .14-.34.3-.67.47-1h-3.99a8.406 8.406 0 0 1 .38-7.51l5.11 5.11 1.43 1.43a10.21 10.21 0 0 0-.65.97c-.2.32-.39.66-.56 1a9.904 9.904 0 0 0-.45 1 12.952 12.952 0 0 0-.65 2 14.742 14.742 0 0 0 3.21 13.26 2.07 2.07 0 0 0 1.46.73.757.757 0 0 0 .15.01 2.116 2.116 0 0 0 1.4-.52 2.14 2.14 0 0 0 .22-3.02A10.733 10.733 0 0 1 23.75 34a10.164 10.164 0 0 1 2.53-4l.75-.75.66-.66.46-.46.63-.63 2.49 2.5h-2.12s-.533.444-1.024.935a9.419 9.419 0 0 0-.325.348A9.795 9.795 0 0 0 25.89 34h19.36A2.748 2.748 0 0 0 48 31.25V2.75A2.748 2.748 0 0 0 45.25 0zM15.69 15.26l-.23.2c-4.59 4.35-6.38 9.77-5.02 14.54H4V4h14.77a.435.435 0 0 0 .04.07c2.33 3.69 1.28 7.45-3.12 11.19zM44 30h-7.28l-6.6-6.6-8.57-8.57c2.52-3.49 3.12-7.24 1.69-10.83H44z" /><circle cx="10" cy="12" r="4" /></g></svg>
