<?xml version="1.0" encoding="UTF-8"?>
<svg xmlns="http://www.w3.org/2000/svg" id="forced-recruitment" viewBox="0 0 48 48"><g fill="currentColor" data-name="Layer 2"><circle cx="4" cy="4" r="4" /><path d="M38.75 28.46l3.92-7.75a4.866 4.866 0 0 0-2.15-6.52l-1.26-.63-1.3-.66a1.732 1.732 0 0 0-.38-.14 14.276 14.276 0 0 0-16.83 3.88l-2.13-2.46A15.984 15.984 0 0 0 6.86 9a6.831 6.831 0 0 0-6.44 9.1c.02.05.04.09.06.14l2.88 6.6c.21.76.72 2.41 1.52 4.91a68.321 68.321 0 0 1 2.87 13.82l.26 2.63A1.997 1.997 0 0 0 10 48a1.406 1.406 0 0 0 .2-.01 1.999 1.999 0 0 0 1.79-2.19l-.26-2.62A72.312 72.312 0 0 0 9.14 30h3.98A31.62 31.62 0 0 1 15 42a1.995 1.995 0 0 0 1.5 1.93l2.43-4.76a35.274 35.274 0 0 0-3.62-14.32c-.4-.92-.82-1.87-1.24-2.91l-3.38-8.31a11.91 11.91 0 0 1 4.94 3.2l3.85 4.48a1.989 1.989 0 0 0 1.35.68c.09 0 .16.01.24.01a2.069 2.069 0 0 0 1.85-1.13 9.667 9.667 0 0 1 8.01-5.22 8.562 8.562 0 0 1 1.13-.02 9.726 9.726 0 0 1 1.07.1l-14.9 29.22a2.08 2.08 0 0 0 .91 2.81 2.018 2.018 0 0 0 .95.23 2.093 2.093 0 0 0 1.86-1.14l9.04-17.73.89.45.9.45 3.266 1.658c.015.01.031.017.046.027a.235.235 0 0 1 .068.045l.053.025a10.143 10.143 0 0 1 3.475 13.164 2.087 2.087 0 1 0 3.704 1.924 14.318 14.318 0 0 0-4.642-18.404zM47.798 7.75a4 4 0 1 0-2.548 5.05 4 4 0 0 0 2.548-5.05z" /></g></svg>
