<?xml version="1.0" encoding="UTF-8"?>
<svg xmlns="http://www.w3.org/2000/svg" id="fund" viewBox="0 0 35.993 48"><g fill="currentColor" data-name="Layer 2"><path d="M34.846 28.49L26.996 13h-18l-7.85 15.49a13.958 13.958 0 0 0 2.83 15.28A13.815 13.815 0 0 0 13.996 48h8a13.815 13.815 0 0 0 10.02-4.23 13.958 13.958 0 0 0 2.83-15.28zM18.996 38v1.5a1.5 1.5 0 0 1-3 0V38h-.5a1.5 1.5 0 0 1 0-3h2.95a1.5 1.5 0 1 0 0-3h-.89a4.493 4.493 0 0 1-1.56-8.73V21.5a1.5 1.5 0 0 1 3 0V23h1.5a1.5 1.5 0 0 1 0 3h-2.94a1.501 1.501 0 1 0 0 3h.89a4.515 4.515 0 0 1 .55 9zM8.993 11h8l-1.649-7.434A2 2 0 0 0 13.392 2h-5.4a1 1 0 0 0-.975 1.217zM22.996 11h3.997l1.984-9.82a1.005 1.005 0 0 0-.99-1.18h-2.99a2.03 2.03 0 0 0-2.004 2 2.018 2.018 0 0 0-1.99-2h-3a1.005 1.005 0 0 0-.99 1.18l1.98 9.82z" /></g></svg>
