<?xml version="1.0" encoding="UTF-8"?>
<svg xmlns="http://www.w3.org/2000/svg" id="gap-analysis" viewBox="0 0 48 48"><g fill="currentColor" data-name="Layer 2"><path d="M3 0a3 3 0 0 0-3 3v42a3 3 0 0 0 6 0V3a3 3 0 0 0-3-3zM45 0a3 3 0 0 0-3 3v42a3 3 0 0 0 6 0V3a3 3 0 0 0-3-3zM32.121 14.879a3 3 0 0 0-4.242 4.242L29.758 21H18.242l1.88-1.879a3 3 0 0 0-4.243-4.242l-7 7a2.999 2.999 0 0 0 0 4.242l7 7a3 3 0 0 0 4.242-4.242L18.242 27h11.516l-1.88 1.879a3 3 0 1 0 4.243 4.242l7-7a2.999 2.999 0 0 0 0-4.242z" /></g></svg>
