<?xml version="1.0" encoding="UTF-8"?>
<svg xmlns="http://www.w3.org/2000/svg" id="gas-station" viewBox="0 0 43.99 48"><g fill="currentColor" data-name="Layer 2"><path d="M23.5 45h-22a1.5 1.5 0 0 0 0 3h22a1.5 1.5 0 0 0 0-3zM43.407 4.593a1.99 1.99 0 0 0-2.814 0l-6 6A1.99 1.99 0 0 0 34.01 12v25.5a1.51 1.51 0 0 1-3.02 0V27A6.998 6.998 0 0 0 24 20.01V2a2.006 2.006 0 0 0-2-2H3a2.006 2.006 0 0 0-2 2v39a2.006 2.006 0 0 0 2 2h19a2.006 2.006 0 0 0 2-2V23.99A3.014 3.014 0 0 1 27.01 27v10.5a5.49 5.49 0 1 0 10.98 0V15.99H41a1.99 1.99 0 0 0 0-3.98h-2.195l4.602-4.603a1.99 1.99 0 0 0 0-2.814zM21 17a1.003 1.003 0 0 1-1 1H5a1.003 1.003 0 0 1-1-1V5a1.003 1.003 0 0 1 1-1h15a1.003 1.003 0 0 1 1 1z" /></g></svg>
