<?xml version="1.0" encoding="UTF-8"?>
<svg xmlns="http://www.w3.org/2000/svg" id="gender-based-violence" width="42" height="48" viewBox="0 0 42 48"><g id="Layer_2" data-name="Layer 2"><g id="Icons"><path d="M41.96045,6.6084c-.01184-.05994-.03418-.11548-.05127-.17334a1.99742,1.99742,0,0,0-.062-.19959,1.96364,1.96364,0,0,0-.103-.19568c-.02734-.04956-.04883-.10107-.08057-.14843a2.01093,2.01093,0,0,0-.55493-.55493c-.04736-.03174-.09887-.05323-.14843-.08057a1.96364,1.96364,0,0,0-.19568-.103,1.99742,1.99742,0,0,0-.19959-.062c-.05786-.01709-.1134-.03943-.17334-.05127A1.99416,1.99416,0,0,0,40,5H33a2,2,0,0,0,0,4h2.17188l-4.22974,4.22974A11.981,11.981,0,0,0,12,23,12.20025,12.20025,0,0,0,22,35v4H19a2,2,0,0,0,0,4h3v3a2,2,0,0,0,4,0V43h3a2,2,0,0,0,0-4H26V35A12.20025,12.20025,0,0,0,36,23a11.92205,11.92205,0,0,0-2.22974-6.94214L38,11.82812V14a2,2,0,0,0,4,0V7A1.99416,1.99416,0,0,0,41.96045,6.6084ZM24,31a8,8,0,1,1,8-8A8.00917,8.00917,0,0,1,24,31Z" fill="currentColor" /><path d="M6.41406,3.58594A1.99978,1.99978,0,0,0,3.58594,6.41406l4,4a1.99978,1.99978,0,1,0,2.82812-2.82812Z" fill="currentColor" /><path d="M7,13.00488H2a2,2,0,0,0,0,4H7a2,2,0,0,0,0-4Z" fill="currentColor" /><path d="M15,9a2.0001,2.0001,0,0,0,2-2V2a2,2,0,0,0-4,0V7A2.0001,2.0001,0,0,0,15,9Z" fill="currentColor" /></g></g></svg>
