<?xml version="1.0" encoding="UTF-8"?>
<svg xmlns="http://www.w3.org/2000/svg" id="gender" width="30" height="43" viewBox="0 0 30 43"><g id="Layer_2" data-name="Layer 2"><g id="Icons"><path d="M29.96045,1.6084c-.01184-.05994-.03418-.11548-.05127-.17334a1.99742,1.99742,0,0,0-.062-.19959,1.96364,1.96364,0,0,0-.103-.19568c-.02734-.04956-.04883-.10107-.08057-.14843a2.01093,2.01093,0,0,0-.55493-.55493c-.04736-.03174-.09887-.05323-.14843-.08057a1.96364,1.96364,0,0,0-.19568-.103,1.99742,1.99742,0,0,0-.19959-.062c-.05786-.01709-.1134-.03943-.17334-.05127A1.99416,1.99416,0,0,0,28,0H21a2,2,0,0,0,0,4h2.17188L18.94214,8.22974A11.981,11.981,0,0,0,0,18,12.20025,12.20025,0,0,0,10,30v4H7a2,2,0,0,0,0,4h3v3a2,2,0,0,0,4,0V38h3a2,2,0,0,0,0-4H14V30A12.20025,12.20025,0,0,0,24,18a11.92205,11.92205,0,0,0-2.22974-6.94214L26,6.82812V9a2,2,0,0,0,4,0V2A1.99416,1.99416,0,0,0,29.96045,1.6084ZM12,26a8,8,0,1,1,8-8A8.00917,8.00917,0,0,1,12,26Z" fill="currentColor" /></g></g></svg>
