<?xml version="1.0" encoding="UTF-8"?>
<svg xmlns="http://www.w3.org/2000/svg" id="handwashing" viewBox="0 0 48 48"><path fill="currentColor" d="M18.1 8H0V0h18.1C24.7 0 30 5.3 30 11.9V14h1c.6 0 1 .4 1 1v3c0 .6-.4 1-1 1H21c-.6 0-1-.4-1-1v-3c0-.6.4-1 1-1h1v-2.1C22 9.7 20.3 8 18.1 8zM33 29.5c0 1.4 1.1 2.5 2.5 2.5s2.5-1.1 2.5-2.5-1.1-2.5-2.5-2.5-2.5 1.1-2.5 2.5zm-2-7c0 .8.7 1.5 1.5 1.5s1.5-.7 1.5-1.5-.7-1.5-1.5-1.5-1.5.7-1.5 1.5zM41.5 35h-9c-1.4 0-2.5 1.1-2.5 2.5s1.1 2.5 2.5 2.5h4c.8 0 1.5.7 1.5 1.5s-.7 1.5-1.5 1.5h-6.4c-.4 0-.8-.2-1.1-.4l-9.3-9.8c-1.1-1.1-2.9-1.1-3.9 0l-.2.2c-.9 1.2-.8 2.8.3 3.8l10.6 10.3c.5.5 1.2.8 2 .8h13.1c3.6 0 6.5-2.9 6.5-6.5s-3-6.4-6.6-6.4zM17 30c1.1 0 2-.9 2-2s-.9-2-2-2-2 .9-2 2 .9 2 2 2zm8.9-8c-.1.1-.1.1 0 0-.9 1.2-3.7 5.2-3.7 7.1 0 2.1 1.7 3.9 3.9 3.9 2.1 0 3.9-1.7 3.9-3.9 0-1.9-2.9-5.9-3.7-7-.2-.1-.3-.1-.4-.1z" /></svg>
