<?xml version="1.0" encoding="UTF-8"?>
<svg xmlns="http://www.w3.org/2000/svg" id="harassment-intimidation" viewBox="0 0 48 47.999"><g fill="currentColor" data-name="Layer 2"><path d="M41.896 29H41a2 2 0 0 0-2 2v9.738l-4.505-5.068a2 2 0 0 0-3.243.358l-5 9a2 2 0 1 0 3.496 1.943l3.63-6.535 6.127 6.892c.014.016.03.026.044.041a2.017 2.017 0 0 0 .15.139c.05.041.096.085.148.12.052.038.108.068.163.1.057.032.113.066.173.093.057.026.118.044.178.064a1.92 1.92 0 0 0 .188.059c.06.014.122.02.183.028a2.058 2.058 0 0 0 .209.021c.02.001.039.006.06.006h5a2 2 0 0 0 2-2V35.104a6.104 6.104 0 0 0-6.105-6.105z" /><circle cx="35.5" cy="25.499" r="3.5" /><path d="M13 10C5.468 10 0 15.045 0 22a2 2 0 0 0 4 0 7.532 7.532 0 0 1 4-6.802v13.906c0 .029.007.055.009.084-.002.028-.009.055-.009.084v16.727a2 2 0 0 0 4 0V31h2v15a2 2 0 0 0 4 0V29.272c0-.029-.007-.056-.009-.084.002-.029.009-.055.009-.084V15.198a7.532 7.532 0 0 1 4 6.801 2 2 0 0 0 4 0c0-6.953-5.468-12-13-12z" /><circle cx="19" cy="4.999" r="4" /><path d="M33 8.5a1.5 1.5 0 0 0 1.5 1.5h4a1.5 1.5 0 0 0 0-3h-4A1.5 1.5 0 0 0 33 8.5zM29.83 6.841a1.5 1.5 0 0 0 2.012-.67l2-4A1.5 1.5 0 1 0 31.158.827l-2 4a1.5 1.5 0 0 0 .671 2.013zM31.158 16.17a1.5 1.5 0 1 0 2.684-1.342l-2-4a1.5 1.5 0 1 0-2.684 1.342z" /></g></svg>
