<?xml version="1.0" encoding="UTF-8"?>
<svg xmlns="http://www.w3.org/2000/svg" id="health-worker" viewBox="0 0 34 44"><path fill="currentColor" d="M34 38v6H0v-6c0-6 3.5-11.4 9-13.7V31H8c-2.2 0-4 1.8-4 4v6c0 .6.4 1 1 1h2c.6 0 1-.4 1-1s-.4-1-1-1H6v-5c0-1.1.9-2 2-2h4c1.1 0 2 .9 2 2v5h-1c-.6 0-1 .4-1 1s.4 1 1 1h2c.6 0 1-.4 1-1v-6c0-2.2-1.8-4-4-4h-1v-7.4c1.3-.4 2.6-.6 4-.6h4c1.4 0 2.7.2 4 .6v7.6c-.9.3-1.5 1-1.8 1.8-.6 1.6.3 3.3 1.8 3.8s3.3-.3 3.8-1.8-.3-3.3-1.8-3.8v-6.9c5.5 2.3 9 7.7 9 13.7zM17 20c5.5 0 10-4.5 10-10S22.5 0 17 0 7 4.5 7 10s4.5 10 10 10z" /></svg>
