<?xml version="1.0" encoding="UTF-8"?>
<svg xmlns="http://www.w3.org/2000/svg" id="health-facility-destroyed" viewBox="0 0 48 48"><g fill="currentColor" data-name="Layer 2"><path d="M47.903 24.046a.997.997 0 0 0-.272-.346L32 11 16.37 23.7a1.001 1.001 0 0 0-.37.776V48h32V24.476a.999.999 0 0 0-.097-.43zM41 35a1 1 0 0 1-1 1h-5v5a1 1 0 0 1-1 1h-4a1 1 0 0 1-1-1v-5h-5a1 1 0 0 1-1-1v-4a1 1 0 0 1 1-1h5v-5a1 1 0 0 1 1-1h4a1 1 0 0 1 1 1v5h5a1 1 0 0 1 1 1zM20 10a10 10 0 1 0-10 10 10 10 0 0 0 10-10zm-5.293 3.293a1 1 0 1 1-1.414 1.414L10 11.414l-3.293 3.293a1 1 0 0 1-1.414-1.414L8.586 10 5.293 6.707a1 1 0 0 1 1.414-1.414L10 8.586l3.293-3.293a1 1 0 0 1 1.414 1.414L11.414 10z" /></g></svg>
