<?xml version="1.0" encoding="UTF-8"?>
<svg xmlns="http://www.w3.org/2000/svg" id="heavy-rain" viewBox="0 0 47.98 40"><g fill="currentColor" data-name="Layer 2"><path d="M11.229 31a1.767 1.767 0 0 0-1.25.518l-5.465 5.464a1.768 1.768 0 0 0 2.5 2.5l5.465-5.464A1.768 1.768 0 0 0 11.229 31zM24.236 31a1.767 1.767 0 0 0-1.25.518l-5.465 5.464a1.768 1.768 0 0 0 2.5 2.5l5.465-5.464A1.768 1.768 0 0 0 24.236 31zM37.236 31a1.767 1.767 0 0 0-1.25.518l-5.465 5.464a1.768 1.768 0 0 0 2.5 2.5l5.465-5.464A1.768 1.768 0 0 0 37.236 31zM38.98 9.01a8.734 8.734 0 0 0-3.16.58l-.01.005a11.49 11.49 0 0 0-22.823 1.756 5.977 5.977 0 0 0-7.91 6.69l-.007-.001a3.818 3.818 0 0 0-.59-.04 4.5 4.5 0 0 0 0 9h34.5a9.003 9.003 0 0 0 8.83-7.24 9.296 9.296 0 0 0 .17-1.76 8.992 8.992 0 0 0-9-8.99z" /></g></svg>
