<?xml version="1.0" encoding="UTF-8"?>
<svg xmlns="http://www.w3.org/2000/svg" id="helicopter" viewBox="0 0 48 35"><path fill="currentColor" d="M46.5 3a1.5 1.5 0 0 0 0-3h-38a1.5 1.5 0 0 0 0 3H26v7H8.74a4.503 4.503 0 1 0-.261 3.592L17 17v2h.007c0 .044-.007.087-.007.132a8.884 8.884 0 0 0 8.482 8.846c.02.003.038.01.058.012.13.01.25.01.38.01H27v4h-8.577A1.423 1.423 0 0 0 17 33.423v.154A1.423 1.423 0 0 0 18.423 35H40.77a1.41 1.41 0 0 0 .45-.073l4.808-1.603a1.423 1.423 0 1 0-.9-2.7l-3.908 1.303a1.41 1.41 0 0 1-.45.073H39v-4.06A8.998 8.998 0 0 0 38.01 10H29V3zm-42 10A1.5 1.5 0 1 1 6 11.5 1.498 1.498 0 0 1 4.5 13zM30 32v-4h6v4zm14-13h-7v-6a7.763 7.763 0 0 1 .97.06c3.41.4 6.03 2.91 6.03 5.94z" data-name="Layer 2" /></svg>
