<?xml version="1.0" encoding="UTF-8"?>
<svg xmlns="http://www.w3.org/2000/svg" id="hindu-temple" viewBox="0 0 48 48"><g fill="currentColor" data-name="Layer 2"><path d="M46.5 45h-45a1.5 1.5 0 0 0 0 3h45a1.5 1.5 0 0 0 0-3zM5.5 43h37a1.5 1.5 0 0 0 0-3h-37a1.5 1.5 0 0 0 0 3zM28 6h-2V2a2 2 0 0 0-4 0v4h-2c-2.92 3.2-5.16 7.14-6.25 14h20.5C33.16 13.14 30.92 9.2 28 6zM21 28c0-1.66 3-3 3-3s3 1.34 3 3v10h8v-7a76.198 76.198 0 0 0-.47-9H13.47a76.198 76.198 0 0 0-.47 9v7h8zM42 14.5a2.5 2.5 0 0 0-5 0V20h5zM37 22h5v16h-5zM11 14.5a2.5 2.5 0 0 0-5 0V20h5zM6 22h5v16H6z" /></g></svg>
