<?xml version="1.0" encoding="UTF-8"?>
<svg xmlns="http://www.w3.org/2000/svg" id="hotel" viewBox="0 0 32 48"><g fill="currentColor" data-name="Layer 2"><path d="M30 6H2a2.006 2.006 0 0 0-2 2v22h32V8a2.006 2.006 0 0 0-2-2zm-19 7a2 2 0 1 1-2 2 2.006 2.006 0 0 1 2-2zm18 11.5a1.5 1.5 0 0 1-3 0V23H6v1.5a1.5 1.5 0 0 1-3 0v-13a1.5 1.5 0 0 1 3 0V20h23zm0-9.36A1.857 1.857 0 0 1 27.14 17h-9.28A1.857 1.857 0 0 1 16 15.14v-.28A1.857 1.857 0 0 1 17.86 13h9.28A1.857 1.857 0 0 1 29 14.86zM6 4h20a2 2 0 0 0 0-4H6a2 2 0 0 0 0 4zM0 48h12V38a2.006 2.006 0 0 1 2-2h4a2.006 2.006 0 0 1 2 2v10h12V32H0z" /></g></svg>
