<?xml version="1.0" encoding="UTF-8"?>
<svg xmlns="http://www.w3.org/2000/svg" id="house-lockdown" viewBox="0 0 48 48"><path fill="currentColor" d="M10 5a3.009 3.009 0 0 0-3 3h6a3.009 3.009 0 0 0-3-3zM47.82 22.85L33.64 10.23a.997.997 0 0 0-1.28 0L18.18 22.85a.527.527 0 0 0-.18.38V48h11V38a2.006 2.006 0 0 1 2-2h4a2.006 2.006 0 0 1 2 2v10h11V23.23a.527.527 0 0 0-.18-.38z" /><path fill="currentColor" d="M10 0a10 10 0 1 0 10 10A10.004 10.004 0 0 0 10 0zm5 14a2.006 2.006 0 0 1-2 2H7a2.006 2.006 0 0 1-2-2V8a5 5 0 0 1 10 0z" /><rect width="4" height="4" x="8" y="10" fill="currentColor" rx="1" /></svg>
