<?xml version="1.0" encoding="UTF-8"?>
<svg xmlns="http://www.w3.org/2000/svg" id="house-destroyed" viewBox="0 0 48 48"><g fill="currentColor" data-name="Layer 2"><path d="M10 0a10 10 0 1 0 10 10A10.004 10.004 0 0 0 10 0zm4.71 13.29a1.008 1.008 0 0 1 0 1.42 1.014 1.014 0 0 1-1.42 0L10 11.42l-3.29 3.29a1.014 1.014 0 0 1-1.42 0 1.008 1.008 0 0 1 0-1.42L8.58 10 5.29 6.71a1.004 1.004 0 0 1 1.42-1.42L10 8.58l3.29-3.29a1.004 1.004 0 1 1 1.42 1.42L11.42 10zM47.82 22.85L33.64 10.232a1 1 0 0 0-1.28 0L18.18 22.85a.528.528 0 0 0-.18.38V48h11V38a2 2 0 0 1 2-2h4a2 2 0 0 1 2 2v10h11V23.23a.528.528 0 0 0-.18-.38z" /></g></svg>
