<?xml version="1.0" encoding="UTF-8"?>
<svg xmlns="http://www.w3.org/2000/svg" id="house-not-affected" viewBox="0 0 48 48"><g fill="currentColor" data-name="Layer 2"><path d="M10 0a10 10 0 1 0 10 10A10.004 10.004 0 0 0 10 0zm5.65 7.76l-7 6A1.007 1.007 0 0 1 8 14a1.024 1.024 0 0 1-.71-.29l-3-3a1.004 1.004 0 0 1 1.42-1.42l2.34 2.35 6.3-5.4a1 1 0 0 1 1.3 1.52zM47.82 22.85L33.64 10.232a1 1 0 0 0-1.28 0L18.18 22.85a.528.528 0 0 0-.18.38V48h11V38a2 2 0 0 1 2-2h4a2 2 0 0 1 2 2v10h11V23.23a.528.528 0 0 0-.18-.38z" /></g></svg>
