<?xml version="1.0" encoding="UTF-8"?>
<svg xmlns="http://www.w3.org/2000/svg" id="humanitarian-programme-cycle" viewBox="0 0 47.997 48"><g fill="currentColor" data-name="Layer 2"><path d="M38.099 32.12l-.19-.24a16.022 16.022 0 0 1-9.07 7.37 14.812 14.812 0 0 1-1.77.45h-.01a14.965 14.965 0 0 1-2.34.28l.53-.42a2 2 0 0 0-1.25-3.56 1.969 1.969 0 0 0-1.25.44l-3.54 2.83-1.46 1.17a2.007 2.007 0 0 0-.75 1.56 1.982 1.982 0 0 0 .17.8 2.146 2.146 0 0 0 .58.76l5 4a1.969 1.969 0 0 0 1.25.44 2 2 0 0 0 1.25-3.56l-.57-.46a15.462 15.462 0 0 0 2.05-.17c.54-.07 1.08-.17 1.61-.29a20.036 20.036 0 0 0 13-9.57 4.876 4.876 0 0 1-3.24-1.83zM9.898 15.88l.19.24a16.021 16.021 0 0 1 9.07-7.37 14.8 14.8 0 0 1 1.77-.45h.01a14.965 14.965 0 0 1 2.34-.28l-.53.42a2 2 0 0 0 1.25 3.56 1.969 1.969 0 0 0 1.25-.44l3.54-2.83 1.46-1.17a2.007 2.007 0 0 0 .75-1.56 1.982 1.982 0 0 0-.17-.8 2.145 2.145 0 0 0-.58-.76l-5-4a1.969 1.969 0 0 0-1.25-.44 2 2 0 0 0-1.25 3.56l.57.46a15.452 15.452 0 0 0-2.05.17c-.54.07-1.08.17-1.61.29a20.027 20.027 0 0 0-13.02 9.6 4.874 4.874 0 0 1 3.26 1.8zM8.748 28.84a16.326 16.326 0 0 1-.73-4.12l.42.53a1.99 1.99 0 0 0 1.56.75 1.969 1.969 0 0 0 1.25-.44 2.001 2.001 0 0 0 .31-2.81l-2.83-3.54-1.17-1.46a1.999 1.999 0 0 0-1.56-.71 2.053 2.053 0 0 0-.81.16 1.855 1.855 0 0 0-.75.55l-4 5a2.001 2.001 0 0 0 .31 2.81 1.969 1.969 0 0 0 1.25.44 1.99 1.99 0 0 0 1.56-.75l.46-.57a15.483 15.483 0 0 0 .17 2.05c.07.54.17 1.08.29 1.61a20.036 20.036 0 0 0 9.57 13 4.876 4.876 0 0 1 1.83-3.24l.24-.19a16.02 16.02 0 0 1-7.37-9.07zM47.248 22.44a1.969 1.969 0 0 0-1.25-.44 1.99 1.99 0 0 0-1.56.75l-.46.57a15.484 15.484 0 0 0-.17-2.05c-.07-.54-.17-1.08-.29-1.61a20.036 20.036 0 0 0-9.57-13 4.876 4.876 0 0 1-1.83 3.24l-.24.19a16.02 16.02 0 0 1 7.37 9.07 16.326 16.326 0 0 1 .73 4.12l-.42-.53a1.99 1.99 0 0 0-1.56-.75 1.969 1.969 0 0 0-1.25.44 2.001 2.001 0 0 0-.31 2.81l2.83 3.54 1.17 1.46a2.007 2.007 0 0 0 1.56.75 1.98 1.98 0 0 0 .8-.17 2.142 2.142 0 0 0 .76-.58l4-5a2.001 2.001 0 0 0-.31-2.81z" /></g></svg>
