<?xml version="1.0" encoding="UTF-8"?>
<svg xmlns="http://www.w3.org/2000/svg" id="humanitarian-access" viewBox="0 0 48 48"><g fill="currentColor" data-name="Layer 2"><path d="M43.42 32H43v-3a5.002 5.002 0 0 0-5-5h-5v-2.99A3.013 3.013 0 0 0 29.99 18H3.01A3.013 3.013 0 0 0 0 21.01V44h5a5.974 5.974 0 0 1 2.73-5.03A6 6 0 0 1 17 44h12a6 6 0 0 1 12 0h5.47A1.524 1.524 0 0 0 48 42.47v-5.89A4.58 4.58 0 0 0 43.42 32zM40 32h-7v-5h4.11A2.885 2.885 0 0 1 40 29.89z" /><path d="M11 40a4 4 0 1 0 4 4 3.989 3.989 0 0 0-4-4zM35 40a4 4 0 1 0 4 4 3.99 3.99 0 0 0-4-4zM1.5 10h41.252l-4.35 4.35a1.552 1.552 0 1 0 2.195 2.195l6.948-6.947a1.552 1.552 0 0 0 0-2.195L40.597.455a1.552 1.552 0 0 0-2.195 2.195L42.752 7H1.5a1.5 1.5 0 0 0 0 3z" /></g></svg>
