<?xml version="1.0" encoding="UTF-8"?>
<svg xmlns="http://www.w3.org/2000/svg" id="idp-refugee-camp" viewBox="0 0 48 47.998"><g fill="currentColor" data-name="Layer 2"><path d="M45.67 12.667a1.497 1.497 0 0 0-.59-1.01L30.5.337a1.65 1.65 0 0 0-2 0l-14.58 11.32a1.497 1.497 0 0 0-.59 1.01l-.77 5.7 3.1-2.4a4.643 4.643 0 0 1 5.68 0l5.66 4.4 2 1.55 2.69 2.09 1.28.99 2.92 2.27a4.413 4.413 0 0 1 1.7 2.73H48z" /><path d="M34.08 29.657L29 25.717l-.92-.72-1.08-.84-7.5-5.82a1.613 1.613 0 0 0-1-.34 1.593 1.593 0 0 0-1 .34l-5.51 4.28-9.07 7.04a1.497 1.497 0 0 0-.59 1.01L0 47.997h18v-9.71a.292.292 0 0 1 .3-.29.302.302 0 0 1 .26.15l5.44 9.85h13l-2.33-17.33a1.497 1.497 0 0 0-.59-1.01z" /></g></svg>
