<?xml version="1.0" encoding="UTF-8"?>
<svg xmlns="http://www.w3.org/2000/svg" id="infant" viewBox="0 0 24 40.74"><g fill="currentColor" data-name="Layer 2"><path d="M12 11C5.383 11 0 15.935 0 22a2 2 0 0 0 4 0 6.54 6.54 0 0 1 3-5.442V23h10v-6.442A6.54 6.54 0 0 1 20 22a2 2 0 0 0 4 0c0-6.065-5.383-11-12-11z" /><circle cx="12" cy="4.5" r="4.5" /><path d="M9.14 37.1a4.994 4.994 0 0 1 .378-8.435.245.245 0 0 0 .058-.389l-2.532-2.532a.257.257 0 0 0-.331-.028 8.993 8.993 0 0 0 .07 14.61 2.058 2.058 0 0 0 2.676-.22A1.995 1.995 0 0 0 9.14 37.1zM17.287 25.716a.257.257 0 0 0-.33.028l-2.533 2.532a.245.245 0 0 0 .058.389 4.994 4.994 0 0 1 .378 8.435A2 2 0 0 0 16 40.74a2.022 2.022 0 0 0 1.14-.36 8.993 8.993 0 0 0 .147-14.664z" /></g></svg>
