<?xml version="1.0" encoding="UTF-8"?>
<svg xmlns="http://www.w3.org/2000/svg" id="infant-formula" viewBox="0 0 18 48"><g fill="currentColor" data-name="Layer 2"><path d="M17 14H1a1.003 1.003 0 0 0-1 1v30a3.009 3.009 0 0 0 3 3h12a3.009 3.009 0 0 0 3-3V15a1.003 1.003 0 0 0-1-1zm-7 19H4a1 1 0 0 1 0-2h6a1 1 0 0 1 0 2zm0-5H4a1 1 0 0 1 0-2h6a1 1 0 0 1 0 2zm0-5H4a1 1 0 0 1 0-2h6a1 1 0 0 1 0 2zM17 9h-1l-5-5V2a2 2 0 0 0-4 0v2L2 9H1a1 1 0 0 0-1 1v1a1 1 0 0 0 1 1h16a1 1 0 0 0 1-1v-1a1 1 0 0 0-1-1z" /></g></svg>
