<?xml version="1.0" encoding="UTF-8"?>
<svg xmlns="http://www.w3.org/2000/svg" id="infected" viewBox="0 0 37 48"><path fill="currentColor" d="M0 0h14v7H0V0zm1 9h12v33c0 3.3-2.7 6-6 6s-6-2.7-6-6V9zm3 19h6V17H4v11zm33-.5c0 .8-.7 1.5-1.5 1.5h-.2l-2.9-.3c-.2.6-.5 1.1-.9 1.6l1.1 1.3c.5.6.5 1.6-.2 2.1-.6.5-1.6.5-2.1-.2l-1.1-1.3c-.6.3-1.3.6-2.1.7l-.1 1.8c-.1.8-.7 1.3-1.5 1.3h-.2c-.8-.1-1.4-.8-1.3-1.7l.2-1.6c-.9-.2-1.7-.6-2.4-1.1l-1.4 1.1c-.7.5-1.6.4-2.1-.3s-.4-1.6.3-2.1l1.3-1c-.4-.7-.6-1.4-.7-2.1l-1.9-.2c-.8-.1-1.4-.8-1.3-1.7.1-.8.8-1.4 1.7-1.3l1.6.2c.2-.8.6-1.6 1.1-2.3l-2-2.4c-.5-.6-.5-1.6.2-2.1.6-.5 1.6-.5 2.1.2l2 2.3c1-.5 2.1-.8 3.2-.9l.2-1.7c.1-.8.8-1.4 1.7-1.3.8.1 1.4.8 1.3 1.7l-.2 1.9c.7.3 1.4.8 2 1.4l.8-.6c.7-.5 1.6-.4 2.1.3s.4 1.6-.3 2.1l-.9.7c.3.7.5 1.5.5 2.3l2.7.3c.6 0 1.2.6 1.2 1.4zM26 24c0-1.1-.9-2-2-2s-2 .9-2 2 .9 2 2 2 2-.9 2-2zm3 4.5c0-.8-.7-1.5-1.5-1.5s-1.5.7-1.5 1.5.7 1.5 1.5 1.5 1.5-.7 1.5-1.5z" /></svg>
