<?xml version="1.0" encoding="UTF-8"?>
<svg xmlns="http://www.w3.org/2000/svg" id="infection-control" viewBox="0 0 44 44"><path fill="currentColor" d="M31.67 23.01l-2.68-.3a7.118 7.118 0 0 0-.5-2.31l.93-.71a1.504 1.504 0 1 0-1.84-2.38l-.78.61a7.125 7.125 0 0 0-2.03-1.35l.22-1.9a1.5 1.5 0 1 0-2.98-.34l-.2 1.68a6.972 6.972 0 0 0-3.17.85l-2-2.34a1.503 1.503 0 1 0-2.28 1.96l2.02 2.36a6.96 6.96 0 0 0-1.13 2.34l-1.58-.17a1.5 1.5 0 0 0-.34 2.98l1.78.2a6.934 6.934 0 0 0 .74 2.15l-1.27.97a1.504 1.504 0 0 0 1.84 2.38l1.4-1.08a7.198 7.198 0 0 0 2.38 1.15l-.19 1.57a1.496 1.496 0 0 0 1.32 1.66.936.936 0 0 0 .17.01 1.501 1.501 0 0 0 1.49-1.33l.21-1.78a6.985 6.985 0 0 0 2.06-.7l1.1 1.29a1.512 1.512 0 0 0 2.12.16 1.504 1.504 0 0 0 .16-2.12l-1.09-1.27a7.091 7.091 0 0 0 .92-1.58l2.86.32a1.052 1.052 0 0 0 .17.01 1.5 1.5 0 0 0 .17-2.99zM20 23a2 2 0 1 1 2-2 2.006 2.006 0 0 1-2 2zm3.5 4a1.5 1.5 0 1 1 1.5-1.5 1.498 1.498 0 0 1-1.5 1.5z" /><path fill="currentColor" d="M38 0H6a6.007 6.007 0 0 0-6 6v32a6.007 6.007 0 0 0 6 6h32a6.007 6.007 0 0 0 6-6V6a6.007 6.007 0 0 0-6-6zm2 38a2.003 2.003 0 0 1-2 2H6a2.003 2.003 0 0 1-2-2V6a2.003 2.003 0 0 1 2-2h32a2.003 2.003 0 0 1 2 2z" /></svg>
