<?xml version="1.0" encoding="UTF-8"?>
<svg xmlns="http://www.w3.org/2000/svg" id="information-management" viewBox="0 0 48 44.064"><g fill="currentColor" data-name="Layer 2"><path d="M2 8.017h4.317a6.007 6.007 0 0 0 11.334 0H46a2 2 0 0 0 0-4H17.651a6.006 6.006 0 0 0-11.334 0H2a2 2 0 0 0 0 4zM11.984 4a2.016 2.016 0 1 1-2.016 2.017A2.018 2.018 0 0 1 11.984 4zM46 36.049H25.683a6.006 6.006 0 0 0-11.334 0H2a2 2 0 0 0 0 4h12.349a6.007 6.007 0 0 0 11.334 0H46a2 2 0 0 0 0-4zm-25.984 4.015a2.016 2.016 0 1 1 2.016-2.015 2.018 2.018 0 0 1-2.016 2.015zM46 20.032h-4.317a6.007 6.007 0 0 0-11.334 0H2a2 2 0 0 0 0 4h28.349a6.006 6.006 0 0 0 11.334 0H46a2 2 0 0 0 0-4zm-9.984 4.017a2.016 2.016 0 1 1 2.016-2.017 2.018 2.018 0 0 1-2.016 2.017z" /></g></svg>
