<?xml version="1.0" encoding="UTF-8"?>
<svg xmlns="http://www.w3.org/2000/svg" id="information-technology" viewBox="0 0 48 48"><path fill="currentColor" d="M45.39 27a2.502 2.502 0 1 0 0-5H42v-4h3.39a2.502 2.502 0 1 0 0-5H42V8.07A1.071 1.071 0 0 0 40.93 7H36V2.61a2.502 2.502 0 1 0-5 0V7h-4V2.61a2.502 2.502 0 1 0-5 0V7h-4V2.61a2.502 2.502 0 1 0-5 0V7H8.07A1.071 1.071 0 0 0 7 8.07V13H2.61a2.502 2.502 0 1 0 0 5H7v4H2.61a2.502 2.502 0 1 0 0 5H7v4H2.61a2.502 2.502 0 1 0 0 5H7v4.93A1.071 1.071 0 0 0 8.07 42H13v3.39a2.502 2.502 0 1 0 5 0V42h4v3.39a2.502 2.502 0 1 0 5 0V42h4v3.39a2.502 2.502 0 1 0 5 0V42h4.93A1.071 1.071 0 0 0 42 40.93V36h3.39a2.502 2.502 0 1 0 0-5H42v-4zM36 31v4.36a.644.644 0 0 1-.64.64H13.64a.644.644 0 0 1-.64-.64V13.64a.644.644 0 0 1 .64-.64h21.72a.644.644 0 0 1 .64.64V31z" data-name="Layer 2" /></svg>
