<?xml version="1.0" encoding="UTF-8"?>
<svg xmlns="http://www.w3.org/2000/svg" id="injured" viewBox="0 0 28 48"><g fill="currentColor" data-name="Layer 2"><path d="M8.47 41.53A4.939 4.939 0 0 1 7 38a5.002 5.002 0 0 1 5-5h4.04a1.874 1.874 0 0 1 .34.03L19 18H6a6.005 6.005 0 0 0-6 6v20a3.999 3.999 0 0 0 4 4h14a3.999 3.999 0 0 0 4-4v-1H12a4.939 4.939 0 0 1-3.53-1.47z" /><path d="M9 38a3.005 3.005 0 0 0 3 3h3l1.04-6H12a2.996 2.996 0 0 0-3 3zM24.01 18L24 35v6h1a2.996 2.996 0 0 0 3-3V22a3.997 3.997 0 0 0-3.99-4z" /><circle cx="14" cy="7" r="7" /></g></svg>
