<?xml version="1.0" encoding="UTF-8"?>
<svg xmlns="http://www.w3.org/2000/svg" id="innovation" viewBox="0 0 48 48"><g fill="currentColor" data-name="Layer 2"><path d="M27.5 40h-7a1.5 1.5 0 0 0 0 3h7a1.5 1.5 0 1 0 0-3zM24 14a10.995 10.995 0 0 0-5 20.79V37a1 1 0 0 0 1 1h8a1 1 0 0 0 1-1v-2.21A10.995 10.995 0 0 0 24 14zM24 10a2 2 0 0 0 2-2V2a2 2 0 0 0-4 0v6a2 2 0 0 0 2 2zM8 22H2a2 2 0 0 0 0 4h6a2 2 0 0 0 0-4zM46 22h-6a2 2 0 0 0 0 4h6a2 2 0 0 0 0-4zM13.946 10.732L10.155 6.08a2 2 0 0 0-3.1 2.527l3.79 4.65a2 2 0 0 0 3.1-2.526zM40.66 5.794a2 2 0 0 0-2.815.287l-3.79 4.65a2 2 0 0 0 3.1 2.528l3.79-4.65a2 2 0 0 0-.286-2.815zM27 45h-6a1 1 0 0 0-1 1 2 2 0 0 0 2 2h4a2 2 0 0 0 2-2 1 1 0 0 0-1-1z" /></g></svg>
