<?xml version="1.0" encoding="UTF-8"?>
<svg xmlns="http://www.w3.org/2000/svg" id="insect-infestation" viewBox="0 0 47.992 47.989"><g fill="currentColor" data-name="Layer 2"><path d="M19.747 21.1l1.306 4.784a1.5 1.5 0 0 0 2.895-.79l-1.5-5.49a1.501 1.501 0 0 0-.866-.987L17 16.693v-3.531l3.722-2.047a1.502 1.502 0 0 0 .76-1.09l.5-3.3a1.5 1.5 0 0 0-2.966-.45l-.389 2.568-2.062 1.134a4.998 4.998 0 0 0-1.087-1.56l3.342-6.206A1.5 1.5 0 1 0 16.18.789l-3.388 6.29A4.973 4.973 0 0 0 12 7a4.972 4.972 0 0 0-.793.08L7.821.789A1.5 1.5 0 1 0 5.18 2.21l3.341 6.206a5.002 5.002 0 0 0-1.087 1.56L5.373 8.843l-.39-2.568a1.5 1.5 0 0 0-2.966.45l.5 3.3a1.502 1.502 0 0 0 .76 1.09l3.724 2.047v3.531l-4.582 1.924a1.501 1.501 0 0 0-.866.987l-1.5 5.49a1.5 1.5 0 1 0 2.895.79L4.254 21.1l2.747-1.153V20a5 5 0 1 0 10 0v-.053zM47.428 27.862a1.5 1.5 0 0 0-2.108.236l-1.621 2.029-2.353-.049a4.999 4.999 0 0 0-.161-1.893l5.997-3.705a1.5 1.5 0 0 0-1.576-2.552l-6.08 3.754a3.973 3.973 0 0 0-1.372-.792l.213-7.142a1.5 1.5 0 1 0-2.998-.089l-.21 7.046a5 5 0 0 0-1.72.808l-1.22-2.014.947-2.418a1.5 1.5 0 1 0-2.793-1.094l-1.217 3.108a1.497 1.497 0 0 0 .113 1.324l2.2 3.634-1.765 3.058-4.93-.624a1.5 1.5 0 0 0-1.243.423l-4.05 4.013a1.5 1.5 0 1 0 2.112 2.131l3.53-3.499 2.954.374-.027.046a5 5 0 0 0 1.83 6.83 5 5 0 0 0 6.83-1.83l.027-.046 1.8 2.372-1.263 4.806a1.5 1.5 0 1 0 2.9.763l1.45-5.513a1.496 1.496 0 0 0-.255-1.289l-3.005-3.957 1.766-3.058 4.247.088h.032a1.5 1.5 0 0 0 1.172-.563l2.083-2.608a1.5 1.5 0 0 0-.236-2.108z" /></g></svg>
