<?xml version="1.0" encoding="UTF-8"?>
<svg xmlns="http://www.w3.org/2000/svg" id="internally-displaced" viewBox="0 0 48 42.988"><g fill="currentColor" data-name="Layer 2"><path d="M47.545 20.39l-6.948-6.947a1.552 1.552 0 0 0-2.195 2.195l4.35 4.35H29.5a1.5 1.5 0 0 0 0 3h13.252l-4.35 4.35a1.552 1.552 0 1 0 2.195 2.195l6.948-6.947a1.552 1.552 0 0 0 0-2.195zM29.798 2.75A4 4 0 1 0 27.25 7.8a4 4 0 0 0 2.548-5.05zM20.735 23.5l3.931-7.789a4.853 4.853 0 0 0-2.146-6.519l-2.556-1.29a1.97 1.97 0 0 0-.427-.152 14.18 14.18 0 0 0-18.302 6.508 2.068 2.068 0 0 0 3.681 1.884 10.047 10.047 0 0 1 10.197-5.375L.228 39.953a2.087 2.087 0 1 0 3.719 1.896l9.042-17.729 4.475 2.26a10.137 10.137 0 0 1 4.152 13.56 2.087 2.087 0 1 0 3.704 1.923A14.317 14.317 0 0 0 20.735 23.5z" /></g></svg>
