<?xml version="1.0" encoding="UTF-8"?>
<svg xmlns="http://www.w3.org/2000/svg" id="internet" viewBox="0 0 48.001 44.003"><g fill="currentColor" data-name="Layer 2"><path d="M14.076 25.702a3 3 0 1 0 3.848 4.603 9.133 9.133 0 0 1 12.153 0 3 3 0 1 0 3.847-4.603 15.095 15.095 0 0 0-19.848 0zM46.79 7.595a37.986 37.986 0 0 0-45.579 0 3 3 0 1 0 3.578 4.817 32.021 32.021 0 0 1 38.422 0 3 3 0 0 0 3.578-4.817z" /><path d="M6.077 17.708a2.997 2.997 0 1 0 3.847 4.595 21.44 21.44 0 0 1 28.152 0 2.997 2.997 0 1 0 3.848-4.595 27.3 27.3 0 0 0-35.847 0z" /><circle cx="24" cy="39.003" r="5" /></g></svg>
