<?xml version="1.0" encoding="UTF-8"?>
<svg xmlns="http://www.w3.org/2000/svg" id="learning" viewBox="0 0 48 48"><g fill="currentColor" data-name="Layer 2"><path d="M14 27a3.999 3.999 0 0 1 4-4h6V1a1.003 1.003 0 0 0-1-1H1a1.003 1.003 0 0 0-1 1v29a1.003 1.003 0 0 0 1 1h13zM10 6h10a1 1 0 0 1 0 2H10a1 1 0 0 1 0-2zM6 28H3V3h3zm3-15a1.003 1.003 0 0 1 1-1h10a1 1 0 0 1 0 2H10a1.003 1.003 0 0 1-1-1z" /><path d="M18 25a2.006 2.006 0 0 0-2 2v15h4V29h22v13h4V27a2.006 2.006 0 0 0-2-2H18zM47 44H36a1.003 1.003 0 0 1-1 1h-8a1.003 1.003 0 0 1-1-1H15a1.003 1.003 0 0 0-1 1v2a1.003 1.003 0 0 0 1 1h32a1.003 1.003 0 0 0 1-1v-2a1.003 1.003 0 0 0-1-1z" /></g></svg>
