<?xml version="1.0" encoding="UTF-8"?>
<svg xmlns="http://www.w3.org/2000/svg" id="life-saving" viewBox="0 0 44 44"><path fill="currentColor" d="M22 0a22 22 0 1 0 22 22A22 22 0 0 0 22 0zm15.493 13.026l-4.271 2.835a.998.998 0 0 1-1.32-.274 14.806 14.806 0 0 0-3.489-3.488.998.998 0 0 1-.274-1.321l2.835-4.271a.994.994 0 0 1 1.393-.352 18.784 18.784 0 0 1 5.478 5.478.994.994 0 0 1-.352 1.393zM13 22a9 9 0 1 1 9 9 9 9 0 0 1-9-9zm.394-15.493l2.467 4.172A.998.998 0 0 1 15.587 12 15.65 15.65 0 0 0 12 15.587a.998.998 0 0 1-1.32.274L6.506 13a.994.994 0 0 1-.352-1.394A19.994 19.994 0 0 1 12 6.155a.994.994 0 0 1 1.394.352zM6.507 30.974l4.271-2.835a.998.998 0 0 1 1.32.274 14.806 14.806 0 0 0 3.489 3.488.998.998 0 0 1 .274 1.321l-2.835 4.271a.994.994 0 0 1-1.393.352 18.784 18.784 0 0 1-5.478-5.478.994.994 0 0 1 .352-1.393zM31 37.494l-2.861-4.173A.998.998 0 0 1 28.413 32 15.65 15.65 0 0 0 32 28.413a.998.998 0 0 1 1.32-.274l4.173 2.467A.994.994 0 0 1 37.845 32a19.994 19.994 0 0 1-5.451 5.845.994.994 0 0 1-1.394-.352z" /></svg>
