<?xml version="1.0" encoding="UTF-8"?>
<svg xmlns="http://www.w3.org/2000/svg" id="livelihood" viewBox="0 0 44 47.856"><g fill="currentColor" data-name="Layer 2"><path d="M43.15 24.856H6.85a.858.858 0 0 0-.85.86v2.14h34.05a.943.943 0 0 1 .95.95v14.05h2.15a.85.85 0 0 0 .85-.85v-16.29a.858.858 0 0 0-.85-.86z" /><path d="M38.15 29.856H1.85a.85.85 0 0 0-.85.85v16.29a.858.858 0 0 0 .85.86h36.3a.858.858 0 0 0 .85-.86v-16.29a.85.85 0 0 0-.85-.85zM7 40.856a2 2 0 1 1 2-2 2.006 2.006 0 0 1-2 2zm13 4a6 6 0 1 1 6-6 6.005 6.005 0 0 1-6 6zm13-4a2 2 0 1 1 2-2 2.006 2.006 0 0 1-2 2zM18.888 12.08l-2.487-.667a5 5 0 0 0-6.124 3.535l-.176.658 2.487.667a5 5 0 0 0 6.124-3.536zM18.333 17.812l2.487.666a5 5 0 0 0 6.124-3.535l.176-.658-2.487-.667a5 5 0 0 0-6.124 3.536zM26.564 20.018l2.488.666a5 5 0 0 0 6.124-3.535l.176-.658-2.488-.667a5 5 0 0 0-6.123 3.536zM17.136 8.669l2.488.666.176-.658a5 5 0 0 0-3.536-6.124l-2.487-.666-.176.658a5 5 0 0 0 3.535 6.124zM25.368 10.874l2.487.667.177-.658a5 5 0 0 0-3.536-6.124l-2.487-.667-.177.659a5 5 0 0 0 3.536 6.123zM33.6 13.08l2.487.667.176-.659a5 5 0 0 0-3.535-6.123l-2.487-.667-.177.658A5 5 0 0 0 33.6 13.08zM43.951 17.324a1.42 1.42 0 0 0-1.004-1.74l-5.03-1.347-.736 2.744 5.03 1.348a1.42 1.42 0 0 0 1.74-1.005zM3.976 11.024a1.42 1.42 0 1 0-.735 2.744l3.659.98a1.42 1.42 0 1 0 .735-2.743zM6.182 2.793l3.659.98a1.42 1.42 0 0 0 .735-2.744L6.917.049a1.42 1.42 0 0 0-.735 2.744zM11.114 9.996a1.42 1.42 0 0 0 .735-2.744L1.79 4.556A1.42 1.42 0 0 0 1.052 7.3z" /></g></svg>
