<?xml version="1.0" encoding="UTF-8"?>
<svg xmlns="http://www.w3.org/2000/svg" id="location-lockdown" viewBox="0 0 48 48"><path fill="currentColor" d="M10 5a3.003 3.003 0 0 0-3 3h6a3.003 3.003 0 0 0-3-3z" /><path fill="currentColor" d="M10 0a10 10 0 1 0 10 10A10.004 10.004 0 0 0 10 0zm5 14a2 2 0 0 1-2 2H7a2 2 0 0 1-2-2V8a5 5 0 0 1 10 0zM34 6c-7.732 0-14 6.663-14 14.882 0 7.068 10.353 22.523 13.253 26.714a.892.892 0 0 0 1.494 0C37.647 43.405 48 27.95 48 20.882 48 12.663 41.732 6 34 6zm0 19a6 6 0 1 1 6-6 6 6 0 0 1-6 6z" /><rect width="4" height="4" x="8" y="10" fill="currentColor" rx="1" /></svg>
