<?xml version="1.0" encoding="UTF-8"?>
<svg xmlns="http://www.w3.org/2000/svg" id="locust-infestation" viewBox="0 0 47.998 37.998"><path fill="currentColor" d="M47.988 23.6A24.269 24.269 0 0 0 23.528 0a1.526 1.526 0 0 0-1.53 1.51 1.524 1.524 0 0 0 1.53 1.5 21.318 21.318 0 0 1 21.01 17.01c-.08 0-.16-.02-.24-.02h-2.01a3.675 3.675 0 0 0-3.27 2h-1.08l-6.5-6.42a2.077 2.077 0 0 0-2.89 0l-2.55 2.52-2.56-2.52a2.077 2.077 0 0 0-2.89 0L14.058 22h-7.56a3.5 3.5 0 1 0 0 7h.47l-6.48 6.4a1.525 1.525 0 0 0-.29 1.86 1.53 1.53 0 0 0 2.38.3l8.67-8.56h1.75a1.926 1.926 0 0 0 .57 1.38l-5.08 5.02a1.503 1.503 0 1 0 2.09 2.16l6.65-6.56h7.71l-4.45 4.4a1.503 1.503 0 1 0 2.09 2.16l4.92-4.85 4.9 4.84a1.54 1.54 0 0 0 2.16.01 1.494 1.494 0 0 0-.01-2.13L30.058 31h4.71l6.63 6.55a1.54 1.54 0 0 0 2.16.01 1.494 1.494 0 0 0-.01-2.13L39.058 31h5.24a3.692 3.692 0 0 0 3.7-3.7v-3.6c0-.04-.01-.07-.01-.1zM22.048 22h-3.71l3.66-3.61 1.85 1.83zm7.89 0l-1.8-1.78 1.86-1.83 3.66 3.61zm14.56 5a1.5 1.5 0 1 1 1.5-1.5 1.498 1.498 0 0 1-1.5 1.5z" data-name="Layer 2" /></svg>
