<?xml version="1.0" encoding="UTF-8"?>
<svg xmlns="http://www.w3.org/2000/svg" id="map" viewBox="0 0 48 40"><g fill="currentColor" data-name="Layer 2"><path d="M45 0h-7v33h5a2.006 2.006 0 0 1 2 2 2.015 2.015 0 0 1-2 2H3V8h32V5H0v35h45a2.996 2.996 0 0 0 3-3V3a2.996 2.996 0 0 0-3-3z" /><path d="M14 34a1 1 0 0 0 1 1h1a1 1 0 0 0 1-1v-2h1a1 1 0 0 0 1-1v-4h1a1 1 0 0 0 1-1v-1a1 1 0 0 0-1-1h-5v-2a1 1 0 0 0 1-1v-1h1a1 1 0 0 0 1-1v-2h1a1 1 0 0 0 1-1v-1a1 1 0 0 0-1-1h-5v-2a1 1 0 0 0-1-1h-3a1 1 0 0 0-1 1v2H7a1 1 0 0 0-1 1v1a1 1 0 0 0 1 1h2v2a1 1 0 0 0 1 1h1v1a1 1 0 0 0 1 1v2h-1a1 1 0 0 0-1 1v1a1 1 0 0 0 1 1h1v2a1 1 0 0 0 1 1h1v4zM32 24h3V12h-9a1 1 0 0 0-1 1v2a1 1 0 0 0 1 1h1v2h-3a1.003 1.003 0 0 0-1 1v1a1.003 1.003 0 0 0 1 1h1v3h-1a1 1 0 0 0-1 1v1a1 1 0 0 0 1 1h1v2a1 1 0 0 0 1 1h1v2a1.003 1.003 0 0 0 1 1h3a1.003 1.003 0 0 0 1-1v-3h1a1 1 0 0 0 1-1v-1a1 1 0 0 0-1-1h-1v-2z" /></g></svg>
