<?xml version="1.0" encoding="UTF-8"?>
<svg xmlns="http://www.w3.org/2000/svg" id="market-closed" viewBox="0 0 48 48"><path fill="currentColor" d="M47.177 22H14.992a12.962 12.962 0 0 1-9.984 0H.706L0 24v2a4 4 0 0 0 8 0 4 4 0 0 0 8 0 4 4 0 0 0 8 0 4 4 0 0 0 8 0 4 4 0 0 0 8 0 4 4 0 0 0 8 0v-2zM18.295 20h28.058L41.255 7.62A1 1 0 0 0 40.33 7H22.637a12.896 12.896 0 0 1-4.342 13zM10 5a3.003 3.003 0 0 0-3 3h6a3.003 3.003 0 0 0-3-3zM44 32v16H16V38a2.006 2.006 0 0 0-2-2h-4a2.006 2.006 0 0 0-2 2v10H4V32a5.98 5.98 0 0 0 4-1.54 5.965 5.965 0 0 0 8 0 5.965 5.965 0 0 0 8 0 5.965 5.965 0 0 0 8 0 5.965 5.965 0 0 0 8 0A5.98 5.98 0 0 0 44 32z" /><path fill="currentColor" d="M19.54 7A10 10 0 0 0 0 10a10 10 0 0 0 20 0 9.906 9.906 0 0 0-.46-3zM15 14a2.006 2.006 0 0 1-2 2H7a2.006 2.006 0 0 1-2-2V8a5 5 0 0 1 9.9-1 4.715 4.715 0 0 1 .1 1z" /><rect width="4" height="4" x="8" y="10" fill="currentColor" rx="1" /></svg>
