<?xml version="1.0" encoding="UTF-8"?>
<svg xmlns="http://www.w3.org/2000/svg" id="market" viewBox="0 0 48 41"><g data-name="Layer 2"><path fill="currentColor" d="M1.412 13L5.765.667A1 1 0 0 1 6.708 0H40.33a1 1 0 0 1 .925.62L46.353 13zm-.706 2L0 17v2a4 4 0 0 0 8 0 4 4 0 0 0 8 0 4 4 0 0 0 8 0 4 4 0 0 0 8 0 4 4 0 0 0 8 0 4 4 0 0 0 8 0v-2l-.823-2zM40 23.46a5.963 5.963 0 0 1-8 0 5.963 5.963 0 0 1-8 0 5.963 5.963 0 0 1-8 0 5.963 5.963 0 0 1-8 0A5.967 5.967 0 0 1 4 25v16h4V31a2 2 0 0 1 2-2h4a2 2 0 0 1 2 2v10h28V25a5.967 5.967 0 0 1-4-1.54z" data-name="Expanded Icons" /></g></svg>
