<?xml version="1.0" encoding="UTF-8"?>
<svg xmlns="http://www.w3.org/2000/svg" id="medical-supply" viewBox="0 0 48 41"><path fill="currentColor" d="M46 9H35V2a2.006 2.006 0 0 0-2-2H15a2.006 2.006 0 0 0-2 2v7H2a2.006 2.006 0 0 0-2 2v28a2.006 2.006 0 0 0 2 2h44a2.006 2.006 0 0 0 2-2V11a2.006 2.006 0 0 0-2-2zM18 5h12v4H18zm2.27 22.27a2.502 2.502 0 0 1-1.77.73H16v2.5a2.5 2.5 0 0 1-5 0V28H8.5a2.5 2.5 0 0 1 0-5H11v-2.5a2.5 2.5 0 1 1 5 0V23h2.5a2.503 2.503 0 0 1 1.77 4.27z" data-name="Layer 2" /></svg>
