<?xml version="1.0" encoding="UTF-8"?>
<svg xmlns="http://www.w3.org/2000/svg" id="meeting" viewBox="0 0 48 48"><g fill="currentColor" data-name="Layer 2"><path d="M32 21a2.006 2.006 0 0 0 2-2V2a2.006 2.006 0 0 0-2-2H2a2.006 2.006 0 0 0-2 2v17a2.006 2.006 0 0 0 2 2h6.209l4.133 3.742A.997.997 0 0 0 14 23.963V21zM6.5 5h21a1.5 1.5 0 0 1 0 3h-21a1.5 1.5 0 0 1 0-3zM5 13.5A1.498 1.498 0 0 1 6.5 12h21a1.5 1.5 0 0 1 0 3h-21A1.498 1.498 0 0 1 5 13.5zM45.22 27.78A9.478 9.478 0 0 0 38.5 25h-12a9.5 9.5 0 1 0 0 19H33v2.998a1 1 0 0 0 1.658.753L39 44a8.342 8.342 0 0 0 1.07-.13h.01a9.506 9.506 0 0 0 5.14-16.09zM40.5 39h-16a1.5 1.5 0 0 1 0-3h16a1.5 1.5 0 0 1 0 3zm0-6h-16a1.5 1.5 0 1 1 0-3h16a1.5 1.5 0 0 1 0 3z" /></g></svg>
