<?xml version="1.0" encoding="UTF-8"?>
<svg xmlns="http://www.w3.org/2000/svg" id="military-gate" viewBox="0 0 48 28"><g fill="currentColor" data-name="Layer 2"><path d="M46.464 7.536a1.828 1.828 0 0 0-2.585 0L40 11.414l-3.879-3.878a1.828 1.828 0 0 0-2.585 2.585L37.414 14l-3.878 3.879a1.828 1.828 0 0 0 2.585 2.585L40 16.586l3.879 3.878a1.828 1.828 0 0 0 2.585-2.585L42.586 14l3.878-3.879a1.828 1.828 0 0 0 0-2.585zM14.464 7.536a1.828 1.828 0 0 0-2.585 0L8 11.414 4.121 7.536a1.828 1.828 0 0 0-2.585 2.585L5.414 14l-3.878 3.879a1.828 1.828 0 0 0 2.585 2.585L8 16.586l3.879 3.878a1.828 1.828 0 0 0 2.585-2.585L10.586 14l3.878-3.879a1.828 1.828 0 0 0 0-2.585zM30.464 7.536a1.828 1.828 0 0 0-2.585 0L24 11.414l-3.879-3.878a1.828 1.828 0 0 0-2.585 2.585L21.414 14l-3.878 3.879a1.828 1.828 0 0 0 2.585 2.585L24 16.586l3.879 3.878a1.828 1.828 0 0 0 2.585-2.585L26.586 14l3.878-3.879a1.828 1.828 0 0 0 0-2.585zM2 4h44a2 2 0 0 0 0-4H2a2 2 0 0 0 0 4zM46 24H2a2 2 0 0 0 0 4h44a2 2 0 0 0 0-4z" /></g></svg>
