<?xml version="1.0" encoding="UTF-8"?>
<svg xmlns="http://www.w3.org/2000/svg" id="missing" viewBox="0 0 42 48"><g fill="currentColor" data-name="Layer 2"><path d="M29 10c-7.411 0-13 5.159-13 12a2 2 0 0 0 4 0 7.449 7.449 0 0 1 4-6.745V46a2 2 0 0 0 4 0V31h2v15a2 2 0 0 0 4 0V15.255A7.449 7.449 0 0 1 38 22a2 2 0 0 0 4 0c0-6.841-5.589-12-13-12z" /><circle cx="29" cy="4" r="4" /><path d="M8 0a8 8 0 1 0 8 8 7.998 7.998 0 0 0-8-8zm0 14.09A1.09 1.09 0 1 1 9.09 13 1.093 1.093 0 0 1 8 14.09zm2.94-8.29A3.013 3.013 0 0 1 9 8.03V9.6a1 1 0 1 1-2 0V7.2a1.003 1.003 0 0 1 1-1 1.632 1.632 0 0 0 .22-.02 1.012 1.012 0 0 0 .76-.78A1.123 1.123 0 0 0 9 5.2a1.634 1.634 0 0 0-.02-.22 1.012 1.012 0 0 0-.78-.76.945.945 0 0 0-.41 0 1.007 1.007 0 0 0-.74.66 1 1 0 0 1-1.89-.65 3.015 3.015 0 0 1 2.22-1.97 3.18 3.18 0 0 1 1.23 0 3.028 3.028 0 0 1 2.33 2.32 3.258 3.258 0 0 1 .06.62 2.908 2.908 0 0 1-.06.6z" /></g></svg>
