<?xml version="1.0" encoding="UTF-8"?>
<svg xmlns="http://www.w3.org/2000/svg" id="mobile-phone" viewBox="0 0 26 48"><path fill="currentColor" d="M22 0H4a3.999 3.999 0 0 0-4 4v40a3.999 3.999 0 0 0 4 4h18a3.999 3.999 0 0 0 4-4V4a3.999 3.999 0 0 0-4-4zM10 3h6a1 1 0 0 1 0 2h-6a1 1 0 0 1 0-2zM6 45a2 2 0 1 1 2-2 2.006 2.006 0 0 1-2 2zm0-8a2 2 0 1 1 2-2 2.006 2.006 0 0 1-2 2zm0-8a2 2 0 1 1 2-2 2.006 2.006 0 0 1-2 2zm7 16a2 2 0 1 1 2-2 2.006 2.006 0 0 1-2 2zm0-8a2 2 0 1 1 2-2 2.006 2.006 0 0 1-2 2zm0-8a2 2 0 1 1 2-2 2.006 2.006 0 0 1-2 2zm7 16a2 2 0 1 1 2-2 2.006 2.006 0 0 1-2 2zm0-8a2 2 0 1 1 2-2 2.006 2.006 0 0 1-2 2zm0-8a2 2 0 1 1 2-2 2.006 2.006 0 0 1-2 2zm2-8a1.003 1.003 0 0 1-1 1H5a1.003 1.003 0 0 1-1-1V9a1.003 1.003 0 0 1 1-1h16a1.003 1.003 0 0 1 1 1z" data-name="Layer 2" /></svg>
