<?xml version="1.0" encoding="UTF-8"?>
<svg xmlns="http://www.w3.org/2000/svg" id="mobile-clinic" viewBox="0 0 48 30"><g fill="currentColor" data-name="Layer 2"><path fill-rule="evenodd" d="M43.42 14H43v-3a5.002 5.002 0 0 0-5-5h-5V3.01A3.013 3.013 0 0 0 29.99 0H3.01A3.013 3.013 0 0 0 0 3.01V26h5a6 6 0 0 1 12 0h12a5.98 5.98 0 0 1 4-5.65 5.804 5.804 0 0 1 2-.35 6.005 6.005 0 0 1 6 6h5.47A1.524 1.524 0 0 0 48 24.47v-5.89A4.58 4.58 0 0 0 43.42 14zm-6.31-5A2.885 2.885 0 0 1 40 11.89V14h-7V9zM21 12h-2v2a2.015 2.015 0 0 1-2 2 2.006 2.006 0 0 1-2-2v-2h-2a2.015 2.015 0 0 1-2-2 2.006 2.006 0 0 1 2-2h2V6a2.014 2.014 0 0 1 2-2 2.006 2.006 0 0 1 2 2v2h2a2.014 2.014 0 0 1 2 2 2.006 2.006 0 0 1-2 2z" /><circle cx="11" cy="26" r="4" /><path fill-rule="evenodd" d="M35 22a4 4 0 1 0 4 4 3.989 3.989 0 0 0-4-4z" /></g></svg>
