<?xml version="1.0" encoding="UTF-8"?>
<svg xmlns="http://www.w3.org/2000/svg" id="monitoring" viewBox="0 0 48 48"><g fill="currentColor" data-name="Layer 2"><path d="M8.38 33.8L1.2 40.98a4.115 4.115 0 0 0 5.82 5.82l7.18-7.18a24.01 24.01 0 0 1-5.82-5.82zM28 0a20 20 0 1 0 20 20A19.994 19.994 0 0 0 28 0zm11 30.18A15 15 0 0 1 13 20a15 15 0 1 1 26 10.18z" /><path d="M39.414 18.586l-6-6a2 2 0 1 0-2.828 2.828L33.172 18H18a2 2 0 0 0 0 4h15.172l-2.586 2.586a2 2 0 1 0 2.828 2.828l6-6a2 2 0 0 0 0-2.828z" /></g></svg>
