<?xml version="1.0" encoding="UTF-8"?>
<svg xmlns="http://www.w3.org/2000/svg" id="mosquito-net" viewBox="0 0 48 48"><g fill="currentColor" data-name="Layer 2"><path d="M18.768 25.839l-3.05-3.05a1.981 1.981 0 0 0-2.027-.477l-12 4.006a2.474 2.474 0 1 0 1.568 4.692l9.18-3.06-7.707 7.782a2.5 2.5 0 0 0 3.536 3.536l11.914-12.015zM25.485 18.414l1.768 1.768L39.268 8.268a2.5 2.5 0 0 0-3.536-3.536L27.95 12.44l3.061-9.18a2.474 2.474 0 1 0-4.692-1.568l-4.006 12a1.98 1.98 0 0 0 .478 2.028zM45.12 25l2.44-2.44a1.5 1.5 0 0 0-2.12-2.12l-25 25a1.5 1.5 0 1 0 2.12 2.12L25 45.12l2.44 2.44a1.509 1.509 0 0 0 1.06.44h1a1.509 1.509 0 0 0 1.06-.44l2.94-2.94 2.94 2.94a1.5 1.5 0 0 0 2.12 0l9-9a1.5 1.5 0 0 0 0-2.12l-2.94-2.94 2.94-2.94A1.484 1.484 0 0 0 48 29.5v-1a1.484 1.484 0 0 0-.44-1.06zm-6.62 6.621l1.88 1.88L38 35.878 36.122 34zM29 44.88L27.12 43l2.38-2.379 1.88 1.88zm2.621-6.38L34 36.121l1.88 1.88-2.38 2.378zm5.879 5.879l-1.88-1.88L38 40.121 39.879 42zm4.5-4.5l-1.88-1.88 2.38-2.378 1.879 1.879zm.5-8.5L40.622 29.5l2.38-2.38L44.88 29zM22.346 25.18l.67.67c-.003.05-.016.099-.016.15a2.96 2.96 0 0 0 3.804 2.877 1.407 1.407 0 0 0 .095.143l1.54 1.54a1.5 1.5 0 0 0 2.122-2.12l-1.54-1.54a1.39 1.39 0 0 0-.144-.096A2.96 2.96 0 0 0 26 23c-.051 0-.1.013-.15.015l-.67-.67L11.446 8.61a2.005 2.005 0 1 0-2.835 2.835z" /></g></svg>
