<?xml version="1.0" encoding="UTF-8"?>
<svg xmlns="http://www.w3.org/2000/svg" id="mosque" viewBox="0 0 48 48"><g fill="currentColor" data-name="Layer 2"><path d="M46.5 45h-45a1.5 1.5 0 0 0 0 3h45a1.5 1.5 0 0 0 0-3zM5.5 43h37a1.5 1.5 0 0 0 0-3h-37a1.5 1.5 0 0 0 0 3zM12.94 20.23a6.717 6.717 0 0 0 1.06.87V38h7V27.26c0-1.8 3-3.26 3-3.26s3 1.46 3 3.26V38h7V21.1a6.717 6.717 0 0 0 1.06-.87l.05-.04a6.621 6.621 0 0 0 0-9.34L24.44.18a.628.628 0 0 0-.88 0L12.89 10.85a6.621 6.621 0 0 0 0 9.34zM24 9a3.963 3.963 0 0 1 .78.08A3.497 3.497 0 0 0 25.5 16a3.352 3.352 0 0 0 1.48-.34A3.958 3.958 0 0 1 24 17a4 4 0 1 1 0-8z" /></g></svg>
