<?xml version="1.0" encoding="UTF-8"?>
<svg xmlns="http://www.w3.org/2000/svg" id="murder" viewBox="0 0 42 48"><g fill="currentColor" data-name="Layer 2"><circle cx="4" cy="14" r="4" /><path d="M40.249 27.438a15.92 15.92 0 0 0-18.028-.94l-8.482-7.71A14.054 14.054 0 0 0 16 10.672 15.061 15.061 0 0 0 11.414.586a2 2 0 1 0-2.828 2.828A11.115 11.115 0 0 1 12 10.671c-.002 3.023-.792 5.282-2.414 6.905-.02.02-.033.043-.051.063l-2.173 2.297a13.789 13.789 0 0 0-4.36 10.156 14.474 14.474 0 0 0 4.584 9.322 2 2 0 0 0 2.828-2.828 10.684 10.684 0 0 1-3.416-6.678 8.614 8.614 0 0 1 1.351-4.789l24.296 22.353a2 2 0 0 0 2.71-2.944l-13.587-12.5c3.617-4.069 10.775-5.63 15.983-1.465a2 2 0 0 0 2.498-3.125zM25.5 10A1.5 1.5 0 0 0 27 8.5v-7a1.5 1.5 0 0 0-3 0v7a1.5 1.5 0 0 0 1.5 1.5zM40.5 15h-7a1.5 1.5 0 0 0 0 3h7a1.5 1.5 0 0 0 0-3zM32.56 11.56l5-5a1.5 1.5 0 0 0-2.12-2.12l-5 5a1.5 1.5 0 1 0 2.12 2.12z" /></g></svg>
