<?xml version="1.0" encoding="UTF-8"?>
<svg xmlns="http://www.w3.org/2000/svg" id="national-army" viewBox="0 0 42 48"><g fill="currentColor" data-name="Layer 2"><path d="M14 8.5a6.5 6.5 0 0 0 13 0 6.168 6.168 0 0 0-.18-1.5H14.18A6.168 6.168 0 0 0 14 8.5zM15 5h11a2.032 2.032 0 0 0 2-2.06v-.88A2.034 2.034 0 0 0 25.99 0h-.12l-11 .76A2.035 2.035 0 0 0 13 2.81v.13A2.032 2.032 0 0 0 15 5z" /><path d="M39.96 29.82a20.514 20.514 0 0 0-9.34-9.56l1.79-3.1a1.995 1.995 0 0 0-.73-2.73l3.5-6.06.75-1.3a.505.505 0 0 0-.18-.69l-2.17-1.25a.999.999 0 0 0-1.36.37 1.022 1.022 0 0 0-.14.5 1.006 1.006 0 0 0 .5.87l-3.63 6.29a1.997 1.997 0 0 0-1.73 1l-2.41 4.18A20.692 20.692 0 0 0 21 18a21.34 21.34 0 0 0-7.55 1.35l.02.03.47.82 2.56 4.43h.01l.01.04 2.32 4.01.76 1.32 9.74 16.87A2.977 2.977 0 0 0 30 45V26.87a14.359 14.359 0 0 1 5.12 6.87A15.819 15.819 0 0 1 36 39a3 3 0 0 0 6 0 21.337 21.337 0 0 0-2.04-9.18zM25 29a2 2 0 1 1 2-2 2.006 2.006 0 0 1-2 2zM13.7 25.77l-1.69-2.92-1.28-2.22-.01-.02a20.524 20.524 0 0 0-8.68 9.21A21.337 21.337 0 0 0 0 39a3 3 0 0 0 6 0 15.819 15.819 0 0 1 .88-5.26A14.359 14.359 0 0 1 12 26.87V45a2.996 2.996 0 0 0 3 3h11.53L13.71 25.8z" /></g></svg>
