<?xml version="1.0" encoding="UTF-8"?>
<svg xmlns="http://www.w3.org/2000/svg" id="needs-assessment" viewBox="0 0 32 48"><g fill="currentColor" data-name="Layer 2"><path d="M30 6h-5a2.006 2.006 0 0 0-2-2h-3a4 4 0 0 0-8 0H9a2.006 2.006 0 0 0-2 2H2a2.087 2.087 0 0 0-2 2.15v37.7A2.087 2.087 0 0 0 2 48h28a2.087 2.087 0 0 0 2-2.15V8.15A2.087 2.087 0 0 0 30 6zM17 5a1 1 0 1 1-1-1 1.003 1.003 0 0 1 1 1zm11 39H4V10h3a2.006 2.006 0 0 0 2 2h14a2.006 2.006 0 0 0 2-2h3z" /><path d="M15.97 35.4a2.3 2.3 0 1 0 2.3 2.3 2.3 2.3 0 0 0-2.3-2.3zM17.2 16.98a6.328 6.328 0 0 0-2.49.01 6.094 6.094 0 0 0-4.72 4.67 2.29 2.29 0 0 0-.08.64 1.997 1.997 0 0 0 3.98.24.06.06 0 0 0 .01-.04 2.155 2.155 0 0 1 1.61-1.59 2.43 2.43 0 0 1 .89-.01 2.166 2.166 0 0 1 1.65 1.63 2.314 2.314 0 0 1 .04.46 1.904 1.904 0 0 1-.04.43 2.073 2.073 0 0 1-2.08 1.69 2 2 0 0 0-2 2v4.12a2 2 0 1 0 4 0v-2.45a6.14 6.14 0 0 0 4-4.56 6.25 6.25 0 0 0 .12-1.23 6.714 6.714 0 0 0-.12-1.26 6.166 6.166 0 0 0-4.77-4.75z" /></g></svg>
