<?xml version="1.0" encoding="UTF-8"?>
<svg xmlns="http://www.w3.org/2000/svg" id="ngo-office" viewBox="0 0 32 48"><g fill="currentColor" data-name="Layer 2"><path d="M25 14a1.003 1.003 0 0 0-1 1v6a1 1 0 0 0 2 0v-6a1.003 1.003 0 0 0-1-1z" /><path d="M30 6H2a2.006 2.006 0 0 0-2 2v22h32V8a2.006 2.006 0 0 0-2-2zM11 23a.995.995 0 0 1-.77.97.906.906 0 0 1-.23.03.999.999 0 0 1-.89-.55L6 17.24V23a1 1 0 0 1-2 0V13a1 1 0 0 1 1.89-.45L9 18.76V13a1 1 0 0 1 2 0zm9-2.5a3.5 3.5 0 0 1-7 0V15a3.009 3.009 0 0 1 3-3h2a1 1 0 0 1 0 2h-2a1.003 1.003 0 0 0-1 1v5.5a1.5 1.5 0 0 0 3 0V19h-1a1 1 0 0 1 0-2h1a2.006 2.006 0 0 1 2 2zm8 .5a3 3 0 0 1-6 0v-6a3 3 0 0 1 6 0zM6 4h20a2 2 0 0 0 0-4H6a2 2 0 0 0 0 4zM0 48h12V38a2.006 2.006 0 0 1 2-2h4a2.006 2.006 0 0 1 2 2v10h12V32H0z" /></g></svg>
