<?xml version="1.0" encoding="UTF-8"?>
<svg xmlns="http://www.w3.org/2000/svg" id="non-food-items" viewBox="0 0 42 42"><path fill="currentColor" d="M38 0H4a3.999 3.999 0 0 0-4 4v34a3.999 3.999 0 0 0 4 4h34a3.999 3.999 0 0 0 4-4V4a3.999 3.999 0 0 0-4-4zM18 29.5a1.507 1.507 0 0 1-1.14 1.46 1.47 1.47 0 0 1-.36.04 1.51 1.51 0 0 1-1.33-.8L9 18.54V29.5a1.5 1.5 0 0 1-3 0v-17a1.507 1.507 0 0 1 1.14-1.46 1.523 1.523 0 0 1 1.69.76L15 23.46V12.5a1.5 1.5 0 0 1 3 0zM28.5 19a1.5 1.5 0 0 1 0 3H24v7.5a1.5 1.5 0 0 1-3 0v-17a1.498 1.498 0 0 1 1.5-1.5h6a1.5 1.5 0 0 1 0 3H24v5zM36 29.5a1.5 1.5 0 0 1-3 0v-17a1.5 1.5 0 0 1 3 0z" data-name="Layer 2" /></svg>
