<?xml version="1.0" encoding="UTF-8"?>
<svg xmlns="http://www.w3.org/2000/svg" id="not-secured" viewBox="0 0 44 48"><path fill="currentColor" d="M10 20A10 10 0 1 0 0 10a10.004 10.004 0 0 0 10 10zM5.29 6.71a1.004 1.004 0 0 1 1.42-1.42L10 8.58l3.29-3.29a1.004 1.004 0 1 1 1.42 1.42L11.42 10l3.29 3.29a1.008 1.008 0 0 1 0 1.42 1.014 1.014 0 0 1-1.42 0L10 11.42l-3.29 3.29a1.014 1.014 0 0 1-1.42 0 1.008 1.008 0 0 1 0-1.42L8.58 10zM44 9.97v20.18C44 40.01 36.7 48 28 48s-16-7.99-16-17.85v-7.32A12.934 12.934 0 0 0 22.65 7.055l5.16-1.015a.812.812 0 0 1 .38 0l15 2.95a.997.997 0 0 1 .81.98z" data-name="Layer 2" /></svg>
