<?xml version="1.0" encoding="UTF-8"?>
<svg xmlns="http://www.w3.org/2000/svg" id="nutrition" viewBox="0 0 36 48"><path fill="currentColor" d="M29.6 19.8c-.4-.5-1-.8-1.6-.8H10.2c-.7 0-1.4.4-1.8 1.1L.2 36.6c-.4.8-.2 1.8.4 2.4 0 0 12.2 9 17.4 9 .9 0 1.7-.4 2.2-1.1.4-.5.7-1.2.8-1.9 0-1 0-3-3-4-4.2-1.6-7.1-2.4-8.2-3-.6-.3-1-.8-.7-1.4 1.2-2.4 1.8-4.9 1.9-7.6 0-2 1-3 2-3s2 1 2 3c0 3.4 5 7.4 6.6 8.6.3.2.4.6.4.9 0 1.5-.2 4.5 2.5 4.5C28 43 36 38 36 33c0-4.1-4.7-10.9-6.4-13.2zM24 34c-2.2 0-4-1.8-4-4s1.8-4 4-4 4 1.8 4 4-1.8 4-4 4zM12 7c0-3.9 3.1-7 7-7s7 3.1 7 7-3.1 7-7 7-7-3.1-7-7z" /></svg>
