<?xml version="1.0" encoding="UTF-8"?>
<svg xmlns="http://www.w3.org/2000/svg" id="observation-tower" viewBox="0 0 36 48"><g fill="currentColor" data-name="Layer 2"><path d="M7.002 10h21.996a1 1 0 0 0 .53-1.848l-10.998-8a1 1 0 0 0-1.06 0l-10.998 8A1 1 0 0 0 7.002 10zM34 44h-3.675l-3.703-21h.278a2.1 2.1 0 0 0 2.1-2.1V12H7v8.9A2.1 2.1 0 0 0 9.1 23h.22L5.619 44H2a1.955 1.955 0 0 0-1.41.59A1.955 1.955 0 0 0 0 46a2.006 2.006 0 0 0 2 2h32a2.015 2.015 0 0 0 2-2 2.006 2.006 0 0 0-2-2zm-16-6.68L24.68 44H11.32zm-7.464 1.824l1.392-7.896L15.18 34.5zm14.86-.069L20.82 34.5l3.204-3.203zM11.5 16h13a1.5 1.5 0 0 1 0 3h-13a1.5 1.5 0 0 1 0-3zm11.06 7l.618 3.502L18 31.68l-5.227-5.227.61-3.453z" /></g></svg>
