<?xml version="1.0" encoding="UTF-8"?>
<svg xmlns="http://www.w3.org/2000/svg" id="oil-facility" viewBox="0 0 48 47.743"><path fill="currentColor" d="M46.5 44.743H33.285l-6.751-25.195a4.47 4.47 0 0 0 1.387-2.52L37.788 15l2.209 10.743c.211-.027.423-.054.636-.098a8.244 8.244 0 0 0 6.55-9.641l-1.963-9.55A8.244 8.244 0 0 0 35.398.178a8.59 8.59 0 0 0-.624.16l2.209 10.744-10.204 2.097a4.47 4.47 0 0 0-7.496 1.541l-11.41 2.345A1.996 1.996 0 0 0 4 17.744v21H2a1 1 0 0 0-1 1v5.091a1.496 1.496 0 0 0 .5 2.908h45a1.5 1.5 0 0 0 0-3zM21.109 28.744h4.782l1.608 6h-7.998zm-2.68 10h10.142l1.608 6H16.82zm6.39-14h-2.638l1.078-4.025c.081.005.158.024.241.024s.16-.02.241-.024zM8 21.081a1.971 1.971 0 0 0 .402-.041l11.34-2.33a4.499 4.499 0 0 0 .724.838l-6.751 25.195H11v-5a1 1 0 0 0-1-1H8z" /></svg>
