<?xml version="1.0" encoding="UTF-8"?>
<svg xmlns="http://www.w3.org/2000/svg" id="out-of-platform" viewBox="0 0 48 48"><g fill="currentColor" data-name="Layer 2"><path d="M33 22.65V44H4V20h16.09l9-9H2.2A2.194 2.194 0 0 0 0 13.2v32.6A2.194 2.194 0 0 0 2.2 48h32.6a2.194 2.194 0 0 0 2.2-2.2V18.65zM11.5 14a1.5 1.5 0 1 1-1.5 1.5 1.498 1.498 0 0 1 1.5-1.5zm-6 0A1.5 1.5 0 1 1 4 15.5 1.498 1.498 0 0 1 5.5 14z" /><path d="M46 0H25a2 2 0 0 0 0 4h16.03L18.515 26.515a2.1 2.1 0 0 0 2.97 2.97L44 6.97V23a2 2 0 0 0 4 0V2a2 2 0 0 0-2-2z" /></g></svg>
