<?xml version="1.0" encoding="UTF-8"?>
<svg xmlns="http://www.w3.org/2000/svg" id="pdf-file" viewBox="0 0 44 32"><path fill="currentColor" d="M37 .94V0l7 7h-6.22a.781.781 0 0 1-.78-.78zM44 9v21a2 2 0 0 1-2 2H2a2 2 0 0 1-2-2V2a2 2 0 0 1 2-2h33v6.22A2.783 2.783 0 0 0 37.78 9zm-27 6a3.003 3.003 0 0 0-3-3h-3a1 1 0 0 0-1 1v10a1 1 0 0 0 2 0v-4h2a3.003 3.003 0 0 0 3-3zm9 0a3.003 3.003 0 0 0-3-3h-3a1 1 0 0 0-1 1v10a1 1 0 0 0 1 1h3a3.003 3.003 0 0 0 3-3zm9-2a1 1 0 0 0-1-1h-5a1 1 0 0 0-1 1v10a1 1 0 0 0 2 0v-4h2a1 1 0 0 0 0-2h-2v-3h4a1 1 0 0 0 1-1zm-12 1h-2v8h2a1.001 1.001 0 0 0 1-1v-6a1.001 1.001 0 0 0-1-1zm-9 0h-2v3h2a1.001 1.001 0 0 0 1-1v-1a1.001 1.001 0 0 0-1-1z" data-name="Layer 2" /></svg>
