<?xml version="1.0" encoding="UTF-8"?>
<svg xmlns="http://www.w3.org/2000/svg" id="peacekeeping-force" viewBox="0 0 48 39"><path fill="currentColor" d="M45.5 19h-2.52A21.567 21.567 0 0 0 0 21.5V27a3.999 3.999 0 0 0 4 4h17.01l8 8h7.49a1.5 1.5 0 0 0 0-3H32V24h13.5a2.5 2.5 0 0 0 0-5zm-25.52-2.5a3.5 3.5 0 1 1-7 0V9a1 1 0 0 1 2 0v7.5a1.5 1.5 0 1 0 3 0V9a1 1 0 0 1 2 0zm4 2.5a1 1 0 0 1-2 0V9a1 1 0 0 1 1.89-.45l3.11 6.21V9a1 1 0 1 1 2 0v10a.995.995 0 0 1-.77.97.906.906 0 0 1-.23.03 1 1 0 0 1-.89-.55l-3.11-6.21zM29 33.01l-5-5L28 24h1z" data-name="Layer 2" /></svg>
