<?xml version="1.0" encoding="UTF-8"?>
<svg xmlns="http://www.w3.org/2000/svg" id="people-in-need" viewBox="0 0 48.001 34"><g data-name="Layer 2"><g fill="currentColor" data-name="Editable Icons"><path d="M1.503 18.979a1.5 1.5 0 0 0 1.5-1.5 6.218 6.218 0 0 1 3-5.36V21a4 4 0 0 0 8 0v-8.879a6.218 6.218 0 0 1 2.996 5.358 1.5 1.5 0 0 0 3 0l-.001-.026.001-.013a4.754 4.754 0 0 1 1.005-2.937V18a2.999 2.999 0 0 0 5.997 0v-3.5a4.754 4.754 0 0 1 1.005 2.939l-.002.039a1.5 1.5 0 0 0 3 0 6.64 6.64 0 0 1 3.997-5.693L33.073 19a5.018 5.018 0 1 0 9.843 0l-1.915-7.214a6.644 6.644 0 0 1 4 5.693 1.5 1.5 0 0 0 3 0c0-5.389-4.298-9.453-9.998-9.453a9.916 9.916 0 0 0-8.652 4.594 6.704 6.704 0 0 0-10.697.001A9.916 9.916 0 0 0 10 8.026C4.3 8.026.003 12.09.003 17.48a1.5 1.5 0 0 0 1.5 1.5z" /><circle cx="38.003" cy="3" r="3" /><circle cx="10.002" cy="3" r="3" /><path d="M24.002 8a2.505 2.505 0 1 0-2.505-2.505A2.505 2.505 0 0 0 24.002 8zM46 30H2a2 2 0 0 0 0 4h44a2 2 0 0 0 0-4z" /></g></g></svg>
