<?xml version="1.0" encoding="UTF-8"?>
<svg xmlns="http://www.w3.org/2000/svg" id="people-targeted-2" width="48" height="40.00006" viewBox="0 0 48 40.00006"><g id="Layer_2" data-name="Layer 2"><g id="Icons"><path d="M17.13,19.51007a7.56514,7.56514,0,0,0-4.5-1.51A7.68975,7.68975,0,0,0,5,25.58v3.42h8V27.97A10.938,10.938,0,0,1,17.13,19.51007Z" fill="currentColor" /><path d="M43,29.00006V25.58a7.68975,7.68975,0,0,0-7.63-7.58,7.56514,7.56514,0,0,0-4.5,1.51A10.938,10.938,0,0,1,35,27.97v1.03Z" fill="currentColor" /><path d="M29.42,20.88007A9.00051,9.00051,0,0,0,15,27.97v4.03H33V27.97A8.93391,8.93391,0,0,0,29.42,20.88007Z" fill="currentColor" /><circle cx="24" cy="12.00006" r="5" fill="currentColor" /><circle cx="13" cy="12.00006" r="4" fill="currentColor" /><circle cx="35" cy="12.00006" r="4" fill="currentColor" /><path d="M8.5,37.00006H3v-5.5a1.5,1.5,0,0,0-3,0v7a1.5,1.5,0,0,0,1.5,1.5h7a1.5,1.5,0,0,0,0-3Z" fill="currentColor" /><path d="M28.5,36.99982h-9a1.5,1.5,0,0,0,0,3h9a1.5,1.5,0,0,0,0-3Z" fill="currentColor" /><path d="M19.5,3h9a1.5,1.5,0,0,0,0-3h-9a1.5,1.5,0,0,0,0,3Z" fill="currentColor" /><path d="M1.5,10.00006a1.5,1.5,0,0,0,1.5-1.5v-5.5H8.5a1.5,1.5,0,0,0,0-3h-7a1.5,1.5,0,0,0-1.5,1.5v7A1.5,1.5,0,0,0,1.5,10.00006Z" fill="currentColor" /><path d="M46.5.00006h-7a1.5,1.5,0,0,0,0,3H45v5.5a1.5,1.5,0,0,0,3,0v-7A1.5,1.5,0,0,0,46.5.00006Z" fill="currentColor" /><path d="M46.5,30.00006a1.5,1.5,0,0,0-1.5,1.5v5.5H39.5a1.5,1.5,0,0,0,0,3h7a1.5,1.5,0,0,0,1.5-1.5v-7A1.5,1.5,0,0,0,46.5,30.00006Z" fill="currentColor" /></g></g></svg>
