<?xml version="1.0" encoding="UTF-8"?>
<svg xmlns="http://www.w3.org/2000/svg" id="people-targeted" viewBox="0 0 47.999 48"><g data-name="Layer 2"><g fill="currentColor" data-name="Editable Icons"><path d="M38 31.026a9.916 9.916 0 0 0-8.652 4.594 6.704 6.704 0 0 0-10.697.001 9.916 9.916 0 0 0-8.653-4.595C4.298 31.026 0 35.09 0 40.48a1.5 1.5 0 0 0 3 0 6.218 6.218 0 0 1 3-5.36V44a4 4 0 0 0 8 0v-8.879a6.218 6.218 0 0 1 2.997 5.358 1.5 1.5 0 0 0 3 0l-.002-.026.002-.013A4.754 4.754 0 0 1 21 37.503V41a2.999 2.999 0 1 0 5.998 0v-3.5a4.755 4.755 0 0 1 1.005 2.939l-.002.039a1.5 1.5 0 0 0 3 0 6.257 6.257 0 0 1 3.6-5.693L33.067 42a5.023 5.023 0 1 0 9.85-.02l-1.519-7.194a6.258 6.258 0 0 1 3.6 5.693 1.5 1.5 0 0 0 3 0c0-5.389-4.298-9.453-9.998-9.453z" /><circle cx="38" cy="26" r="3" /><circle cx="9.999" cy="26" r="3" /><path d="M24 31a2.505 2.505 0 1 0-2.506-2.505A2.505 2.505 0 0 0 23.999 31zM14.425 15.56a1.5 1.5 0 0 0 2.119.003l4.013-4a1.5 1.5 0 1 0-2.118-2.125L16.998 11V1.5a1.5 1.5 0 0 0-3 0L14 11l-1.441-1.56a1.5 1.5 0 0 0-2.122 0 1.515 1.515 0 0 0 0 2.134zM31.425 15.56a1.5 1.5 0 0 0 2.119.003l4.013-4a1.5 1.5 0 1 0-2.118-2.125L33.998 11V1.5a1.5 1.5 0 0 0-3 0V11l-1.44-1.56a1.5 1.5 0 0 0-2.12 0 1.515 1.515 0 0 0 0 2.134z" /></g></g></svg>
