<?xml version="1.0" encoding="UTF-8"?>
<svg xmlns="http://www.w3.org/2000/svg" id="people-affected" width="48" height="40" viewBox="0 0 48 40"><g id="Layer_2" data-name="Layer 2"><g id="Icons"><path d="M17.13,19.51A7.56514,7.56514,0,0,0,12.63,18,7.68974,7.68974,0,0,0,5,25.58V29h8V27.97A10.938,10.938,0,0,1,17.13,19.51Z" fill="currentColor" /><path d="M43,29V25.58A7.68974,7.68974,0,0,0,35.37,18a7.56514,7.56514,0,0,0-4.5,1.51A10.938,10.938,0,0,1,35,27.97V29Z" fill="currentColor" /><path d="M29.42,20.88A9.00051,9.00051,0,0,0,15,27.97V32H33V27.97A8.93394,8.93394,0,0,0,29.42,20.88Z" fill="currentColor" /><circle cx="24" cy="12" r="5" fill="currentColor" /><circle cx="13" cy="12" r="4" fill="currentColor" /><circle cx="35" cy="12" r="4" fill="currentColor" /><path d="M3.43945,5.56055a1.49984,1.49984,0,0,0,2.1211-2.1211l-3-3a1.49984,1.49984,0,0,0-2.1211,2.1211Z" fill="currentColor" /><path d="M44.56055,5.56055l3-3a1.49984,1.49984,0,1,0-2.1211-2.1211l-3,3a1.49984,1.49984,0,0,0,2.1211,2.1211Z" fill="currentColor" /><path d="M4.5,34a1.49514,1.49514,0,0,0-1.06055.43945l-3,3a1.49984,1.49984,0,0,0,2.1211,2.1211l3-3A1.5,1.5,0,0,0,4.5,34Z" fill="currentColor" /><path d="M44.56055,34.43945a1.49984,1.49984,0,0,0-2.1211,2.1211l3,3a1.49984,1.49984,0,0,0,2.1211-2.1211Z" fill="currentColor" /></g></g></svg>
