<?xml version="1.0" encoding="UTF-8"?>
<svg xmlns="http://www.w3.org/2000/svg" id="people-with-physical-impairments" viewBox="0 0 45.998 48.001"><g fill="currentColor" data-name="Layer 2"><path d="M38.998 7.465A4 4 0 1 0 37.533 2a4 4 0 0 0 1.465 5.464zM30.218 34.233a2.997 2.997 0 0 0-3.96 1.524 10.775 10.775 0 0 1-9.758 6.244A10.512 10.512 0 0 1 6 31.501c0-5.691 5.037-10.5 11-10.5a3 3 0 1 0 0-6c-9.215 0-17 7.557-17 16.5a16.597 16.597 0 0 0 31.742 6.69 3 3 0 0 0-1.524-3.958z" /><path d="M45.202 23.966a3.01 3.01 0 0 0-2.392-.959l-8.82.551 5.538-8.047a2.096 2.096 0 0 0 .15-.3 2.47 2.47 0 0 0-.03-2.48 2.68 2.68 0 0 0-.68-.75l-3.5-2.43-8-5.57a2.494 2.494 0 0 0-3.24.25l-4.5 4.5a2.503 2.503 0 0 0 3.54 3.54l2.99-2.99 4.25 2.93-7 11.85a4.001 4.001 0 0 0 3.5 5.94l.054-.01c.042-.001.081.007.123.004l12.321-.77-1.478 10.352a3 3 0 1 0 5.94.849l2-14a2.998 2.998 0 0 0-.766-2.46z" /></g></svg>
