<?xml version="1.0" encoding="UTF-8"?>
<svg xmlns="http://www.w3.org/2000/svg" id="people-in-need-2" width="48" height="32" viewBox="0 0 48 32"><g id="Layer_2" data-name="Layer 2"><g id="Icons"><path d="M13,20.97a10.938,10.938,0,0,1,4.13-8.46A7.56514,7.56514,0,0,0,12.63,11,7.68978,7.68978,0,0,0,5,18.58V22h8Z" fill="currentColor" /><path d="M35,20.97V22h8V18.58A7.68978,7.68978,0,0,0,35.37,11a7.56514,7.56514,0,0,0-4.5,1.51A10.938,10.938,0,0,1,35,20.97Z" fill="currentColor" /><path d="M15,22v3H33V20.97a9.00051,9.00051,0,0,0-18,0Z" fill="currentColor" /><circle cx="24" cy="5" r="5" fill="currentColor" /><circle cx="13" cy="5" r="4" fill="currentColor" /><circle cx="35" cy="5" r="4" fill="currentColor" /><path d="M46.5,29H1.5a1.5,1.5,0,0,0,0,3h45a1.5,1.5,0,0,0,0-3Z" fill="currentColor" /></g></g></svg>
