<?xml version="1.0" encoding="UTF-8"?>
<svg xmlns="http://www.w3.org/2000/svg" id="people-reached" width="48" height="40" viewBox="0 0 48 40"><g id="Layer_2" data-name="Layer 2"><g id="Icons"><path d="M13,28.97a10.938,10.938,0,0,1,4.13-8.46A7.56514,7.56514,0,0,0,12.63,19,7.68978,7.68978,0,0,0,5,26.58V30h8Z" fill="currentColor" /><path d="M35,28.97V30h8V26.58A7.68978,7.68978,0,0,0,35.37,19a7.56514,7.56514,0,0,0-4.5,1.51A10.938,10.938,0,0,1,35,28.97Z" fill="currentColor" /><path d="M15,30v3H33V28.97a9.00051,9.00051,0,0,0-18,0Z" fill="currentColor" /><circle cx="24" cy="13" r="5" fill="currentColor" /><circle cx="13" cy="13" r="4" fill="currentColor" /><circle cx="35" cy="13" r="4" fill="currentColor" /><path d="M47.56067.43933A1.49524,1.49524,0,0,0,46.5,0H1.5A1.49942,1.49942,0,0,0,0,1.5V34a1.50552,1.50552,0,0,0,.02515.25A1.50552,1.50552,0,0,0,0,34.5v4A1.5,1.5,0,0,0,1.5,40h45A1.5,1.5,0,0,0,48,38.5V1.5A1.49569,1.49569,0,0,0,47.56067.43933ZM2.97485,34.25A1.50552,1.50552,0,0,0,3,34V3H45V37H3V34.5A1.50552,1.50552,0,0,0,2.97485,34.25Z" fill="currentColor" /></g></g></svg>
