<?xml version="1.0" encoding="UTF-8"?>
<svg xmlns="http://www.w3.org/2000/svg" id="permanent-camp" viewBox="0 0 48.001 48.001"><g fill="currentColor" data-name="Layer 2"><rect width="48" height="6" x=".001" y="42.001" rx="1" /><path d="M5.437 17.558l.002.004.014.009a1.498 1.498 0 0 0 .473.314c.013.005.027.007.04.012a1.481 1.481 0 0 0 .52.101l.015.003.013-.002a1.494 1.494 0 0 0 .524-.102c.012-.005.025-.007.037-.011a1.504 1.504 0 0 0 .48-.32l.007-.004.003-.004 4.997-4.997a1.5 1.5 0 0 0-2.121-2.122L8 12.88V1.5a1.5 1.5 0 0 0-3 0v11.38l-2.44-2.44a1.5 1.5 0 0 0-2.122 2.12zM12.331 21.671l-2.33 17.33h18v-9.71a.3.3 0 0 1 .56-.14l5.44 9.85h13l-2.33-17.33a1.496 1.496 0 0 0-.59-1.01l-14.58-11.32a1.651 1.651 0 0 0-2 0l-14.58 11.32a1.496 1.496 0 0 0-.59 1.01z" /></g></svg>
