<?xml version="1.0" encoding="UTF-8"?>
<svg xmlns="http://www.w3.org/2000/svg" id="physical-distancing" viewBox="0 0 48 48"><g data-name="Layer 2"><path fill="currentColor" d="M39 7.5a1.444 1.444 0 0 1-.029.285 1.486 1.486 0 0 1-.079.266l-.003.01a1.495 1.495 0 0 1-.376.539l-5.976 5.966a1.485 1.485 0 1 1-2.102-2.098L33.91 9H14.091l3.474 3.468a1.485 1.485 0 0 1-2.102 2.098L9.486 8.599a1.496 1.496 0 0 1-.375-.538l-.004-.011A1.49 1.49 0 0 1 9 7.5a1.492 1.492 0 0 1 .107-.548l.004-.014a1.497 1.497 0 0 1 .372-.535l5.98-5.968a1.485 1.485 0 1 1 2.102 2.097L14.09 6h19.818l-3.474-3.468A1.485 1.485 0 0 1 32.537.435l5.98 5.968a1.496 1.496 0 0 1 .372.535l.004.014v.002a1.492 1.492 0 0 1 .078.262 1.453 1.453 0 0 1 .029.283zM47 21a4 4 0 1 0-4 4 4 4 0 0 0 4-4zm1 6.862A14.611 14.611 0 0 0 43 27c-7.411 0-13 5.16-13 12a2 2 0 1 0 4 0 7.449 7.449 0 0 1 4-6.745V48h10V32.255zM5 25a4 4 0 1 0-4-4 4 4 0 0 0 4 4zm0 2a14.611 14.611 0 0 0-5 .862V48h10V32.255A7.449 7.449 0 0 1 14 39a2 2 0 0 0 4 0c0-6.84-5.589-12-13-12z" data-name="Expanded Icons" /></g></svg>
