<?xml version="1.0" encoding="UTF-8"?>
<svg xmlns="http://www.w3.org/2000/svg" id="plastic-sheeting" viewBox="0 0 44 44"><g fill="currentColor" data-name="Layer 2"><path d="M37 0H5.33A5.424 5.424 0 0 0 0 5.5v37.58a.905.905 0 0 0 .89.92H16V32a3.999 3.999 0 0 1 4-4h12V14h5a7 7 0 0 0 0-14zM4.29 13.29l6-6a1.004 1.004 0 1 1 1.42 1.42l-6 6a1.014 1.014 0 0 1-1.42 0 1.008 1.008 0 0 1 0-1.42zm15.42-2.58l-16 16a1.014 1.014 0 0 1-1.42 0 1.008 1.008 0 0 1 0-1.42l16-16a1.004 1.004 0 1 1 1.42 1.42zM32 12v-.11a.578.578 0 0 0 .11.11zm5-1a4 4 0 1 1 4-4 3.999 3.999 0 0 1-4 4z" /><path d="M18 32v12l14-14H20a2.006 2.006 0 0 0-2 2z" /></g></svg>
