<?xml version="1.0" encoding="UTF-8"?>
<svg xmlns="http://www.w3.org/2000/svg" id="police-station" viewBox="0 0 32 48"><g fill="currentColor" data-name="Layer 2"><path d="M30 6H2a2.006 2.006 0 0 0-2 2v22h32V8a2.006 2.006 0 0 0-2-2zm-7 14a6.92 6.92 0 0 1-.54 2.7.037.037 0 0 1-.01.03 7.006 7.006 0 0 1-12.9 0 .037.037 0 0 1-.01-.03A6.92 6.92 0 0 1 9 20v-8.25a1.014 1.014 0 0 1 .73-.96l6-1.71a.99.99 0 0 1 .54 0l6 1.71a1.014 1.014 0 0 1 .73.96zM6 4h20a2 2 0 0 0 0-4H6a2 2 0 0 0 0 4zM0 48h12V38a2.006 2.006 0 0 1 2-2h4a2.006 2.006 0 0 1 2 2v10h12V32H0z" /><path d="M19.48 16.63l-1.88-.04a.51.51 0 0 1-.48-.37l-.62-1.85a.524.524 0 0 0-1 0l-.62 1.85a.51.51 0 0 1-.48.37l-1.88.04a.556.556 0 0 0-.31.99l1.5 1.19a.564.564 0 0 1 .18.6l-.54 1.88a.534.534 0 0 0 .81.61l1.54-1.12a.51.51 0 0 1 .6 0l1.54 1.12a.534.534 0 0 0 .81-.61l-.54-1.88a.564.564 0 0 1 .18-.6l1.5-1.19a.556.556 0 0 0-.31-.99z" /></g></svg>
