<?xml version="1.0" encoding="UTF-8"?>
<svg xmlns="http://www.w3.org/2000/svg" id="population-growth" viewBox="0 0 48 48"><g fill="currentColor" data-name="Layer 2"><circle cx="43.5" cy="43.5" r="4.5" /><circle cx="43.5" cy="31.5" r="4.5" /><circle cx="43.5" cy="19.5" r="4.5" /><circle cx="31.5" cy="43.5" r="4.5" /><circle cx="31.5" cy="31.5" r="4.5" /><circle cx="19.5" cy="43.5" r="4.5" /><circle cx="7.5" cy="43.5" r="4.5" /><circle cx="19.5" cy="31.5" r="4.5" /><circle cx="31.5" cy="19.5" r="4.5" /><circle cx="43.5" cy="7.5" r="4.5" /><path d="M19 6.828V11a2 2 0 0 0 4 0V2a2 2 0 0 0-2-2h-9a2 2 0 0 0 0 4h4.172L.586 19.586a2 2 0 1 0 2.828 2.828z" /></g></svg>
