<?xml version="1.0" encoding="UTF-8"?>
<svg xmlns="http://www.w3.org/2000/svg" id="population-return" viewBox="0 0 47.996 42.988"><g fill="currentColor" data-name="Layer 2"><path d="M38.895 30.972c.035.002.07.01.106.01a8.995 8.995 0 1 0 0-17.99l-9.502.002a1.5 1.5 0 0 0 0 3l9.502-.002a5.995 5.995 0 1 1 0 11.99 1.476 1.476 0 0 0-.165.017c-.035-.003-.07-.01-.106-.01h-3.599l4.152-4.153a1.5 1.5 0 1 0-2.12-2.12l-6.713 6.711a1.5 1.5 0 0 0 0 2.122l6.712 6.712a1.5 1.5 0 1 0 2.121-2.12l-4.152-4.153h3.599a1.476 1.476 0 0 0 .165-.016zM29.798 2.75A4 4 0 1 0 27.25 7.8a4 4 0 0 0 2.548-5.05zM20.735 23.5l3.931-7.789a4.853 4.853 0 0 0-2.146-6.519l-2.556-1.29a1.97 1.97 0 0 0-.427-.152 14.18 14.18 0 0 0-18.302 6.508 2.068 2.068 0 0 0 3.681 1.884 10.047 10.047 0 0 1 10.197-5.375L.228 39.953a2.087 2.087 0 1 0 3.719 1.896l9.042-17.729 4.475 2.26a10.137 10.137 0 0 1 4.152 13.56 2.087 2.087 0 1 0 3.704 1.923A14.317 14.317 0 0 0 20.735 23.5z" /></g></svg>
