<?xml version="1.0" encoding="UTF-8"?>
<svg xmlns="http://www.w3.org/2000/svg" id="port-affected" viewBox="0 0 48 48"><g fill="currentColor" data-name="Layer 2"><path d="M20 10a10 10 0 1 0-10 10 10.004 10.004 0 0 0 10-10zM9 4a1 1 0 0 1 2 0v8a1 1 0 0 1-2 0zm0 12a1 1 0 1 1 1 1 1.003 1.003 0 0 1-1-1z" /><path d="M47.121 33.879a2.999 2.999 0 0 0-4.242 0A19.498 19.498 0 0 1 32 39.368V26h7a3 3 0 0 0 0-6h-7v-7a5.68 5.68 0 0 0 3-5 6 6 0 0 0-12 0 5.68 5.68 0 0 0 3 5v7h-7a3 3 0 0 0 0 6h7v13.368a19.498 19.498 0 0 1-10.879-5.49 3 3 0 1 0-4.242 4.243 25.494 25.494 0 0 0 15.165 7.317 2.986 2.986 0 0 0 5.912 0 25.494 25.494 0 0 0 15.165-7.317 2.999 2.999 0 0 0 0-4.242zM29 10a2 2 0 1 1 2-2 2.006 2.006 0 0 1-2 2z" /></g></svg>
