<?xml version="1.0" encoding="UTF-8"?>
<svg xmlns="http://www.w3.org/2000/svg" id="port-closed" viewBox="0 0 48 48"><path fill="currentColor" d="M10 5a3.003 3.003 0 0 0-3 3h6a3.003 3.003 0 0 0-3-3z" /><path fill="currentColor" d="M20 10a10 10 0 1 0-10 10 10.003 10.003 0 0 0 10-10zM5 14V8a5 5 0 0 1 10 0v6a2 2 0 0 1-2 2H7a2 2 0 0 1-2-2z" /><path fill="currentColor" d="M47.121 33.879a2.999 2.999 0 0 0-4.242 0A19.498 19.498 0 0 1 32 39.368V26h7a3 3 0 0 0 0-6h-7v-7a5.68 5.68 0 0 0 3-5 6 6 0 0 0-12 0 5.68 5.68 0 0 0 3 5v7h-7a3 3 0 0 0 0 6h7v13.368a19.498 19.498 0 0 1-10.879-5.49 3 3 0 1 0-4.242 4.243 25.494 25.494 0 0 0 15.165 7.317 2.986 2.986 0 0 0 5.912 0 25.494 25.494 0 0 0 15.165-7.317 2.999 2.999 0 0 0 0-4.242zM29 10a2 2 0 1 1 2-2 2.006 2.006 0 0 1-2 2z" /><rect width="4" height="4" x="8" y="10" fill="currentColor" rx="1" /></svg>
