<?xml version="1.0" encoding="UTF-8"?>
<svg xmlns="http://www.w3.org/2000/svg" id="port" viewBox="0 0 38 48"><path fill="currentColor" d="M37.121 32.879a2.999 2.999 0 0 0-4.242 0A18.954 18.954 0 0 1 22 38V24h7a3 3 0 0 0 0-6h-7v-6.81a6 6 0 1 0-6 0V18H9a3 3 0 0 0 0 6h7v14a18.954 18.954 0 0 1-10.879-5.121A3 3 0 0 0 .88 37.12 24.905 24.905 0 0 0 16 44v1a3 3 0 0 0 6 0v-1a24.905 24.905 0 0 0 15.121-6.879 2.999 2.999 0 0 0 0-4.242zM19 4a2 2 0 1 1-2 2 2.006 2.006 0 0 1 2-2z" data-name="Layer 2" /></svg>
