<?xml version="1.0" encoding="UTF-8"?>
<svg xmlns="http://www.w3.org/2000/svg" id="potable-water-source" viewBox="0 0 32.007 44"><g fill="currentColor" data-name="Layer 2"><path d="M16.007 17a3.999 3.999 0 0 0 4-4c0-1.9-2.96-5.76-3.79-6.89a.252.252 0 0 0-.42 0c-.83 1.13-3.79 4.99-3.79 6.89a3.999 3.999 0 0 0 4 4z" /><path d="M30.994 0H1.014a.96.96 0 0 0-1.01.99l3.7 40.49A2.927 2.927 0 0 0 6.714 44h18.58a2.927 2.927 0 0 0 3.01-2.52l3.7-40.49a.96.96 0 0 0-1.01-.99zm-4.77 20.24a13.154 13.154 0 0 0-2.6-.24 11.47 11.47 0 0 0-5.31 1.17 7.65 7.65 0 0 1-3.69.83 7.636 7.636 0 0 1-3.68-.83A11.433 11.433 0 0 0 5.764 20L4.304 4h23.4z" /></g></svg>
