<?xml version="1.0" encoding="UTF-8"?>
<svg xmlns="http://www.w3.org/2000/svg" id="poverty" viewBox="0 0 35.993 48"><g fill="currentColor" data-name="Layer 2"><path d="M34.846 28.49L26.996 13h-18l-7.85 15.49a13.959 13.959 0 0 0 2.83 15.28A13.816 13.816 0 0 0 13.996 48h8a13.816 13.816 0 0 0 10.02-4.23 13.959 13.959 0 0 0 2.83-15.28zm-10.29 6.95a1.491 1.491 0 0 1 0 2.12 1.497 1.497 0 0 1-2.12 0l-4.44-4.44-4.44 4.44a1.497 1.497 0 0 1-2.12 0 1.491 1.491 0 0 1 0-2.12l4.44-4.44-4.44-4.44a1.5 1.5 0 0 1 2.12-2.12l4.44 4.44 4.44-4.44a1.5 1.5 0 0 1 2.12 2.12L20.116 31zM8.99 11h8.003l-1.65-7.434A2 2 0 0 0 13.392 2h-5.4a1 1 0 0 0-.977 1.217zM22.997 11h3.998l1.984-9.82a1.005 1.005 0 0 0-.99-1.18h-2.991a2.03 2.03 0 0 0-2.004 2 2.018 2.018 0 0 0-1.991-2h-3a1.005 1.005 0 0 0-.99 1.18l1.98 9.82z" /></g></svg>
