<?xml version="1.0" encoding="UTF-8"?>
<svg xmlns="http://www.w3.org/2000/svg" id="power-electricity-not-affected" viewBox="0 0 48 48"><g fill="currentColor" data-name="Layer 2"><path d="M47 13h-4V2a2 2 0 0 0-4 0v11h-8V2a2 2 0 0 0-4 0v11h-4a1 1 0 0 0-1 1v8a13.95 13.95 0 0 0 7 11.994V37a1 1 0 0 0 1 1h2v10h6V38h2a1 1 0 0 0 1-1v-3.006A13.95 13.95 0 0 0 48 22v-8a1 1 0 0 0-1-1zM10 0a10 10 0 1 0 10 10A10.004 10.004 0 0 0 10 0zm5.65 7.76l-7 6A1.007 1.007 0 0 1 8 14a1.024 1.024 0 0 1-.71-.29l-3-3a1.004 1.004 0 0 1 1.42-1.42l2.34 2.35 6.3-5.4a1 1 0 0 1 1.3 1.52z" /></g></svg>
