<?xml version="1.0" encoding="UTF-8"?>
<svg xmlns="http://www.w3.org/2000/svg" id="power-outage" viewBox="0 0 48 48"><g fill="currentColor" data-name="Layer 2"><path d="M47 13h-4V2a2 2 0 0 0-4 0v11h-8V2a2 2 0 0 0-4 0v11h-4a1 1 0 0 0-1 1v8a13.95 13.95 0 0 0 7 11.994V37a1 1 0 0 0 1 1h2v10h6V38h2a1 1 0 0 0 1-1v-3.006A13.95 13.95 0 0 0 48 22v-8a1 1 0 0 0-1-1zM10 0a10 10 0 1 0 10 10A10.004 10.004 0 0 0 10 0zm4.71 13.29a1.008 1.008 0 0 1 0 1.42 1.014 1.014 0 0 1-1.42 0L10 11.42l-3.29 3.29a1.014 1.014 0 0 1-1.42 0 1.008 1.008 0 0 1 0-1.42L8.58 10 5.29 6.71a1.004 1.004 0 0 1 1.42-1.42L10 8.58l3.29-3.29a1.004 1.004 0 1 1 1.42 1.42L11.42 10z" /></g></svg>
