<?xml version="1.0" encoding="UTF-8"?>
<svg xmlns="http://www.w3.org/2000/svg" id="pregnant" viewBox="0 0 28.001 48"><g fill="currentColor" data-name="Layer 2"><path d="M22.001 18.02V18l-1.12-6.65a1.413 1.413 0 0 0-1.3-1.35h-6.74a.17.17 0 0 0-.07.01l-.006.001A13.009 13.009 0 0 0 0 23a2 2 0 0 0 4 0 9.412 9.412 0 0 1 7.001-9l-4.97 20.19a1.426 1.426 0 0 0 1.2 1.81h3.77v10a2 2 0 0 0 4 0V36h2v10a2 2 0 0 0 4 0V34.8a5.902 5.902 0 0 0 1.79-3.05 7.021 7.021 0 0 0-.79-13.73zm2.36 7.82l-.26.27-1.35 1.4-1.23 1.27a.724.724 0 0 1-1.04 0l-1.46-1.51-1.12-1.16-.26-.27a2.322 2.322 0 0 1 .05-3.25 2.191 2.191 0 0 1 3.11.12l.2.2.2-.2a2.267 2.267 0 0 1 .93-.59 2.125 2.125 0 0 1 2.18.47 2.322 2.322 0 0 1 .05 3.25z" /><circle cx="17.001" cy="4" r="4" /></g></svg>
