<?xml version="1.0" encoding="UTF-8"?>
<svg xmlns="http://www.w3.org/2000/svg" id="preparedness" viewBox="0 0 48 48"><g fill="currentColor" fill-rule="evenodd" data-name="Layer 2"><path d="M13.414 35.586a2 2 0 0 0-2.828 0L7.5 38.672l-3.086-3.086a2 2 0 0 0-2.828 2.828L4.672 41.5l-3.086 3.086a2 2 0 1 0 2.828 2.828L7.5 44.328l3.086 3.086a2 2 0 0 0 2.828-2.828L10.328 41.5l3.086-3.086a2 2 0 0 0 0-2.828zM12.586 17.586L6 24.172l-2.586-2.586a2 2 0 0 0-2.828 2.828l4 4a2 2 0 0 0 2.828 0l8-8a2 2 0 0 0-2.828-2.828zM45 22H23a3 3 0 0 0 0 6h22a3 3 0 0 0 0-6zM12.586.586L6 7.172 3.414 4.586A2 2 0 0 0 .586 7.414l4 4a2 2 0 0 0 2.828 0l8-8A2 2 0 1 0 12.586.586zM23 11h22a3 3 0 0 0 0-6H23a3 3 0 0 0 0 6zM45 39H23a3 3 0 0 0 0 6h22a3 3 0 0 0 0-6z" /></g></svg>
