<?xml version="1.0" encoding="UTF-8"?>
<svg xmlns="http://www.w3.org/2000/svg" id="print" viewBox="0 0 48 42"><g fill="currentColor" data-name="Layer 2"><path d="M44 1c0-.552-.689-1-1.538-1H5.538C4.688 0 4 .448 4 1v3h40zM46 6H2a2.006 2.006 0 0 0-2 2v15.96a2.006 2.006 0 0 0 2 2h6v-9.97h32v9.97h6a2.006 2.006 0 0 0 2-2V8a2.006 2.006 0 0 0-2-2zm-15 7a2 2 0 1 1 2-2 2.006 2.006 0 0 1-2 2zm7 0a2 2 0 1 1 2-2 2.006 2.006 0 0 1-2 2z" /><path d="M10 25.96V41a1.003 1.003 0 0 0 1 1h26a1.003 1.003 0 0 0 1-1V17.99H10zM34 35H14a1 1 0 0 1 0-2h20a1 1 0 0 1 0 2zm0-6H14a1 1 0 0 1 0-2h20a1 1 0 0 1 0 2z" /></g></svg>
