<?xml version="1.0" encoding="UTF-8"?>
<svg xmlns="http://www.w3.org/2000/svg" id="radio" viewBox="0 0 48 39"><path fill="currentColor" d="M45 10H16.767l22.75-6.068A2 2 0 0 0 38.482.07l-37 9.868A2 2 0 0 0 .007 12H0v24a3.009 3.009 0 0 0 3 3h42a3.009 3.009 0 0 0 3-3V13a3.009 3.009 0 0 0-3-3zM9 33.5a1.5 1.5 0 0 1-3 0v-9a1.5 1.5 0 0 1 3 0zm7 0a1.5 1.5 0 0 1-3 0v-9a1.5 1.5 0 0 1 3 0zm7 0a1.5 1.5 0 0 1-3 0v-9a1.5 1.5 0 0 1 3 0zM36 35a6 6 0 1 1 6-6 6.005 6.005 0 0 1-6 6zm4.5-17h-33a1.5 1.5 0 0 1 0-3h33a1.5 1.5 0 0 1 0 3z" data-name="Layer 2" /></svg>
