<?xml version="1.0" encoding="UTF-8"?>
<svg xmlns="http://www.w3.org/2000/svg" id="rebel" viewBox="0 0 48 48"><g fill="currentColor" data-name="Layer 2"><circle cx="21.5" cy="8.5" r="6.5" /><path d="M0 38.95a3.047 3.047 0 0 0 3.166 3.047A3.093 3.093 0 0 0 6 38.853 14.578 14.578 0 0 1 12 27v17.03A3.97 3.97 0 0 0 15.97 48h11.06a3.99 3.99 0 0 0 2.826-1.179.51.51 0 0 0 .144-.36V19.58A22.665 22.665 0 0 0 21.5 18C9.22 18 0 26.95 0 38.95zM48 23v-2.893a2.074 2.074 0 0 0-1.664-2.08A2.001 2.001 0 0 0 44 20v3a2.002 2.002 0 0 1-2 2V11a2.006 2.006 0 0 0-2-2V.5a.5.5 0 0 0-.5-.5H37a1 1 0 0 0 0 2v7.28A1.997 1.997 0 0 0 36 11v6h-1a2.006 2.006 0 0 0-2 2v15a2.006 2.006 0 0 0 2 2h1v10a2.006 2.006 0 0 0 2 2h5a2.004 2.004 0 0 0 1.94-2.49S42 36.08 42 36h3.893a2.074 2.074 0 0 0 2.08-1.664A2.001 2.001 0 0 0 46 32h-4v-3a6.007 6.007 0 0 0 6-6z" /></g></svg>
