<?xml version="1.0" encoding="UTF-8"?>
<svg xmlns="http://www.w3.org/2000/svg" id="registration" viewBox="0 0 48 32"><path fill="currentColor" d="M45 0H3a3.009 3.009 0 0 0-3 3v26a3.009 3.009 0 0 0 3 3h42a3.009 3.009 0 0 0 3-3V3a3.009 3.009 0 0 0-3-3zM8.46 5.46A5.022 5.022 0 1 1 7 9a5.022 5.022 0 0 1 1.46-3.54zM20 26H4v-1a8 8 0 1 1 16 0zm20.52-2H25.49a1.5 1.5 0 0 1 0-3h15.03a1.5 1.5 0 0 1 0 3zm0-6H25.49a1.5 1.5 0 0 1 0-3h15.03a1.5 1.5 0 0 1 0 3zm0-6H25.49a1.5 1.5 0 0 1 0-3h15.03a1.5 1.5 0 0 1 0 3z" data-name="Layer 2" /></svg>
