<?xml version="1.0" encoding="UTF-8"?>
<svg xmlns="http://www.w3.org/2000/svg" id="relief-goods" viewBox="0 0 34 48"><g fill="currentColor" data-name="Layer 2"><path d="M17 0A17 17 0 0 0 0 17h34A17 17 0 0 0 17 0zM28.461 19.418L17.001 30.42 5.538 19.418a1.5 1.5 0 0 0-2.078 2.164l12.5 12c.01.01.023.012.033.021a1.494 1.494 0 0 0 .447.287c.011.005.022.006.034.01a1.437 1.437 0 0 0 1.05 0c.012-.004.023-.005.034-.01a1.494 1.494 0 0 0 .447-.287c.01-.009.023-.012.033-.021l12.5-12a1.5 1.5 0 0 0-2.078-2.164z" /><rect width="12" height="12" x="11" y="36" rx="1" /></g></svg>
