<?xml version="1.0" encoding="UTF-8"?>
<svg xmlns="http://www.w3.org/2000/svg" id="remote-support" viewBox="0 0 48 48"><g data-name="Layer 2"><path fill="currentColor" d="M43.81 17.083a19.973 19.973 0 0 0-39.523-.01A4.996 4.996 0 0 0 0 22.011v8.978A5.01 5.01 0 0 0 5.01 36h3.986A2.004 2.004 0 0 0 11 33.996V19.004A2.004 2.004 0 0 0 8.996 17H8.34a15.99 15.99 0 0 1 31.416 0h-.752A2.004 2.004 0 0 0 37 19.004v14.992A2.004 2.004 0 0 0 39.004 36h.948a7.117 7.117 0 0 1-7.015 6h-3.492a4 4 0 1 0 0 4h3.492a11.122 11.122 0 0 0 11.06-10.102A5.012 5.012 0 0 0 48 30.99v-8.978a5 5 0 0 0-4.19-4.928z" data-name="Expanded Icons" /></g></svg>
