<?xml version="1.0" encoding="UTF-8"?>
<svg xmlns="http://www.w3.org/2000/svg" id="report" viewBox="0 0 36 48"><g fill="currentColor" data-name="Layer 2"><path d="M35 0H13a1.003 1.003 0 0 0-1 1v11h11a3.008 3.008 0 0 1 2.23 1H32a1 1 0 0 1 0 2h-6v3h6a1 1 0 0 1 0 2h-6v3h6a1 1 0 0 1 0 2h-6v9h9a1.003 1.003 0 0 0 1-1V1a1.003 1.003 0 0 0-1-1zm-3 10H16a1 1 0 0 1 0-2h16a1 1 0 0 1 0 2z" /><path d="M23 14H1a1.003 1.003 0 0 0-1 1v32a1.003 1.003 0 0 0 1 1h22a1.003 1.003 0 0 0 1-1V15a1.003 1.003 0 0 0-1-1zM4 22h16a1 1 0 0 1 0 2H4a1 1 0 0 1 0-2zm0 5h16a1 1 0 0 1 0 2H4a1 1 0 0 1 0-2zm16 12H4a1 1 0 0 1 0-2h16a1 1 0 0 1 0 2zM4 34a1 1 0 0 1 0-2h16a1 1 0 0 1 0 2z" /></g></svg>
