<?xml version="1.0" encoding="UTF-8"?>
<svg xmlns="http://www.w3.org/2000/svg" id="reporting" viewBox="0 0 47.978 48"><g fill="currentColor" data-name="Layer 2"><path d="M26.56 28.69l-6.18 1.72a2.02 2.02 0 0 1-.6.08 2.245 2.245 0 0 1-1.79-.89 2.046 2.046 0 0 1-.32-.6H6a1 1 0 0 1 0-2h11.79l1.11-4H6a1 1 0 0 1 0-2h13.51a2.807 2.807 0 0 1 .59-.86L23.24 17H6a1 1 0 0 1 0-2h19.24L30 10.24V7a.972.972 0 0 0-.94-1H.94A.972.972 0 0 0 0 7v40a.972.972 0 0 0 .94 1H21v-6a3.009 3.009 0 0 1 3-3h6V25.8l-2.12 2.12a2.996 2.996 0 0 1-1.32.77zM13 35H6a1 1 0 0 1 0-2h7a1 1 0 0 1 0 2z" /><path d="M24 41a1.003 1.003 0 0 0-1 1v6l7-7h-6zM47.13 1.16A3.511 3.511 0 0 0 44.52 0a3.46 3.46 0 0 0-2.47 1.03L30 13.07l-3.01 3.01-.91.91-4.57 4.57a.923.923 0 0 0-.25.44l-1.49 5.36-.23.82a.244.244 0 0 0 .24.31.195.195 0 0 0 .07-.01l.03-.01 6.15-1.71a.941.941 0 0 0 .43-.25L30 22.97 46.86 6.11a3.638 3.638 0 0 0 .27-4.95z" /></g></svg>
