<?xml version="1.0" encoding="UTF-8"?>
<svg xmlns="http://www.w3.org/2000/svg" id="resilience" viewBox="0 0 48 48"><g fill="currentColor" data-name="Layer 2"><path d="M46.68 1.32a4.496 4.496 0 0 0-7.16 1.08 6.294 6.294 0 0 1 2.04 2.74 6.466 6.466 0 0 1-.11 4.98L39 15.63V43.5a4.5 4.5 0 0 0 9 0v-39a4.456 4.456 0 0 0-1.32-3.18z" /><path d="M39.62 9.31a4.5 4.5 0 0 0-8.24-3.62l-.46 1.04a6.158 6.158 0 0 1 .95 8.15L18.71 34.2l-3.33 7.48a4.512 4.512 0 0 0 2.31 5.94 4.63 4.63 0 0 0 1.81.38 4.508 4.508 0 0 0 4.12-2.69L39 10.71z" /><path d="M20.12 28.58l3.13-4.59 6.97-10.23a4.244 4.244 0 0 0-.94-5.79 1.639 1.639 0 0 0-.26-.2 4.425 4.425 0 0 0-.6-.34 4.633 4.633 0 0 0-5.74 1.54l-21.9 32A4.45 4.45 0 0 0 0 43.49a4.495 4.495 0 0 0 8.22 2.53l8.73-12.81z" /></g></svg>
