<?xml version="1.0" encoding="UTF-8"?>
<svg xmlns="http://www.w3.org/2000/svg" id="respiratory" viewBox="0 0 48 43"><g data-name="Layer 2"><path fill="currentColor" d="M19 26.604v13.4A2.995 2.995 0 0 1 16.005 43H2.995A2.995 2.995 0 0 1 0 40.005V20.567A16.567 16.567 0 0 1 16.567 4 2.432 2.432 0 0 1 19 6.433v8.82l-5.525 5.565-2.647-2.646a4 4 0 0 0-5.656 5.656l2.666 2.666-1.665 1.677a4 4 0 1 0 5.66 5.652zM31.433 4A2.432 2.432 0 0 0 29 6.433v8.91l5.5 5.5 2.672-2.671a4 4 0 1 1 5.656 5.656L40.156 26.5l1.672 1.672a4 4 0 1 1-5.656 5.656L29 26.657v13.348A2.995 2.995 0 0 0 31.995 43h13.01A2.995 2.995 0 0 0 48 40.005V20.567A16.567 16.567 0 0 0 31.433 4zm9.981 15.586a2 2 0 0 0-2.828 0L34.5 23.672l-8.5-8.5V2a2 2 0 0 0-4 0v13.07l-8.52 8.581-4.066-4.065a2 2 0 0 0-2.828 2.828l4.075 4.075-3.075 3.097a2 2 0 0 0 2.828 2.828L23.95 18.778l13.636 13.636a2 2 0 0 0 2.828-2.828L37.328 26.5l4.086-4.086a2 2 0 0 0 0-2.828z" data-name="Expanded Icons" /></g></svg>
