<?xml version="1.0" encoding="UTF-8"?>
<svg xmlns="http://www.w3.org/2000/svg" id="rice" viewBox="0 0 48 29"><g fill="currentColor" data-name="Layer 2"><path d="M5.5 13h2a1.5 1.5 0 0 0 0-3h-2a1.5 1.5 0 0 0 0 3zM12.5 13h2a1.5 1.5 0 0 0 0-3h-2a1.5 1.5 0 0 0 0 3zM19.5 13h2a1.5 1.5 0 0 0 0-3h-2a1.5 1.5 0 0 0 0 3zM26.5 13h2a1.5 1.5 0 0 0 0-3h-2a1.5 1.5 0 0 0 0 3zM33.5 13h2a1.5 1.5 0 0 0 .001-3h-2a1.5 1.5 0 1 0-.001 3zM12.5 8h2a1.5 1.5 0 0 0 0-3h-2a1.5 1.5 0 1 0 0 3zM19.5 8h2a1.5 1.5 0 0 0 0-3h-2a1.5 1.5 0 1 0 0 3zM26.5 8h2a1.5 1.5 0 0 0 0-3h-2a1.5 1.5 0 0 0 0 3zM19.5 3h2a1.5 1.5 0 0 0 0-3h-2a1.5 1.5 0 0 0 0 3zM26.5 3h2a1.5 1.5 0 0 0 0-3h-2a1.5 1.5 0 0 0 0 3zM33.5 8h2a1.5 1.5 0 0 0 .001-3h-2a1.5 1.5 0 1 0-.001 3zM40.5 13h2a1.5 1.5 0 0 0 .001-3h-2a1.5 1.5 0 1 0-.001 3zM47 15H1a1 1 0 0 0-1 1 13 13 0 0 0 13 13h22a13 13 0 0 0 13-13 1 1 0 0 0-1-1z" /></g></svg>
