<?xml version="1.0" encoding="UTF-8"?>
<svg xmlns="http://www.w3.org/2000/svg" id="road-not-affected" viewBox="0 0 48 48"><g fill="currentColor" data-name="Layer 2"><path d="M20 10a10 10 0 1 0-10 10 10.004 10.004 0 0 0 10-10zm-4.35-2.24l-7 6A1.007 1.007 0 0 1 8 14a1.024 1.024 0 0 1-.71-.29l-3-3a1.004 1.004 0 0 1 1.42-1.42l2.34 2.35 6.3-5.4a1 1 0 0 1 1.3 1.52z" /><path d="M18.3 0A12.993 12.993 0 0 1 16 21.53V48h32V0zM34 42a2 2 0 0 1-4 0v-6a2.006 2.006 0 0 1 2-2 2.015 2.015 0 0 1 2 2zm0-15a2 2 0 0 1-4 0v-6a2.006 2.006 0 0 1 2-2 2.015 2.015 0 0 1 2 2zm0-15a2 2 0 0 1-4 0V6a2.006 2.006 0 0 1 2-2 2.015 2.015 0 0 1 2 2z" /></g></svg>
