<?xml version="1.0" encoding="UTF-8"?>
<svg xmlns="http://www.w3.org/2000/svg" id="robbery" viewBox="0 0 48 48"><g fill="currentColor" data-name="Layer 2"><path d="M19.208 19c-3.848-.549-7.478-2.71-8.978-6.212l-.223-.522A2.083 2.083 0 0 0 8 11.008V11H2.236A2.236 2.236 0 0 0 0 13.236v15.528a2.195 2.195 0 0 0 .026.255 1.979 1.979 0 0 0-.026.254V46a2 2 0 0 0 4 0V31h2v15a2 2 0 0 0 4 0V29.273a1.979 1.979 0 0 0-.026-.254 2.195 2.195 0 0 0 .026-.255V19.24A17.118 17.118 0 0 0 18.618 23a2.166 2.166 0 0 0 .298 0 1.96 1.96 0 0 0 2.063-1.639A2.089 2.089 0 0 0 19.208 19z" /><circle cx="5" cy="5" r="4" /><circle cx="34" cy="6" r="4" /><path d="M46 0a2 2 0 0 0-2 2 10.133 10.133 0 0 1-10 10c-5.13 0-9-4.299-9-10a2 2 0 0 0-4 0c0 6.051 3.216 10.968 8 12.995V28.82a2.164 2.164 0 0 0 .023.226 1.964 1.964 0 0 0-.023.226V46a2 2 0 0 0 4 0V31h2v15a2 2 0 0 0 4 0V29.273a1.964 1.964 0 0 0-.023-.226A2.164 2.164 0 0 0 39 28.82V15.025A14.208 14.208 0 0 0 48 2a2 2 0 0 0-2-2z" /></g></svg>
