<?xml version="1.0" encoding="UTF-8"?>
<svg xmlns="http://www.w3.org/2000/svg" id="rural-exodus" viewBox="0 0 48 48"><g fill="currentColor" data-name="Layer 2"><path d="M1.5 11h11.41l-3.475 3.468A1.483 1.483 0 0 0 10.486 17a1.483 1.483 0 0 0 1.051-.435l5.977-5.966a1.497 1.497 0 0 0 .375-.538l.004-.012a1.492 1.492 0 0 0 .078-.264A1.44 1.44 0 0 0 18 9.5a1.455 1.455 0 0 0-.029-.284 1.483 1.483 0 0 0-.076-.26l-.002-.004-.004-.014a1.498 1.498 0 0 0-.372-.535l-3.54-3.534-2.44-2.434a1.485 1.485 0 1 0-2.102 2.097L12.91 8H1.5a1.5 1.5 0 0 0 0 3zM46.93 16H45v-2.94A1.054 1.054 0 0 0 43.94 12H42V1.5a1.5 1.5 0 0 0-3 0V12h-1.94A1.054 1.054 0 0 0 36 13.06V16h-1.93A1.071 1.071 0 0 0 33 17.07V45h-9v-6.18a6.5 6.5 0 1 0-3 0V45H0v3h48V17.07A1.071 1.071 0 0 0 46.93 16zM42 31.5a.495.495 0 0 1 .5-.5h2a.495.495 0 0 1 .5.5v2a.495.495 0 0 1-.5.5h-2a.495.495 0 0 1-.5-.5zm2.5-3.5h-2a.495.495 0 0 1-.5-.5v-2a.495.495 0 0 1 .5-.5h2a.495.495 0 0 1 .5.5v2a.495.495 0 0 1-.5.5zm0-6h-2a.495.495 0 0 1-.5-.5v-2a.495.495 0 0 1 .5-.5h2a.495.495 0 0 1 .5.5v2a.495.495 0 0 1-.5.5zM36 19.5a.495.495 0 0 1 .5-.5h2a.495.495 0 0 1 .5.5v2a.495.495 0 0 1-.5.5h-2a.495.495 0 0 1-.5-.5zm0 6a.495.495 0 0 1 .5-.5h2a.495.495 0 0 1 .5.5v2a.495.495 0 0 1-.5.5h-2a.495.495 0 0 1-.5-.5zm0 6a.495.495 0 0 1 .5-.5h2a.495.495 0 0 1 .5.5v2a.495.495 0 0 1-.5.5h-2a.495.495 0 0 1-.5-.5zM42 45v-5a1.003 1.003 0 0 1 1-1h1a1.003 1.003 0 0 1 1 1v5z" /></g></svg>
