<?xml version="1.0" encoding="UTF-8"?>
<svg xmlns="http://www.w3.org/2000/svg" id="safety-and-security" viewBox="0 0 32 41.982"><path fill="currentColor" d="M31.19 2.972l-15-2.95a.812.812 0 0 0-.38 0l-15 2.95a.997.997 0 0 0-.81.98v20.18c0 9.86 7.3 17.85 16 17.85s16-7.99 16-17.85V3.953a.997.997 0 0 0-.81-.98zm-8.51 18.3l-.7.69-5.62 5.87a.507.507 0 0 1-.72 0l-5.62-5.87-.7-.69a4.334 4.334 0 0 1-.06-6.17 4.23 4.23 0 0 1 2.89-1.13 4.274 4.274 0 0 1 2.99 1.22l.86.79.86-.79a4.274 4.274 0 0 1 2.99-1.22 4.23 4.23 0 0 1 2.89 1.13 4.334 4.334 0 0 1-.06 6.17z" data-name="Layer 2" /></svg>
