<?xml version="1.0" encoding="UTF-8"?>
<svg xmlns="http://www.w3.org/2000/svg" id="salt" viewBox="0 0 30 48"><g fill="currentColor" data-name="Layer 2"><path d="M28 13a13 13 0 0 0-26 0L0 47a1.003 1.003 0 0 0 1 1h28a1.003 1.003 0 0 0 1-1zm-6-6a2 2 0 1 1-2 2 2.006 2.006 0 0 1 2-2zm-7-4a2 2 0 1 1-2 2 2.006 2.006 0 0 1 2-2zM8 7a2 2 0 1 1-2 2 2.006 2.006 0 0 1 2-2zM4 44l2-27h18l2 27z" /><circle cx="9" cy="40" r="2" /><circle cx="15" cy="40" r="2" /><circle cx="21" cy="40" r="2" /><circle cx="9" cy="34" r="2" /><circle cx="15" cy="34" r="2" /><circle cx="9" cy="28" r="2" /></g></svg>
