<?xml version="1.0" encoding="UTF-8"?>
<svg xmlns="http://www.w3.org/2000/svg" id="sanitation" viewBox="0 0 48.002 47.998"><g fill="currentColor" data-name="Layer 2"><path d="M18.002 21.998a7.985 7.985 0 0 0 8-7.97c0-3.98-6.55-12.38-7.8-13.93a.254.254 0 0 0-.4 0c-1.25 1.55-7.8 9.95-7.8 13.93a7.985 7.985 0 0 0 8 7.97zM39.002 28.998h-13.5a3.517 3.517 0 0 0-3.5 3.5 3.504 3.504 0 0 0 3.5 3.5h5.5a2.015 2.015 0 0 1 2 2 2.006 2.006 0 0 1-2 2h-9a2.492 2.492 0 0 1-1.6-.6l-13.59-13.23a4.016 4.016 0 0 0-5.94.3 4.118 4.118 0 0 0 .39 5.49l15.23 14.87a4.004 4.004 0 0 0 2.83 1.17h19.68a9 9 0 0 0 9-9v-1a9 9 0 0 0-9-9z" /></g></svg>
