<?xml version="1.0" encoding="UTF-8"?>
<svg xmlns="http://www.w3.org/2000/svg" id="scale-up-operation" viewBox="0 0 48 48"><g fill="currentColor" data-name="Layer 2"><path d="M10 39a2 2 0 0 0 2-2V19.828l4.586 4.586a2 2 0 0 0 2.828-2.828l-8-8a2 2 0 0 0-2.828 0l-8 8a2 2 0 0 0 2.828 2.828L8 19.828V37a2 2 0 0 0 2 2zM39.414 13.586a2 2 0 0 0-2.828 0l-8 8a2 2 0 0 0 2.828 2.828L36 19.828V37a2 2 0 0 0 4 0V19.828l4.586 4.586a2 2 0 0 0 2.828-2.828z" /><rect width="48" height="4" y="44" rx="1" /><rect width="48" height="10" rx="1" /></g></svg>
