<?xml version="1.0" encoding="UTF-8"?>
<svg xmlns="http://www.w3.org/2000/svg" id="school-closed" viewBox="0 0 48 48"><path fill="currentColor" d="M46.5 45h-45a1.5 1.5 0 0 0 0 3h45a1.5 1.5 0 0 0 0-3zM10 20A10 10 0 1 0 0 10a10.004 10.004 0 0 0 10 10zM5 8a5 5 0 0 1 10 0v6a2 2 0 0 1-2 2H7a2 2 0 0 1-2-2z" /><path fill="currentColor" d="M13 22.65V27a1.003 1.003 0 0 1-1 1h-2a1.003 1.003 0 0 1-1-1v-4.04a12.97 12.97 0 0 1-5-1.43V43h16V33a2.006 2.006 0 0 1 2-2h4a2.006 2.006 0 0 1 2 2v10h16V18a1.003 1.003 0 0 0-1-1H33l-7-5.25V8h9V2h-9a2 2 0 0 0-4 0v2.99a13.01 13.01 0 0 1-9 17.66zM13 38a1.003 1.003 0 0 1-1 1h-2a1.003 1.003 0 0 1-1-1v-5a1.003 1.003 0 0 1 1-1h2a1.003 1.003 0 0 1 1 1zm22-16a1.003 1.003 0 0 1 1-1h2a1.003 1.003 0 0 1 1 1v5a1.003 1.003 0 0 1-1 1h-2a1.003 1.003 0 0 1-1-1zm0 11a1.003 1.003 0 0 1 1-1h2a1.003 1.003 0 0 1 1 1v5a1.003 1.003 0 0 1-1 1h-2a1.003 1.003 0 0 1-1-1zm-7-12a4 4 0 1 1-4-4 3.999 3.999 0 0 1 4 4zM10 5a3.003 3.003 0 0 0-3 3h6a3.003 3.003 0 0 0-3-3z" /><rect width="4" height="4" x="8" y="10" fill="currentColor" rx="1" /></svg>
