<?xml version="1.0" encoding="UTF-8"?>
<svg xmlns="http://www.w3.org/2000/svg" id="school" viewBox="0 0 48 48"><g fill="currentColor" data-name="Layer 2"><path d="M46.5 45h-45a1.5 1.5 0 0 0 0 3h45a1.5 1.5 0 0 0 0-3zM20 33a2.006 2.006 0 0 1 2-2h4a2.006 2.006 0 0 1 2 2v10h16V18a1.003 1.003 0 0 0-1-1H33l-7-5.25V8h9V2h-9a2 2 0 0 0-4 0v9.75L15 17H5a1.003 1.003 0 0 0-1 1v25h16zm15-11a1.003 1.003 0 0 1 1-1h2a1.003 1.003 0 0 1 1 1v5a1.003 1.003 0 0 1-1 1h-2a1.003 1.003 0 0 1-1-1zm0 11a1.003 1.003 0 0 1 1-1h2a1.003 1.003 0 0 1 1 1v5a1.003 1.003 0 0 1-1 1h-2a1.003 1.003 0 0 1-1-1zm-22 5a1.003 1.003 0 0 1-1 1h-2a1.003 1.003 0 0 1-1-1v-5a1.003 1.003 0 0 1 1-1h2a1.003 1.003 0 0 1 1 1zm0-11a1.003 1.003 0 0 1-1 1h-2a1.003 1.003 0 0 1-1-1v-5a1.003 1.003 0 0 1 1-1h2a1.003 1.003 0 0 1 1 1zm15-6a4 4 0 1 1-4-4 3.999 3.999 0 0 1 4 4z" /></g></svg>
