<?xml version="1.0" encoding="UTF-8"?>
<svg xmlns="http://www.w3.org/2000/svg" id="school-not-affected" viewBox="0 0 48 48"><g fill="currentColor" data-name="Layer 2"><path d="M46.5 45h-45a1.5 1.5 0 0 0 0 3h45a1.5 1.5 0 0 0 0-3zM13 22.65V27a1.003 1.003 0 0 1-1 1h-2a1.003 1.003 0 0 1-1-1v-4.04a12.97 12.97 0 0 1-5-1.43V43h16V33a2.006 2.006 0 0 1 2-2h4a2.006 2.006 0 0 1 2 2v10h16V18a1.003 1.003 0 0 0-1-1H33l-7-5.25V8h9V2h-9a2 2 0 0 0-4 0v2.99a13.011 13.011 0 0 1-9 17.66zM13 38a1.003 1.003 0 0 1-1 1h-2a1.003 1.003 0 0 1-1-1v-5a1.003 1.003 0 0 1 1-1h2a1.003 1.003 0 0 1 1 1zm22-16a1.003 1.003 0 0 1 1-1h2a1.003 1.003 0 0 1 1 1v5a1.003 1.003 0 0 1-1 1h-2a1.003 1.003 0 0 1-1-1zm0 11a1.003 1.003 0 0 1 1-1h2a1.003 1.003 0 0 1 1 1v5a1.003 1.003 0 0 1-1 1h-2a1.003 1.003 0 0 1-1-1zm-7-12a4 4 0 1 1-4-4 3.999 3.999 0 0 1 4 4z" /><path d="M10 20A10 10 0 1 0 0 10a10.004 10.004 0 0 0 10 10zM4.29 9.29a1.008 1.008 0 0 1 1.42 0l2.34 2.35 6.3-5.4a1 1 0 0 1 1.3 1.52l-7 6A1.007 1.007 0 0 1 8 14a1.024 1.024 0 0 1-.71-.29l-3-3a1.008 1.008 0 0 1 0-1.42z" /></g></svg>
