<?xml version="1.0" encoding="UTF-8"?>
<svg xmlns="http://www.w3.org/2000/svg" id="search-and-rescue" viewBox="0 0 32 41.982"><g data-name="Layer 2"><path fill="currentColor" d="M31.19 2.972l-15-2.95a.812.812 0 0 0-.38 0l-15 2.95a.997.997 0 0 0-.81.98v20.18c0 9.86 7.3 17.85 16 17.85s16-7.99 16-17.85V3.953a.997.997 0 0 0-.81-.98zM9.692 12.76a1.504 1.504 0 0 1 1.2-.975l5.002-.715-2.331 6.99-3.856-3.855a.971.971 0 0 0-.452-.243zM26 21.61a1.5 1.5 0 0 1-1.288 1.486L19 23.912l-1 6-8 1-4-8 2.556-7.03 4.737 4.737a1.001 1.001 0 0 0 .707.293 1.022 1.022 0 0 0 .23-.026.999.999 0 0 0 .718-.657l2.842-8.527 3.21 3.21 3.795.76A1.5 1.5 0 0 1 26 17.141z" data-name="Expanded Icons" /></g></svg>
