<?xml version="1.0" encoding="UTF-8"?>
<svg xmlns="http://www.w3.org/2000/svg" id="secured" viewBox="0 0 44 48"><path fill="currentColor" d="M44 9.97v20.18C44 40.01 36.7 48 28 48s-16-7.99-16-17.85v-7.32A12.934 12.934 0 0 0 22.65 7.055l5.16-1.015a.812.812 0 0 1 .38 0l15 2.95a.997.997 0 0 1 .81.98zM0 10a10 10 0 1 1 10 10A10.004 10.004 0 0 1 0 10zm4.29.71l3 3A1.024 1.024 0 0 0 8 14a1.007 1.007 0 0 0 .65-.24l7-6a1 1 0 0 0-1.3-1.52l-6.3 5.4-2.34-2.35a1.004 1.004 0 0 0-1.42 1.42z" data-name="Layer 2" /></svg>
