<?xml version="1.0" encoding="UTF-8"?>
<svg xmlns="http://www.w3.org/2000/svg" id="services-and-tools" viewBox="0 0 48 48"><g fill="currentColor" data-name="Layer 2"><path d="M15.871 25.393a1.505 1.505 0 0 0-2.121 0l-12 12a6.018 6.018 0 0 0 0 8.485l.372.372a6.018 6.018 0 0 0 8.486 0l12-12a1.504 1.504 0 0 0 0-2.121zM30.466 21.068l7.939-7.938 5.45-.755a1.805 1.805 0 0 0 1.36-.969l2.561-5.026a1.806 1.806 0 0 0-.332-2.097L43.717.556A1.805 1.805 0 0 0 41.62.224l-5.026 2.56a1.806 1.806 0 0 0-.969 1.362l-.755 5.448-7.939 7.94z" /><path d="M35.903 30.541l-18.46-18.458A9 9 0 0 0 7.724.087a1.006 1.006 0 0 0-.562 1.706l3.862 3.862a3.65 3.65 0 0 1 0 5.157l-.22.22a3.647 3.647 0 0 1-5.158.001L1.792 7.18a1.006 1.006 0 0 0-1.705.56 8.99 8.99 0 0 0 11.975 9.703l18.48 18.48a9.002 9.002 0 0 0 9.729 11.987 1.006 1.006 0 0 0 .559-1.705l-3.416-3.416a3.526 3.526 0 0 1 0-4.987l.38-.38a3.527 3.527 0 0 1 4.988 0l3.42 3.418a1.006 1.006 0 0 0 1.705-.557 9.003 9.003 0 0 0-12.004-9.742z" /></g></svg>
