<?xml version="1.0" encoding="UTF-8"?>
<svg xmlns="http://www.w3.org/2000/svg" id="sexual-and-reproductive-health" viewBox="0 0 47.997 42.002"><path fill="currentColor" d="M44.517 3.95l-.37-.38a11.703 11.703 0 0 0-16.83 0L23.998 7l-3.31-3.43a11.703 11.703 0 0 0-16.83 0l-.37.38a12.397 12.397 0 0 0 0 17.24l19.62 20.43a1.215 1.215 0 0 0 1.77 0l19.64-20.43a12.416 12.416 0 0 0 0-17.24zm-13.11 18.46a1.954 1.954 0 0 1-1.41.59h-4v4a2 2 0 0 1-4 0v-4h-4a2 2 0 1 1 0-4h4v-4a2.001 2.001 0 0 1 3.41-1.42 1.96 1.96 0 0 1 .59 1.42v4h4a2 2 0 0 1 2 2 1.954 1.954 0 0 1-.59 1.41z" data-name="Layer 2" /></svg>
