<?xml version="1.0" encoding="UTF-8"?>
<svg xmlns="http://www.w3.org/2000/svg" id="sexual-violence" viewBox="0 0 48 48"><g fill="currentColor" data-name="Layer 2"><path d="M35 10c-7.411 0-13 5.16-13 12a2 2 0 0 0 4 0 7.7 7.7 0 0 1 4.317-6.893l-3.303 18.729A1 1 0 0 0 28 35h2v11a2 2 0 0 0 4 0V35h2v11a2 2 0 0 0 4 0V35h2a1 1 0 0 0 .986-1.164l-3.21-18.68A7.69 7.69 0 0 1 44 22a2 2 0 0 0 4 0c0-6.84-5.589-12-13-12z" /><circle cx="35" cy="4" r="4" /><path d="M12.496 40.999a1.5 1.5 0 0 0-1.5 1.5v3.999a1.5 1.5 0 0 0 3 0v-4a1.5 1.5 0 0 0-1.5-1.5zM23.498 34.002h-4a1.5 1.5 0 1 0 0 3h4a1.5 1.5 0 0 0 0-3zM12.502 23a1.5 1.5 0 0 0-1.5 1.5v3.999a1.5 1.5 0 1 0 3 0V24.5a1.5 1.5 0 0 0-1.5-1.5zM6.999 35.496a1.5 1.5 0 0 0-1.5-1.5H1.5a1.5 1.5 0 0 0 0 3h3.999a1.5 1.5 0 0 0 1.5-1.5zM18.56 39.435a1.5 1.5 0 1 0-2.122 2.121l3.003 3.004a1.5 1.5 0 1 0 2.122-2.122zM18.556 31.563l3.004-3.003a1.5 1.5 0 0 0-2.122-2.122l-3.003 3.003a1.5 1.5 0 0 0 2.121 2.122zM6.441 31.563a1.5 1.5 0 0 0 2.122-2.122L5.56 26.438a1.5 1.5 0 1 0-2.122 2.122zM6.441 39.435l-3.003 3.003A1.5 1.5 0 0 0 5.56 44.56l3.003-3.004a1.5 1.5 0 1 0-2.122-2.12z" /></g></svg>
