<?xml version="1.0" encoding="UTF-8"?>
<svg xmlns="http://www.w3.org/2000/svg" id="shelter" viewBox="0 0 48 48"><g fill="currentColor" data-name="Layer 2"><path d="M24 17.994c-5.986 0-10.5 4.084-10.5 9.5a1.5 1.5 0 0 0 3 0 6.23 6.23 0 0 1 3.5-5.55V46.5a1.5 1.5 0 0 0 3 0V34h2v12.5a1.5 1.5 0 0 0 3 0V21.944a6.23 6.23 0 0 1 3.5 5.55 1.5 1.5 0 0 0 3 0c0-5.416-4.514-9.5-10.5-9.5z" /><circle cx="24.052" cy="13" r="3" /><path d="M46.757 12.84L25.257.34a2.499 2.499 0 0 0-2.514 0l-21.5 12.5A2.5 2.5 0 0 0 0 15v30.5a2.5 2.5 0 0 0 5 0V16.44L24 5.392l19 11.047V45.5a2.5 2.5 0 0 0 5 0V15a2.5 2.5 0 0 0-1.243-2.16z" /></g></svg>
