<?xml version="1.0" encoding="UTF-8"?>
<svg xmlns="http://www.w3.org/2000/svg" id="ship" viewBox="0 0 48 48"><g fill="currentColor" data-name="Layer 2"><rect width="8" height="8" x="14" rx="1" /><rect width="8" height="8" x="24" rx="1" /><path d="M9.33 32a4.684 4.684 0 0 0 2.71-.76A8.6 8.6 0 0 1 16.66 30a8.67 8.67 0 0 1 4.63 1.24A4.638 4.638 0 0 0 24 32a4.627 4.627 0 0 0 2.7-.76A8.64 8.64 0 0 1 31.33 30a8.6 8.6 0 0 1 4.62 1.24 4.633 4.633 0 0 0 2.43.75 20.146 20.146 0 0 0 4.61-10.82 1.987 1.987 0 0 0-2-2.17H5.01a1.987 1.987 0 0 0-2 2.17A20.114 20.114 0 0 0 7.3 31.59a4.276 4.276 0 0 0 2.03.41zM46 42a8.588 8.588 0 0 0-4.626 1.244 5.239 5.239 0 0 1-5.421 0A8.588 8.588 0 0 0 31.327 42a8.59 8.59 0 0 0-4.624 1.244 4.692 4.692 0 0 1-2.708.756 4.697 4.697 0 0 1-2.71-.756A8.583 8.583 0 0 0 16.662 42a8.59 8.59 0 0 0-4.624 1.244A4.692 4.692 0 0 1 9.33 44a4.691 4.691 0 0 1-2.707-.756A8.585 8.585 0 0 0 2 42a2 2 0 0 0 0 4 4.69 4.69 0 0 1 2.707.756A8.586 8.586 0 0 0 9.33 48a8.58 8.58 0 0 0 4.623-1.244A4.694 4.694 0 0 1 16.661 46a4.697 4.697 0 0 1 2.71.756A8.583 8.583 0 0 0 23.995 48a8.58 8.58 0 0 0 4.624-1.244 5.234 5.234 0 0 1 5.419 0 9.221 9.221 0 0 0 9.251 0A4.702 4.702 0 0 1 46 46a2 2 0 0 0 0-4zM2 38a4.69 4.69 0 0 1 2.707.756A8.586 8.586 0 0 0 9.33 40a8.58 8.58 0 0 0 4.623-1.244A4.694 4.694 0 0 1 16.661 38a4.697 4.697 0 0 1 2.71.756A8.583 8.583 0 0 0 23.995 40a8.58 8.58 0 0 0 4.624-1.244 5.234 5.234 0 0 1 5.419 0 9.221 9.221 0 0 0 9.251 0A4.702 4.702 0 0 1 46 38a2 2 0 0 0 0-4 8.588 8.588 0 0 0-4.626 1.244 5.239 5.239 0 0 1-5.421 0A8.588 8.588 0 0 0 31.327 34a8.59 8.59 0 0 0-4.624 1.244 4.692 4.692 0 0 1-2.708.756 4.697 4.697 0 0 1-2.71-.756A8.583 8.583 0 0 0 16.662 34a8.59 8.59 0 0 0-4.624 1.244A4.692 4.692 0 0 1 9.33 36a4.691 4.691 0 0 1-2.707-.756A8.585 8.585 0 0 0 2 34a2 2 0 0 0 0 4z" /><rect width="30" height="5" x="8" y="11" rx="1" /></g></svg>
