<?xml version="1.0" encoding="UTF-8"?>
<svg xmlns="http://www.w3.org/2000/svg" id="shower" viewBox="0 0 42 48"><g fill="currentColor" data-name="Layer 2"><path d="M22 0a7.008 7.008 0 0 0-7 7v2.293C8.153 10.633 3 16.32 3 21h30c0-4.68-5.153-10.368-12-11.707V7a1 1 0 0 1 1-1h20V0zM33.818 23H2.182a2.008 2.008 0 1 0 0 4h31.636a2.008 2.008 0 1 0 0-4zM17.924 30.036c-.466.566-2.924 3.617-2.924 5.066a3.002 3.002 0 0 0 6 0c0-1.449-2.458-4.5-2.924-5.066a.099.099 0 0 0-.152 0zM10.924 40.036C10.458 40.602 8 43.653 8 45.102a3.002 3.002 0 0 0 6 0c0-1.449-2.458-4.5-2.924-5.066a.099.099 0 0 0-.152 0zM24.924 40.036c-.466.566-2.924 3.617-2.924 5.066a3.002 3.002 0 0 0 6 0c0-1.449-2.458-4.5-2.924-5.066a.099.099 0 0 0-.152 0zM3.924 30.036C3.458 30.602 1 33.653 1 35.102A2.95 2.95 0 0 0 4 38a2.95 2.95 0 0 0 3-2.898c0-1.449-2.458-4.5-2.924-5.066a.099.099 0 0 0-.152 0zM31.924 30.036c-.466.566-2.924 3.617-2.924 5.066a3.002 3.002 0 0 0 6 0c0-1.449-2.458-4.5-2.924-5.066a.099.099 0 0 0-.152 0z" /></g></svg>
