<?xml version="1.0" encoding="UTF-8"?>
<svg xmlns="http://www.w3.org/2000/svg" id="snow-avalanche" viewBox="0 0 48 48"><g fill="currentColor" data-name="Layer 2"><path d="M36.19 7.333a1.474 1.474 0 0 0 1.943.488l.867-.47V8.5a1.5 1.5 0 0 0 3 0V7.352l.867.47a1.474 1.474 0 0 0 1.942-.489 1.289 1.289 0 0 0-.52-1.821L43.343 5l.946-.512a1.289 1.289 0 0 0 .52-1.821 1.474 1.474 0 0 0-1.942-.488l-.867.47V1.5a1.5 1.5 0 0 0-3 0v1.148l-.867-.47a1.474 1.474 0 0 0-1.942.489 1.289 1.289 0 0 0 .52 1.821l.946.512-.946.512a1.289 1.289 0 0 0-.52 1.821zM47.61 19.706a4.233 4.233 0 0 0-2.396-2.39 4.648 4.648 0 0 0-3.47.01 1.37 1.37 0 0 0-.577 1.923 1.472 1.472 0 0 0 1.705.733 2.274 2.274 0 0 1 1.196.107 1.406 1.406 0 0 1 .771.764 2.235 2.235 0 0 1-1.249 2.892 3.21 3.21 0 0 1-2.477.01 3.097 3.097 0 0 1-1.692-1.72L32.854 7.856a1.5 1.5 0 1 0-2.709 1.288l6.536 14.108a6.017 6.017 0 0 0 3.287 3.276 6.184 6.184 0 0 0 2.365.472 6.274 6.274 0 0 0 2.41-.486 5.239 5.239 0 0 0 2.868-6.808zM21.05 7.33a2.245 2.245 0 0 0-4.1 0L.196 44.84A2.246 2.246 0 0 0 2.256 48h33.488a2.25 2.25 0 0 0 2.06-3.17zM15 22l4-9 4 9z" /></g></svg>
