<?xml version="1.0" encoding="UTF-8"?>
<svg xmlns="http://www.w3.org/2000/svg" id="snowfall" viewBox="0 0 43.641 48"><path fill="currentColor" d="M41.12 20.26a1.911 1.911 0 0 0 .52.07 2 2 0 0 0 .52-3.93l-2.17-.58 1.88-1.09a1.998 1.998 0 1 0-2-3.46l-1.88 1.08.58-2.16a1.999 1.999 0 1 0-3.86-1.04l-1.62 6.03-6.47 3.74a7.039 7.039 0 0 0-2.8-1.63v-6.46l4.41-4.42a1.994 1.994 0 0 0-2.82-2.82l-1.59 1.58V2a2 2 0 0 0-4 0v3.17l-1.59-1.58a1.994 1.994 0 1 0-2.82 2.82l4.41 4.42v6.46a7.039 7.039 0 0 0-2.8 1.63l-6.47-3.74-1.62-6.03a1.999 1.999 0 1 0-3.86 1.04l.58 2.16-1.88-1.08a1.998 1.998 0 1 0-2 3.46l1.88 1.09-2.17.58A2 2 0 0 0 2 20.33a1.911 1.911 0 0 0 .52-.07l6.03-1.61 6.47 3.73a6.663 6.663 0 0 0 0 3.24l-5.61 3.23-6.03-1.61a1.998 1.998 0 1 0-1.03 3.86l2.16.58-2.74 1.59A1.998 1.998 0 0 0 1.03 36a2.005 2.005 0 0 0 2.74.73l2.74-1.58-.58 2.16a2.002 2.002 0 0 0 1.42 2.45 1.86 1.86 0 0 0 .52.07 2.005 2.005 0 0 0 1.93-1.48l1.61-6.03 5.61-3.24a7.039 7.039 0 0 0 2.8 1.63v7.46l-4.41 4.42a1.994 1.994 0 1 0 2.82 2.82l1.59-1.58V46a2 2 0 0 0 4 0v-2.17l1.59 1.58a1.994 1.994 0 0 0 2.82-2.82l-4.41-4.42v-7.46a7.039 7.039 0 0 0 2.8-1.63l5.61 3.24 1.61 6.03a2.005 2.005 0 0 0 1.93 1.48 1.86 1.86 0 0 0 .52-.07 2.002 2.002 0 0 0 1.42-2.45l-.58-2.16 2.74 1.58a2.005 2.005 0 0 0 2.74-.73 1.998 1.998 0 0 0-.74-2.73l-2.74-1.59 2.16-.58a1.998 1.998 0 1 0-1.03-3.86l-6.03 1.61-5.61-3.23a6.663 6.663 0 0 0 0-3.24l6.47-3.73zM21.82 27a3 3 0 1 1 3-3 2.996 2.996 0 0 1-3 3z" data-name="Layer 2" /></svg>
