<?xml version="1.0" encoding="UTF-8"?>
<svg xmlns="http://www.w3.org/2000/svg" id="soap" viewBox="0 0 48 48"><g fill="currentColor" data-name="Layer 2"><path d="M40 23h-2.08a6.99 6.99 0 0 0-13.84 0H8a8.023 8.023 0 0 0-8 8v9a8.024 8.024 0 0 0 8 8h32a8.024 8.024 0 0 0 8-8v-9a8.023 8.023 0 0 0-8-8zm-12.87 0a3.996 3.996 0 0 1 7.74 0 3.658 3.658 0 0 1 .13 1 4 4 0 0 1-8 0 3.658 3.658 0 0 1 .13-1zM20.5 36a3.5 3.5 0 1 1 3.5-3.5 3.504 3.504 0 0 1-3.5 3.5zM18.5 17A8.5 8.5 0 1 0 10 8.5a8.506 8.506 0 0 0 8.5 8.5zm0-14A5.5 5.5 0 1 1 13 8.5 5.497 5.497 0 0 1 18.5 3z" /></g></svg>
