<?xml version="1.0" encoding="UTF-8"?>
<svg xmlns="http://www.w3.org/2000/svg" id="spontaneous-site" viewBox="0 0 42.001 48"><g fill="currentColor" data-name="Layer 2"><path d="M5.44 17.562c.003.004.009.005.013.009a1.5 1.5 0 0 0 .473.314c.013.005.027.007.04.012a1.492 1.492 0 0 0 .52.102l.015.002.013-.002a1.49 1.49 0 0 0 .525-.103l.036-.01a1.507 1.507 0 0 0 .48-.32l.007-.004.002-.004 4.998-4.997a1.5 1.5 0 0 0-2.121-2.122L8 12.88V1.5a1.5 1.5 0 0 0-3 0v11.38l-2.44-2.44a1.5 1.5 0 0 0-2.122 2.12l4.998 4.998zM41.562 10.44a1.5 1.5 0 0 0-2.121 0L37 12.878V1.5a1.5 1.5 0 0 0-3 0v11.38l-2.44-2.44a1.5 1.5 0 0 0-2.122 2.12l4.998 4.998.002.004c.004.004.01.005.014.009a1.5 1.5 0 0 0 .473.314c.013.005.027.007.04.012a1.492 1.492 0 0 0 .52.102l.015.002.013-.002a1.49 1.49 0 0 0 .525-.103l.036-.01a1.507 1.507 0 0 0 .48-.32l.007-.004.002-.004 4.998-4.997a1.5 1.5 0 0 0 0-2.122zM37 29.66L22.03 18.34a1.741 1.741 0 0 0-2.06 0L5 29.66a1.522 1.522 0 0 0-.61 1.01L2 48h18v-9.71c0-.3.45-.4.62-.14L26.15 48H40l-2.39-17.33a1.522 1.522 0 0 0-.61-1.01z" /></g></svg>
