<?xml version="1.0" encoding="UTF-8"?>
<svg xmlns="http://www.w3.org/2000/svg" id="storm" viewBox="0 0 47.98 48"><g fill="currentColor" data-name="Layer 2"><path d="M38.98 9.01a8.732 8.732 0 0 0-3.16.58l-.01.005a11.49 11.49 0 0 0-22.823 1.757 5.977 5.977 0 0 0-7.91 6.69l-.007-.002a3.81 3.81 0 0 0-.59-.04 4.5 4.5 0 0 0 0 9h34.5a9.003 9.003 0 0 0 8.83-7.24 9.297 9.297 0 0 0 .17-1.76 8.992 8.992 0 0 0-9-8.99zM28.48 37h-6.293l3.565-5.705a1.5 1.5 0 1 0-2.544-1.59l-5 8A1.5 1.5 0 0 0 19.48 40h6.293l-3.565 5.705a1.5 1.5 0 1 0 2.544 1.59l5-8A1.5 1.5 0 0 0 28.48 37z" /></g></svg>
