<?xml version="1.0" encoding="UTF-8"?>
<svg xmlns="http://www.w3.org/2000/svg" id="storm-surge" viewBox="0 0 48 48"><g fill="currentColor" data-name="Layer 2"><path d="M46 42a8.603 8.603 0 0 0-4.62 1.24 5.23 5.23 0 0 1-5.43 0A8.603 8.603 0 0 0 31.33 42a8.644 8.644 0 0 0-4.63 1.24A4.626 4.626 0 0 1 24 44a4.637 4.637 0 0 1-2.71-.76A8.673 8.673 0 0 0 16.66 42a8.603 8.603 0 0 0-4.62 1.24 4.683 4.683 0 0 1-2.71.76 4.684 4.684 0 0 1-2.71-.76A8.603 8.603 0 0 0 2 42a2 2 0 0 0 0 4 4.684 4.684 0 0 1 2.71.76A8.603 8.603 0 0 0 9.33 48a8.603 8.603 0 0 0 4.62-1.24 4.684 4.684 0 0 1 2.71-.76 4.66 4.66 0 0 1 2.71.76A8.644 8.644 0 0 0 24 48a8.632 8.632 0 0 0 4.62-1.24 5.212 5.212 0 0 1 5.42 0 9.245 9.245 0 0 0 9.25 0A4.66 4.66 0 0 1 46 46a2 2 0 0 0 0-4zM46 34a8.603 8.603 0 0 0-4.62 1.24 5.23 5.23 0 0 1-5.43 0A8.603 8.603 0 0 0 31.33 34a8.644 8.644 0 0 0-4.63 1.24A4.626 4.626 0 0 1 24 36a4.637 4.637 0 0 1-2.71-.76A8.673 8.673 0 0 0 16.66 34a8.603 8.603 0 0 0-4.62 1.24 4.683 4.683 0 0 1-2.71.76 4.684 4.684 0 0 1-2.71-.76A8.603 8.603 0 0 0 2 34a2 2 0 0 0 0 4 4.684 4.684 0 0 1 2.71.76A8.603 8.603 0 0 0 9.33 40a8.603 8.603 0 0 0 4.62-1.24 4.684 4.684 0 0 1 2.71-.76 4.66 4.66 0 0 1 2.71.76A8.644 8.644 0 0 0 24 40a8.632 8.632 0 0 0 4.62-1.24 5.212 5.212 0 0 1 5.42 0 9.245 9.245 0 0 0 9.25 0A4.66 4.66 0 0 1 46 38a2 2 0 0 0 0-4zM8 22h28.5a7.516 7.516 0 0 0 7.33-5.9 7.625 7.625 0 0 0 .17-1.6A7.503 7.503 0 0 0 36.5 7a7.378 7.378 0 0 0-2.71.51l-.002.001a9.497 9.497 0 0 0-18.784 1.913A4.99 4.99 0 0 0 8 14a4 4 0 0 0 0 8zM10.988 24.518l-3.464 3.464a1.768 1.768 0 0 0 2.5 2.5l3.464-3.464a1.768 1.768 0 0 0-2.5-2.5zM22.986 24.518l-3.465 3.464a1.768 1.768 0 0 0 2.5 2.5l3.465-3.464a1.768 1.768 0 0 0-2.5-2.5zM34.982 24.518l-3.464 3.464a1.768 1.768 0 0 0 2.5 2.5l3.464-3.464a1.768 1.768 0 0 0-2.5-2.5z" /></g></svg>
