<?xml version="1.0" encoding="UTF-8"?>
<svg xmlns="http://www.w3.org/2000/svg" id="stove" viewBox="0 0 48 48"><g fill="currentColor" data-name="Layer 2"><path d="M46 36h-5v-6a2 2 0 0 0-2-2h-7a2 2 0 0 0 0 4h5v4H27v-3a3 3 0 0 0-6 0v3H11v-4h5a2 2 0 0 0 0-4H9a2 2 0 0 0-2 2v6H2a2.006 2.006 0 0 0-2 2v8a2.006 2.006 0 0 0 2 2h44a2.006 2.006 0 0 0 2-2v-8a2.006 2.006 0 0 0-2-2zm-20 7a2 2 0 0 1-4 0v-2a2.006 2.006 0 0 1 2-2 2.015 2.015 0 0 1 2 2zM12 17.995a2 2 0 1 0 4 0 9.703 9.703 0 0 0-1.213-4.897A5.786 5.786 0 0 1 14 10a5.778 5.778 0 0 1 .788-3.099A9.713 9.713 0 0 0 16 2.005a2 2 0 1 0-4 0 5.786 5.786 0 0 1-.787 3.098A9.703 9.703 0 0 0 10 10a9.713 9.713 0 0 0 1.212 4.896A5.778 5.778 0 0 1 12 17.995zM34 17.995a2 2 0 1 0 4 0 9.703 9.703 0 0 0-1.213-4.897A5.786 5.786 0 0 1 36 10a5.778 5.778 0 0 1 .788-3.099A9.713 9.713 0 0 0 38 2.005a2 2 0 1 0-4 0 5.786 5.786 0 0 1-.787 3.098A9.703 9.703 0 0 0 32 10a9.713 9.713 0 0 0 1.212 4.896A5.778 5.778 0 0 1 34 17.995zM23 17.995a2 2 0 1 0 4 0 9.703 9.703 0 0 0-1.213-4.897A5.786 5.786 0 0 1 25 10a5.778 5.778 0 0 1 .788-3.099A9.713 9.713 0 0 0 27 2.005a2 2 0 1 0-4 0 5.786 5.786 0 0 1-.787 3.098A9.703 9.703 0 0 0 21 10a9.713 9.713 0 0 0 1.212 4.896A5.778 5.778 0 0 1 23 17.995z" /></g></svg>
