<?xml version="1.0" encoding="UTF-8"?>
<svg xmlns="http://www.w3.org/2000/svg" id="submersible-pump" viewBox="0 0 48.01 48"><g fill="currentColor" data-name="Layer 2"><path d="M46.55 24h-6.56v-5a1 1 0 0 0-1-1H38V5.121l2.44 2.441a1.5 1.5 0 0 0 2.122-2.121L37.564.443l-.002-.004-.014-.009a1.503 1.503 0 0 0-.472-.314c-.014-.005-.028-.007-.041-.012a1.49 1.49 0 0 0-.52-.101L36.502 0l-.014.002a1.486 1.486 0 0 0-.524.102l-.036.012a1.502 1.502 0 0 0-.48.319l-.008.004-.002.004-4.998 4.998a1.5 1.5 0 1 0 2.122 2.121L35 5.122V18h-1a1 1 0 0 0-1 1v5h-9V4a4.012 4.012 0 0 0-4-4H9a4.012 4.012 0 0 0-4 4v20H1.47a1.468 1.468 0 0 0-1.46 1.46v4.74A9.33 9.33 0 0 1 2 30a8.602 8.602 0 0 1 4.62 1.24 4.684 4.684 0 0 0 2.71.76 4.684 4.684 0 0 0 2.71-.76A8.603 8.603 0 0 1 16.66 30a8.673 8.673 0 0 1 4.63 1.24A4.638 4.638 0 0 0 24 32a4.627 4.627 0 0 0 2.7-.76A8.644 8.644 0 0 1 31.33 30a8.603 8.603 0 0 1 4.62 1.24 5.23 5.23 0 0 0 5.43 0A8.602 8.602 0 0 1 46 30a9.531 9.531 0 0 1 2.01.2v-4.74A1.468 1.468 0 0 0 46.55 24zM46 42a8.585 8.585 0 0 0-4.625 1.244 5.241 5.241 0 0 1-5.423 0A8.586 8.586 0 0 0 31.326 42a8.577 8.577 0 0 0-4.623 1.244 4.692 4.692 0 0 1-2.708.756 4.696 4.696 0 0 1-2.709-.756A8.585 8.585 0 0 0 16.661 42a8.584 8.584 0 0 0-4.624 1.244A4.692 4.692 0 0 1 9.33 44a4.69 4.69 0 0 1-2.706-.756A8.586 8.586 0 0 0 2 42a2 2 0 0 0 0 4 4.691 4.691 0 0 1 2.707.756A8.585 8.585 0 0 0 9.329 48a8.584 8.584 0 0 0 4.624-1.244A4.692 4.692 0 0 1 16.661 46a4.696 4.696 0 0 1 2.71.756A8.585 8.585 0 0 0 23.994 48a8.593 8.593 0 0 0 4.624-1.244 5.234 5.234 0 0 1 5.42 0 9.22 9.22 0 0 0 9.25 0A4.702 4.702 0 0 1 46 46a2 2 0 0 0 0-4zM46 34a8.585 8.585 0 0 0-4.625 1.244 5.241 5.241 0 0 1-5.423 0A8.586 8.586 0 0 0 31.326 34a8.577 8.577 0 0 0-4.623 1.244 4.692 4.692 0 0 1-2.708.756 4.696 4.696 0 0 1-2.709-.756A8.585 8.585 0 0 0 16.661 34a8.584 8.584 0 0 0-4.624 1.244A4.692 4.692 0 0 1 9.33 36a4.69 4.69 0 0 1-2.706-.756A8.586 8.586 0 0 0 2 34a2 2 0 0 0 0 4 4.691 4.691 0 0 1 2.707.756A8.585 8.585 0 0 0 9.329 40a8.584 8.584 0 0 0 4.624-1.244A4.692 4.692 0 0 1 16.661 38a4.696 4.696 0 0 1 2.71.756A8.585 8.585 0 0 0 23.994 40a8.593 8.593 0 0 0 4.624-1.244 5.234 5.234 0 0 1 5.42 0 9.22 9.22 0 0 0 9.25 0A4.702 4.702 0 0 1 46 38a2 2 0 0 0 0-4z" /></g></svg>
