<?xml version="1.0" encoding="UTF-8"?>
<svg xmlns="http://www.w3.org/2000/svg" id="sugar" viewBox="0 0 48 48"><g fill="currentColor" data-name="Layer 2"><rect width="14" height="14" y="34" rx="2" /><path d="M7.756 30.537a2.006 2.006 0 0 0 2.464 1.39l9.317-2.368a2.006 2.006 0 0 0 1.39-2.463L18 17.463a2.006 2.006 0 0 0-2.463-1.39l-9.074 2.684a2.006 2.006 0 0 0-1.39 2.463z" /><rect width="14" height="14" x="25" y="18" rx="2" /><path d="M21.769 13.922l10.013 1.065A2.006 2.006 0 0 0 34 13.23l.987-10.013A2.006 2.006 0 0 0 33.23 1L23.39.013A2.006 2.006 0 0 0 21.17 1.77l-1.158 9.935a2.006 2.006 0 0 0 1.756 2.218z" /><rect width="14" height="14" x="17" y="34" rx="2" /><rect width="14" height="14" x="34" y="34" rx="2" /></g></svg>
