<?xml version="1.0" encoding="UTF-8"?>
<svg xmlns="http://www.w3.org/2000/svg" id="tarpaulin" viewBox="0 0 48 48"><g fill="currentColor" data-name="Layer 2"><path d="M46 20H2a1.915 1.915 0 0 0-2 1.81v24.38A1.915 1.915 0 0 0 2 48h34v-8a3.999 3.999 0 0 1 4-4h8V21.81A1.915 1.915 0 0 0 46 20zM5.5 28A2.5 2.5 0 1 1 8 25.5 2.5 2.5 0 0 1 5.5 28zM34.5 12A4.426 4.426 0 0 0 39 7.653c0-2.173-3.687-6.75-4.386-7.6a.148.148 0 0 0-.228 0C33.686.903 30 5.48 30 7.653A4.426 4.426 0 0 0 34.5 12zM21.5 12A4.426 4.426 0 0 0 26 7.653c0-2.173-3.687-6.75-4.386-7.6a.148.148 0 0 0-.228 0C20.686.903 17 5.48 17 7.653A4.426 4.426 0 0 0 21.5 12z" /><path d="M38 40v8l10-10h-8a2.006 2.006 0 0 0-2 2z" /></g></svg>
