<?xml version="1.0" encoding="UTF-8"?>
<svg xmlns="http://www.w3.org/2000/svg" id="technological-disaster" viewBox="0 0 48.001 43.003"><g fill="currentColor" data-name="Layer 2"><path d="M27.24 26.313a7.952 7.952 0 0 1-6.48 0l-7.62 12.82a.986.986 0 0 0 .4 1.39 23.383 23.383 0 0 0 20.92.02.986.986 0 0 0 .4-1.39zM18.63 13.083L11.5.523a.983.983 0 0 0-1.39-.37A22.48 22.48 0 0 0 0 17.953a1.01 1.01 0 0 0 1.01 1.05H16a7.97 7.97 0 0 1 2.63-5.92zM37.87.153a1 1 0 0 0-1.39.36l-7.12 12.56a7.985 7.985 0 0 1 2.64 5.93h15a1.008 1.008 0 0 0 1-1.05A22.416 22.416 0 0 0 37.87.153zM22.526 23.778a4.849 4.849 0 0 0 1.475.225 5.108 5.108 0 0 0 1.462-.212 5.014 5.014 0 1 0-2.937-.013z" /></g></svg>
