<?xml version="1.0" encoding="UTF-8"?>
<svg xmlns="http://www.w3.org/2000/svg" id="temporary-camp" viewBox="0 0 48 45.001"><g fill="currentColor" data-name="Layer 2"><path d="M38.5 5.002H16.505L16.5 5H5.121l2.44-2.44A1.5 1.5 0 0 0 5.442.439L.443 5.437l-.004.002-.009.014a1.499 1.499 0 0 0-.314.473c-.005.013-.007.026-.012.04a1.488 1.488 0 0 0-.101.52L0 6.501l.002.012a1.49 1.49 0 0 0 .102.526c.005.011.007.024.012.036a1.503 1.503 0 0 0 .318.48l.005.007.004.002 4.998 4.998a1.5 1.5 0 0 0 2.12-2.122L5.123 8.001H38.5a6.508 6.508 0 0 1 6.5 6.5v3a1.5 1.5 0 0 0 3 0v-3a9.51 9.51 0 0 0-9.5-9.5z" /><path d="M40 26.66L25.03 15.34a1.741 1.741 0 0 0-2.06 0L8 26.66a1.522 1.522 0 0 0-.61 1.01L5 45h18v-9.71c0-.3.45-.4.62-.14L29 45h14l-2.39-17.33a1.522 1.522 0 0 0-.61-1.01z" /></g></svg>
