<?xml version="1.0" encoding="UTF-8"?>
<svg xmlns="http://www.w3.org/2000/svg" id="toilet" viewBox="0 0 27.915 48"><g fill="currentColor" data-name="Layer 2"><path d="M27.913 26.633a.636.636 0 0 0-.68-.633H.683a.636.636 0 0 0-.681.633A13.49 13.49 0 0 0 8.957 38v6h-1a2 2 0 0 0 0 4h12a2 2 0 1 0 0-4h-1v-6a13.487 13.487 0 0 0 8.956-11.367zM2.957 4v19a1.003 1.003 0 0 0 1 1h20a1.003 1.003 0 0 0 1-1V4a2 2 0 0 0 0-4h-22a2 2 0 0 0 0 4zm4.5 2h3.5a1 1 0 0 1 0 2h-2.09a1.498 1.498 0 1 1-1.41-2z" /></g></svg>
