<?xml version="1.0" encoding="UTF-8"?>
<svg xmlns="http://www.w3.org/2000/svg" id="top-ranking" viewBox="0 0 48 48"><g fill="currentColor" data-name="Layer 2"><path d="M30.96 5H27.2a1.02 1.02 0 0 1-.96-.74L25 .735a1.048 1.048 0 0 0-2 0L21.76 4.26a1.02 1.02 0 0 1-.96.74h-3.76a1.113 1.113 0 0 0-.62 1.98l3.17 2.52a1.129 1.129 0 0 1 .36 1.2l-1.9 3.876a1.068 1.068 0 0 0 1.62 1.22l3.73-2.6a1.02 1.02 0 0 1 1.2 0l3.73 2.6a1.068 1.068 0 0 0 1.62-1.22l-1.9-3.876a1.129 1.129 0 0 1 .36-1.2l3.17-2.52A1.113 1.113 0 0 0 30.96 5zM30 25H18a1 1 0 0 0-1 1v22h14V26a1 1 0 0 0-1-1zM47 35H35a1 1 0 0 0-1 1v12h14V36a1 1 0 0 0-1-1zM13 31H1a1 1 0 0 0-1 1v16h14V32a1 1 0 0 0-1-1z" /></g></svg>
