<?xml version="1.0" encoding="UTF-8"?>
<svg xmlns="http://www.w3.org/2000/svg" id="trade-and-market" viewBox="0 0 48 48"><g fill="currentColor" data-name="Layer 2"><path d="M20.5 9.621l8.94 8.94a1.49 1.49 0 0 0 1.088.434 1.356 1.356 0 0 0 .993-.395L45 5.12V11.5a1.5 1.5 0 0 0 3 0v-10A1.5 1.5 0 0 0 46.5 0h-10a1.5 1.5 0 0 0 0 3h6.379L30.5 15.379 21.621 6.5a1.684 1.684 0 0 0-2.242 0L.439 25.44a1.5 1.5 0 0 0 2.122 2.12z" /><path d="M47.15 25h-36.3a.858.858 0 0 0-.85.86V28h34.05a.943.943 0 0 1 .95.95V43h2.15a.85.85 0 0 0 .85-.85V25.86a.858.858 0 0 0-.85-.86z" /><path d="M42.15 30H5.85a.85.85 0 0 0-.85.85v16.29a.858.858 0 0 0 .85.86h36.3a.858.858 0 0 0 .85-.86V30.85a.85.85 0 0 0-.85-.85zM11 41a2 2 0 1 1 2-2 2.006 2.006 0 0 1-2 2zm13 4a6 6 0 1 1 6-6 6.005 6.005 0 0 1-6 6zm13-4a2 2 0 1 1 2-2 2.006 2.006 0 0 1-2 2z" /></g></svg>
