<?xml version="1.0" encoding="UTF-8"?>
<svg xmlns="http://www.w3.org/2000/svg" id="transition-site" viewBox="0 0 48 44.001"><g fill="currentColor" data-name="Layer 2"><path d="M40 25.66L25.03 14.34a1.741 1.741 0 0 0-2.06 0L8 25.66a1.522 1.522 0 0 0-.61 1.01L5 44h18v-9.71c0-.3.45-.4.62-.14L29.15 44H43l-2.39-17.33a1.522 1.522 0 0 0-.61-1.01zM47.895 7.039a1.49 1.49 0 0 0 .102-.525c0-.005.003-.009.003-.013l-.003-.015a1.487 1.487 0 0 0-.101-.52c-.005-.014-.007-.027-.013-.04a1.5 1.5 0 0 0-.314-.473l-.008-.013-.004-.003L42.559.44a1.5 1.5 0 1 0-2.121 2.122L42.878 5H5.122l2.44-2.44A1.5 1.5 0 0 0 5.442.439L.443 5.437l-.004.003-.009.013a1.5 1.5 0 0 0-.314.473c-.005.013-.007.026-.012.04a1.487 1.487 0 0 0-.101.52L0 6.501l.002.013a1.49 1.49 0 0 0 .102.525l.012.036a1.5 1.5 0 0 0 .318.48l.005.007.004.003 4.998 4.997a1.5 1.5 0 0 0 2.12-2.121L5.123 8h37.755l-2.44 2.44a1.5 1.5 0 0 0 2.122 2.121l4.998-4.997.004-.003.004-.007a1.5 1.5 0 0 0 .32-.48l.01-.036z" /></g></svg>
