<?xml version="1.0" encoding="UTF-8"?>
<svg xmlns="http://www.w3.org/2000/svg" id="truck" viewBox="0 0 40 48"><g fill="currentColor" data-name="Layer 2"><path d="M12 7h16a11.98 11.98 0 0 1 10 5.38V2a1.993 1.993 0 0 0-2-2H4a1.993 1.993 0 0 0-2 2v10.38A11.98 11.98 0 0 1 12 7z" /><path d="M38.5 24.4a2.232 2.232 0 0 0-.5-.22 2.77 2.77 0 0 0-1-.18v-5a9.014 9.014 0 0 0-9-9H12a9.014 9.014 0 0 0-9 9v5a2.77 2.77 0 0 0-1 .18 2.232 2.232 0 0 0-.5.22A2.997 2.997 0 0 0 0 27v12a2.996 2.996 0 0 0 3 3v3.07A2.94 2.94 0 0 0 5.93 48h.14A2.94 2.94 0 0 0 9 45.07V42h22.04v3.07A2.94 2.94 0 0 0 33.97 48h.1A2.94 2.94 0 0 0 37 45.07V42a2.996 2.996 0 0 0 3-3V27a2.997 2.997 0 0 0-1.5-2.6zM5.5 34A2.5 2.5 0 1 1 8 31.5 2.501 2.501 0 0 1 5.5 34zm9.5 1a2 2 0 0 1-4 0v-5a2.178 2.178 0 0 1 .03-.36A2.015 2.015 0 0 1 13 28a2.027 2.027 0 0 1 1.97 1.64A2.178 2.178 0 0 1 15 30zm7 0a2 2 0 0 1-4 0v-5a2.178 2.178 0 0 1 .03-.36A2.015 2.015 0 0 1 20 28a2.027 2.027 0 0 1 1.97 1.64A2.178 2.178 0 0 1 22 30zm7 0a2 2 0 0 1-4 0v-5a2.178 2.178 0 0 1 .03-.36A2.015 2.015 0 0 1 27 28a2.027 2.027 0 0 1 1.97 1.64A2.178 2.178 0 0 1 29 30zm2-11H9v-5a3.009 3.009 0 0 1 3-3h16a3.009 3.009 0 0 1 3 3zm3.5 10a2.5 2.5 0 1 1 2.5-2.5 2.501 2.501 0 0 1-2.5 2.5z" /></g></svg>
