<?xml version="1.0" encoding="UTF-8"?>
<svg xmlns="http://www.w3.org/2000/svg" id="tunnel" viewBox="0 0 48 44"><g fill="currentColor" data-name="Layer 2"><path d="M46 0H2a2.006 2.006 0 0 0-2 2v42h9.97V21a14.03 14.03 0 0 1 28.06 0v23H48V2a2.006 2.006 0 0 0-2-2z" /><path d="M32 33v-4a2.996 2.996 0 0 0-3-3H19a2.996 2.996 0 0 0-3 3v4a3.017 3.017 0 0 0-3 3v2a2.996 2.996 0 0 0 3 3v1a2 2 0 0 0 4 0v-1h8v1a2 2 0 0 0 4 0v-1a2.996 2.996 0 0 0 3-3v-2a3.017 3.017 0 0 0-3-3zm-13-3a1.003 1.003 0 0 1 1-1h8a1.003 1.003 0 0 1 1 1v3H19zm-1.5 5a1.5 1.5 0 1 1-1.5 1.5 1.498 1.498 0 0 1 1.5-1.5zm13 3a1.5 1.5 0 1 1 1.5-1.5 1.498 1.498 0 0 1-1.5 1.5z" /></g></svg>
