<?xml version="1.0" encoding="UTF-8"?>
<svg xmlns="http://www.w3.org/2000/svg" id="un-compound-office" viewBox="0 0 32 48"><g fill="currentColor" data-name="Layer 2"><path d="M30 6H2a2.006 2.006 0 0 0-2 2v22h32V8a2.006 2.006 0 0 0-2-2zM15 21.5a3.5 3.5 0 0 1-7 0V14a1 1 0 0 1 2 0v7.5a1.5 1.5 0 0 0 3 0V14a1 1 0 0 1 2 0zm9 2.5a.995.995 0 0 1-.77.97.906.906 0 0 1-.23.03.999.999 0 0 1-.89-.55L19 18.24V24a1 1 0 0 1-2 0V14a1 1 0 0 1 1.89-.45L22 19.76V14a1 1 0 0 1 2 0zM6 4h20a2 2 0 0 0 0-4H6a2 2 0 0 0 0 4zM0 48h12V38a2.006 2.006 0 0 1 2-2h4a2.006 2.006 0 0 1 2 2v10h12V32H0z" /></g></svg>
