<?xml version="1.0" encoding="UTF-8"?>
<svg xmlns="http://www.w3.org/2000/svg" id="un-vehicle" viewBox="0 0 48 28"><g fill="currentColor" data-name="Layer 2"><path d="M46 20v-3.94A5.066 5.066 0 0 0 40.94 11H38V8.64A8.655 8.655 0 0 0 29.36 0H9.23A5.24 5.24 0 0 0 4 5.23V6H3a2.996 2.996 0 0 0-3 3v7a2.006 2.006 0 0 0 2 2h2v2h-.01a1.954 1.954 0 0 0-1.41.59A1.994 1.994 0 0 0 3.99 24h4.04a2.71 2.71 0 0 1-.01-.29 1.275 1.275 0 0 1-.01-.2 6.495 6.495 0 0 1 12.99 0 1.275 1.275 0 0 1-.01.2 2.71 2.71 0 0 1-.01.29h9.05a2.71 2.71 0 0 1-.01-.29 1.275 1.275 0 0 1-.01-.2 6.495 6.495 0 0 1 12.99 0 1.275 1.275 0 0 1-.01.2 2.71 2.71 0 0 1-.01.29H46a2.014 2.014 0 0 0 2-2 2.006 2.006 0 0 0-2-2zM27 9.35V4h2.28c.16 0 .32.01.48.02a2.633 2.633 0 0 1 .41.06 4.738 4.738 0 0 1 3.75 3.75 2.693 2.693 0 0 1 .06.41c.01.16.02.32.02.48V11h-7zM11 14a2.963 2.963 0 0 1-1.86-.65 2.883 2.883 0 0 1-.26-.23 2.932 2.932 0 0 1-.85-1.77A1.98 1.98 0 0 1 8 11V5a1.003 1.003 0 0 1 1-1 .347.347 0 0 1 .1.01.999.999 0 0 1 .9.99v6a.841.841 0 0 0 .07.35.99.99 0 0 0 1.86 0A.841.841 0 0 0 12 11V5a1 1 0 0 1 2 0v6a1.98 1.98 0 0 1-.03.35A2.991 2.991 0 0 1 11 14zm6 0a.988.988 0 0 1-.93-.65A.841.841 0 0 1 16 13V5a.999.999 0 0 1 .72-.96A.896.896 0 0 1 17 4a1.001 1.001 0 0 1 .85.47l3.05 4.88.1.16V5a1 1 0 0 1 2 0v8a.985.985 0 0 1-.72.96.938.938 0 0 1-.28.04 1 1 0 0 1-.85-.47l-.11-.18-1.25-2-.22-.35-1.03-1.65-.54-.86V13a.841.841 0 0 1-.07.35.988.988 0 0 1-.93.65z" /><path d="M17.31 20a4.468 4.468 0 0 0-5.61 0 4.478 4.478 0 0 0-1.69 3.51 1.338 1.338 0 0 0 .01.2c0 .1.01.19.01.29a4.503 4.503 0 0 0 8.95 0c0-.1.01-.19.01-.29a1.338 1.338 0 0 0 .01-.2A4.478 4.478 0 0 0 17.31 20zM39.31 20a4.468 4.468 0 0 0-5.61 0 4.478 4.478 0 0 0-1.69 3.51 1.338 1.338 0 0 0 .01.2c0 .1.01.19.01.29a4.503 4.503 0 0 0 8.95 0c0-.1.01-.19.01-.29a1.338 1.338 0 0 0 .01-.2A4.478 4.478 0 0 0 39.31 20z" /></g></svg>
