<?xml version="1.0" encoding="UTF-8"?>
<svg xmlns="http://www.w3.org/2000/svg" id="university" viewBox="0 0 48 47.998"><g fill="currentColor" data-name="Layer 2"><path d="M46.5 44.998h-45a1.5 1.5 0 0 0 0 3h45a1.5 1.5 0 0 0 0-3zM5.5 42.998h37a1.5 1.5 0 0 0 0-3h-37a1.5 1.5 0 0 0 0 3zM10 16.998h4v21h-4zM18 16.998h4v21h-4zM26 16.998h4v21h-4zM34 16.998h4v21h-4zM5.26 14.998h37.48a1.015 1.015 0 0 0 .55-1.87L24.55.157a1.04 1.04 0 0 0-1.1 0L4.71 13.127a1.015 1.015 0 0 0 .55 1.87zm18.74-9a3 3 0 1 1-3 3 2.996 2.996 0 0 1 3-3z" /></g></svg>
