<?xml version="1.0" encoding="UTF-8"?>
<svg xmlns="http://www.w3.org/2000/svg" id="upload" viewBox="0 0 48 48"><g fill="currentColor" data-name="Layer 2"><path d="M40.121 14.879l-14-14a2.999 2.999 0 0 0-4.242 0l-14 14a3 3 0 1 0 4.242 4.242L21 10.242V36a3 3 0 0 0 6 0V10.242l8.879 8.88a3 3 0 1 0 4.242-4.243z" /><path d="M45.799 34H30v2a6 6 0 0 1-12 0v-2H2.201A2.373 2.373 0 0 0 0 36.514v8.972A2.373 2.373 0 0 0 2.201 48H45.8A2.373 2.373 0 0 0 48 45.486v-8.972A2.373 2.373 0 0 0 45.799 34zM36 43a2 2 0 1 1 2-2 2 2 0 0 1-2 2zm7 0a2 2 0 1 1 2-2 2 2 0 0 1-2 2z" /></g></svg>
