<?xml version="1.0" encoding="UTF-8"?>
<svg xmlns="http://www.w3.org/2000/svg" id="urban-rural" viewBox="0 0 47.986 48"><g fill="currentColor" data-name="Layer 2"><path d="M46.916 16h-1.93v-2.94a1.054 1.054 0 0 0-1.06-1.06h-1.94V1.5a1.5 1.5 0 0 0-3 0V12h-1.94a1.054 1.054 0 0 0-1.06 1.06V16h-1.93a1.071 1.071 0 0 0-1.07 1.07V36l6.35 11 .57 1h7.58a.495.495 0 0 0 .5-.5V17.07a1.071 1.071 0 0 0-1.07-1.07zm-10.93 3.5a.495.495 0 0 1 .5-.5h2a.495.495 0 0 1 .5.5v2a.495.495 0 0 1-.5.5h-2a.495.495 0 0 1-.5-.5zm0 6a.495.495 0 0 1 .5-.5h2a.495.495 0 0 1 .5.5v2a.495.495 0 0 1-.5.5h-2a.495.495 0 0 1-.5-.5zm3 8a.495.495 0 0 1-.5.5h-2a.495.495 0 0 1-.5-.5v-2a.495.495 0 0 1 .5-.5h2a.495.495 0 0 1 .5.5zm6 11.5h-3v-5a1.003 1.003 0 0 1 1-1h1a1.003 1.003 0 0 1 1 1zm0-11.5a.495.495 0 0 1-.5.5h-2a.495.495 0 0 1-.5-.5v-2a.495.495 0 0 1 .5-.5h2a.495.495 0 0 1 .5.5zm0-6a.495.495 0 0 1-.5.5h-2a.495.495 0 0 1-.5-.5v-2a.495.495 0 0 1 .5-.5h2a.495.495 0 0 1 .5.5zm0-6a.495.495 0 0 1-.5.5h-2a.495.495 0 0 1-.5-.5v-2a.495.495 0 0 1 .5-.5h2a.495.495 0 0 1 .5.5zM23.036 22.64a5.232 5.232 0 0 0-9.09 0L.116 46.71A.859.859 0 0 0 .866 48h36.73l-4.61-8.03z" /></g></svg>
