<?xml version="1.0" encoding="UTF-8"?>
<svg xmlns="http://www.w3.org/2000/svg" id="vaccine" viewBox="0 0 48 48"><g fill="currentColor" data-name="Layer 2"><rect width="22" height="7" x="26" y="10" rx="1" /><path d="M28 47a1.003 1.003 0 0 0 1 1h16a1.003 1.003 0 0 0 1-1V19H28zm3-22a1.003 1.003 0 0 1 1-1h10a1.003 1.003 0 0 1 1 1v7a1.003 1.003 0 0 1-1 1H32a1.003 1.003 0 0 1-1-1zm1 11h10a1 1 0 0 1 0 2H32a1 1 0 0 1 0-2zM19.5 8H14V3h2.5a1.5 1.5 0 0 0 0-3h-12a1.5 1.5 0 0 0 0 3H7v5H1.5a1.5 1.5 0 0 0 0 3H5v23a2.006 2.006 0 0 0 2 2v2a1 1 0 0 0 1 1h1v7.5a1.5 1.5 0 0 0 3 0V39h1a1 1 0 0 0 1-1v-2a2.006 2.006 0 0 0 2-2V11h3.5a1.5 1.5 0 0 0 0-3zM13 26H8V13h5z" /></g></svg>
