<?xml version="1.0" encoding="UTF-8"?>
<svg xmlns="http://www.w3.org/2000/svg" id="violent-wind" viewBox="0 0 48 48"><g fill="currentColor" data-name="Layer 2"><path d="M37.5 4A10.514 10.514 0 0 0 27 14h.009c0 .015-.009.028-.009.043V15a2 2 0 0 0 4 0v-1a6.51 6.51 0 1 1 6.5 7H1.974A1.973 1.973 0 0 0 0 22.974v.053A1.973 1.973 0 0 0 1.974 25H37.5a10.5 10.5 0 0 0 0-21z" /><path d="M1.94 18H16a9 9 0 1 0-9-9h.009c0 .015-.009.028-.009.043V10a2 2 0 0 0 4 0V9a5 5 0 1 1 5 5H1.94A1.94 1.94 0 0 0 0 15.94v.12A1.94 1.94 0 0 0 1.94 18zM28 28H2a2 2 0 0 0 0 4h26a6 6 0 1 1-6 6v-1a2 2 0 0 0-4 0v.957c0 .015.008.028.009.043H18a10 10 0 1 0 10-10z" /></g></svg>
