<?xml version="1.0" encoding="UTF-8"?>
<svg xmlns="http://www.w3.org/2000/svg" id="virus" viewBox="0 0 48 48"><path fill="currentColor" d="M46 22h-4.12a17.878 17.878 0 0 0-3.82-9.23l3.35-3.36a1.994 1.994 0 0 0-2.82-2.82l-3.36 3.35A17.878 17.878 0 0 0 26 6.12V2a2 2 0 0 0-4 0v4.12a17.878 17.878 0 0 0-9.23 3.82L9.41 6.59a1.994 1.994 0 0 0-2.82 2.82l3.35 3.36A17.878 17.878 0 0 0 6.12 22H2a2 2 0 0 0 0 4h4.12a17.878 17.878 0 0 0 3.82 9.23l-3.35 3.36a1.994 1.994 0 1 0 2.82 2.82l3.36-3.35A17.878 17.878 0 0 0 22 41.88V46a2 2 0 0 0 4 0v-4.12a17.878 17.878 0 0 0 9.23-3.82l3.36 3.35a1.994 1.994 0 0 0 2.82-2.82l-3.35-3.36A17.878 17.878 0 0 0 41.88 26H46a2 2 0 0 0 0-4zm-30.5 0a2.5 2.5 0 1 1 2.5-2.5 2.5 2.5 0 0 1-2.5 2.5zM28 34a5 5 0 1 1 5-5 5.002 5.002 0 0 1-5 5z" /></svg>
