<?xml version="1.0" encoding="UTF-8"?>
<svg xmlns="http://www.w3.org/2000/svg" id="walkie-talkie" viewBox="0 0 20.02 48"><path fill="currentColor" d="M18.02 14.058V2a2 2 0 0 0-4 0v12h-8v-2a1 1 0 0 0-1-1h-2a1 1 0 0 0-1 1v2.055A2.775 2.775 0 0 0 0 16.834v11.333a2.956 2.956 0 0 0 1.08 2.324v14.408A3.11 3.11 0 0 0 4.18 48h11.74a3.11 3.11 0 0 0 3.1-3.1V30.415a2.96 2.96 0 0 0 1-2.25V16.834a2.78 2.78 0 0 0-2-2.776zm-3 27.192a.76.76 0 0 1-.771.75h-8.48a.76.76 0 0 1-.771-.75v-4.5a.76.76 0 0 1 .77-.75h8.481a.76.76 0 0 1 .771.75zm0-12.25H5a1 1 0 0 1 0-2h10.02a1 1 0 0 1 0 2zm0-4H5a1 1 0 0 1 0-2h10.02a1 1 0 0 1 0 2zm0-4H5a1 1 0 0 1 0-2h10.02a1 1 0 0 1 0 2z" data-name="Layer 2" /></svg>
