<?xml version="1.0" encoding="UTF-8"?>
<svg xmlns="http://www.w3.org/2000/svg" id="water-trucking" viewBox="0 0 48 30"><g fill="currentColor" data-name="Layer 2"><path fill-rule="evenodd" d="M43 14v-2a6.005 6.005 0 0 0-6-6h-4V3a2.996 2.996 0 0 0-3-3H3a2.996 2.996 0 0 0-3 3v23h5a6 6 0 0 1 12 0h12a6 6 0 0 1 12 0h5a2.006 2.006 0 0 0 2-2v-5a5.002 5.002 0 0 0-5-5zm-26 2a3.988 3.988 0 0 1-4-3.98c0-2 3.28-6.19 3.9-6.97a.121.121 0 0 1 .2 0c.62.78 3.9 4.97 3.9 6.97A3.988 3.988 0 0 1 17 16zm20-7a2.996 2.996 0 0 1 3 3v2h-7V9z" /><circle cx="11" cy="26" r="4" /><circle cx="35" cy="26" r="4" /></g></svg>
