<?xml version="1.0" encoding="UTF-8"?>
<svg xmlns="http://www.w3.org/2000/svg" id="work-from-home" viewBox="0 0 48 48.05"><path fill="currentColor" d="M47.902 19.42A30.57 30.57 0 0 0 28.618.097a2 2 0 0 0-1.237 3.805 26.496 26.496 0 0 1 16.716 16.754 2 2 0 1 0 3.805-1.236zM25.767 7.192a2 2 0 0 0-1.535 3.693 22.543 22.543 0 0 1 12.92 12.918 2 2 0 0 0 3.695-1.53 26.643 26.643 0 0 0-15.08-15.081zM22.98 14.295a2 2 0 0 0-1.961 3.486 23 23 0 0 1 9.238 9.24 2 2 0 0 0 3.485-1.965 27.145 27.145 0 0 0-10.762-10.76zM21.588 23.63l-1.344 1.393-7.732-6.79a.808.808 0 0 0-1.024 0L.144 28.194a.415.415 0 0 0-.144.3V48.05h9v-7.421a1.579 1.579 0 0 1 1.579-1.58h2.842A1.579 1.579 0 0 1 15 40.63v7.42h9V28.496a.415.415 0 0 0-.144-.3l-.609-.535 1.16-1.209a1.994 1.994 0 0 0-2.82-2.82z" /></svg>
